<svg xmlns="http://www.w3.org/2000/svg" width="333.493" height="244.747" viewBox="0 0 333.493 244.747"><defs><style>.a{fill:transparent;}.b{fill:#d3245f;}.c{fill:#c63c7b;}</style></defs><g transform="translate(0 0.425)"><rect class="a" width="333.493" height="242.601"/><g transform="translate(134.231 2.856)"><path class="b" d="M290.341,469.384l-.093-1.482a235.019,235.019,0,0,0-6.763-47.8c-2.038-7.874-4.817-15.748-11.58-20.287a14.948,14.948,0,0,0-14.173-1.39,10.46,10.46,0,0,0-6.114,8.523c0,.371-.371.463-.556.463-.278,0-.278-.185-.278-.371a10.963,10.963,0,0,1,8.893-10.561l1.112-.278-1.019-.556a61.041,61.041,0,0,0-11.116-4.91,92.008,92.008,0,0,0-14.266-3.15l-.926-.185.463.834a37.378,37.378,0,0,1,2.964,6.855c3.057,10.19-.185,21.029-8.152,27.05-6.763,5.188-15.934,6.207-24.364,2.686-8.059-3.242-13.618-9.82-14.729-17.6v-.278l-.278-.093a31.152,31.152,0,0,1-8.43-3.705l-.278-.185-.278.185A36.065,36.065,0,0,0,172.136,410a32.342,32.342,0,0,0-5.466,8.708l-.371.741h.741c.463,0,.926-.093,1.39-.093.278.648.556,1.2.834,1.853a255.456,255.456,0,0,1,10.468,28.81l.371,1.112.556-1.112c.556-1.112.926-2.038,1.3-2.872.463-1.3.926-2.594,1.3-3.891l.463-1.39v-.093a34.28,34.28,0,0,1-.185-15.007c0-.093,0-.093.093-.093s.185,0,.185.185c.278,6.855,1.019,15.007,4.354,23.53,2.964,7.411,7.133,14.451,11.209,21.121l.556.926c.648,1.019,1.3,2.038,1.945,3.15,4.817,7.874,10.283,16.86,12.506,25.938l.185.834.556-.648a41.814,41.814,0,0,1,3.52-3.428l.093-.093V498.1c1.76-6.485,11.487-12.135,16.675-15.192l.834-.463a87.318,87.318,0,0,1,19.732-8.893l.278-.093.093-.278a13.166,13.166,0,0,1,3.242-6.021,17.279,17.279,0,0,1,3.705-2.594l.278-.185V464.1c-1.575-15.656-5.929-28.717-13.71-41.038a.174.174,0,0,1,0-.278c.093-.093.278-.093.463.093a72.083,72.083,0,0,1,14.729,40.39v.556l.556-.185c1.575-.463,3.613-.648,4.91.741a6.119,6.119,0,0,1-2.223.278,10.07,10.07,0,0,0-1.667.093,9.677,9.677,0,0,0-6.114,3.242,7.853,7.853,0,0,0-1.945,4.354l-.093.648.648-.185a31.677,31.677,0,0,1,7.04-.834c.093,0,.185,0,.185.185,0,.093,0,.278-.185.278-2.594.834-5.188,1.575-7.689,2.316-6.114,1.76-11.95,3.428-17.694,6.577-1.575.834-3.057,1.667-4.632,2.594l-1.112.648,1.2.278a26.077,26.077,0,0,1,7.874,2.964A28.649,28.649,0,0,1,254.4,499.213l.185.463.463-.185a40.4,40.4,0,0,1,7.874-3.242,61.709,61.709,0,0,1,7.411-1.39c5-.648,10.1-1.39,14.173-4.539C291.082,485.317,290.619,476.517,290.341,469.384Zm-64.383-15.47.093-.093a.2.2,0,0,1,.185.185v.093l-.093.093a.2.2,0,0,1-.185-.185c-.093-.093,0-.093,0-.093Zm29.088,5c0,.093,0,.185-.093.185a65.658,65.658,0,0,1-7.5.371,94.152,94.152,0,0,1-33.812-6.577c12.691,3.705,25.846,5.558,41.316,5.929Zm-22.7,5.558v-.463a73.1,73.1,0,0,1-27.421-7.781,278.861,278.861,0,0,0,27.421,7.5.093.093,0,0,1,0,.185v.556Z" transform="translate(-146.476 -298.283)"/><path class="b" d="M230.6,459.285v-.093l.093-.093a.2.2,0,0,1,.185.185v.093l-.093.093A.2.2,0,0,1,230.6,459.285Z" transform="translate(-151.21 -303.563)"/><path class="b" d="M235.944,469.442c0,.278-.185.463-.556.463h0a72.436,72.436,0,0,1-27.606-7.874.446.446,0,0,1-.185-.556.388.388,0,0,1,.556-.278c9.727,3.15,18.435,5.558,27.328,7.5A.763.763,0,0,1,235.944,469.442Z" transform="translate(-149.514 -303.714)"/><path class="b" d="M213.967,456.6c13.618,4.354,27.7,6.485,44.466,6.855a.534.534,0,0,1,.556.556.677.677,0,0,1-.556.648,68.392,68.392,0,0,1-7.6.371,95.548,95.548,0,0,1-37.147-7.874c-.093-.093-.185-.185-.093-.371C213.6,456.6,213.782,456.6,213.967,456.6Z" transform="translate(-149.955 -303.378)"/><path class="c" d="M238.414,398.082c-.093-.648-.278-1.2-.371-1.945a8.273,8.273,0,0,0-.556-1.853,29.238,29.238,0,0,0-4.076-8.152,6.994,6.994,0,0,0-1.019-1.3,25.522,25.522,0,0,0-2.686-2.779l-.648-.556-.093.834c-.278,1.575-.648,3.057-1.019,4.539l-.185.278.278.278a13.959,13.959,0,0,1,4.169,7.133,18.7,18.7,0,0,1-7.226,18.991,17.11,17.11,0,0,1-20.1.278,13.609,13.609,0,0,1-4.447-5.743l-.093-.278h-.834a11.81,11.81,0,0,1-1.76-.093c-1.2-.093-2.409-.278-3.705-.463l-.741-.185.185.741c.371,1.3.834,2.594,1.3,3.8v.093c.185.463.463.926.741,1.482a21.242,21.242,0,0,0,5.1,6.577,11.735,11.735,0,0,0,1.2,1.019c.648.463,1.3.926,2.038,1.39a26.284,26.284,0,0,0,6.021,2.594,10.773,10.773,0,0,0,1.667.371,22.4,22.4,0,0,0,4.354.371,22.825,22.825,0,0,0,7.04-1.112l1.667-.556a35,35,0,0,0,3.242-1.575,23.22,23.22,0,0,0,5.836-5,8.2,8.2,0,0,0,1.112-1.575,22.958,22.958,0,0,0,3.705-9.912c.093-.648.093-1.2.185-1.76A31.054,31.054,0,0,0,238.414,398.082Z" transform="translate(-148.464 -297.849)"/><path class="b" d="M226.235,313.618a1.211,1.211,0,0,0-.463-2.038,2.863,2.863,0,0,0-.741-.185,17.014,17.014,0,0,0-4.169-4.724,22.554,22.554,0,0,0-8.615-3.613l-.648-.185a.185.185,0,0,1,0-.371h.278a12.282,12.282,0,0,1,5.1.834l.093.093,2.686-.556-1.019-.556a22.335,22.335,0,0,0-19.546-1.3.338.338,0,0,1-.463-.185c-.093-.185-.185-.463,0-.648l5.28-6.392-1.76.741c-.556.278-1.112.463-1.667.741l2.131-1.482L199.37,295a43.427,43.427,0,0,0-8.615,4.261l-.185.093v.371l-.093.463.463.093a7.436,7.436,0,0,1,1.667.371,10.513,10.513,0,0,1,6.207,5.1c.093.185.093.278,0,.371a.34.34,0,0,1-.278.093h-.185a27.831,27.831,0,0,0-10.746-1.667c-.093,0-.093-.093-.093-.185a18.019,18.019,0,0,1,8.8.463l1.575.463-1.112-1.2a9.791,9.791,0,0,0-4.632-2.872,10.491,10.491,0,0,0-4.817.093l-.278.093a18.552,18.552,0,0,1-2.223.371,5.7,5.7,0,0,1,3.983-1.667h.371l.093-.371a13.065,13.065,0,0,0,.648-3.8,16.942,16.942,0,0,0-.185-3.057l-.278-1.667-.648,1.575c-1.2,3.15-3.891,5.743-6.3,7.967a.708.708,0,0,1-.463.185.481.481,0,0,1-.371-.185,20.306,20.306,0,0,1-3.428-6.577l-.556-1.76-.371,1.853-.093.371v.093c0-.278.093-.556.093-.741l.371-2.131-1.2,1.76a17.226,17.226,0,0,0-2.131,4.354,15.431,15.431,0,0,0-.648,3.242v.278l.278.185c.278.185.463.278.741.463.185.185.185.371.093.463a.565.565,0,0,1-.648.278c-5.1-2.5-9.542-3.242-13.988-2.594l-2.131.371,2.038.556a9.432,9.432,0,0,1,5.373,3.335.413.413,0,0,1,0,.463.632.632,0,0,1-.463.278,17.1,17.1,0,0,0-16.767,5.1l-1.3,1.39,1.76-.648a14.927,14.927,0,0,1,6.948-.741h.185l.185-.093a8.108,8.108,0,0,1,2.872-1.575h.093v.093a16.637,16.637,0,0,1-2.686,2.409l-.093.093a19.547,19.547,0,0,0-2.131,1.76,35.86,35.86,0,0,0-4.261,5,32.923,32.923,0,0,0-4.354,9.078l-.556,1.667,1.3-1.2a24.991,24.991,0,0,1,5.1-3.891l.185-.093.093-.185a21.128,21.128,0,0,1,2.131-4.354.34.34,0,0,1,.278-.093s.093,0,.093.185c-.278,1.019-.648,2.131-1.019,3.15a42.546,42.546,0,0,0-1.853,6.948c-.093.648-.185,1.39-.278,2.038a10.182,10.182,0,0,0-.648,4.91c.093.556.648.648,1.112.556l-.093.371.185-.371.278-.278a7.171,7.171,0,0,0,.648-1.482l.185-.278a39.966,39.966,0,0,1,3.891-5.836,46.857,46.857,0,0,1,4.261-4.817,17.744,17.744,0,0,1,5-3.52.287.287,0,0,1,.185.093.174.174,0,0,1,0,.278l-2.779,2.779-.093.093v.185a16.559,16.559,0,0,0,.371,5.28l.556,2.409.185-1.667,1.112-1.667a41.724,41.724,0,0,1,5.28-6.114c.093-.093.371-.185.463-.093a.3.3,0,0,1,.278.278,32.792,32.792,0,0,1,1.39,8.523v.093a3.292,3.292,0,0,0-.185.926.56.56,0,0,0,.278.556v.463l.185-.371a.834.834,0,0,0,.926-.093,6.076,6.076,0,0,0,1.39-2.131c3.242-4.261,3.8-9.727,1.76-15.841a.2.2,0,0,1,.093-.278c.093,0,.185-.093.185.093a13.007,13.007,0,0,1,1.853,8.152v.185l.093.185a26.526,26.526,0,0,0,4.632,4.261l1.3.926-.556-1.482a10.737,10.737,0,0,1,.741-9.634c.093-.093.185-.185.278-.185a1.007,1.007,0,0,1,.463.093,20.784,20.784,0,0,1,7.5,9.634,3.94,3.94,0,0,1,.185,1.019,2.024,2.024,0,0,0,.278.463l.648,1.853-.093-1.667a.946.946,0,0,0,1.019-.926v-1.3c1.945-5.466.278-11.672-4.261-16.582-.093-.093,0-.185,0-.278s.093,0,.093,0a13.471,13.471,0,0,1,4.539,5.373l.093.185.185.093a20.973,20.973,0,0,1,9.264,7.967,5.043,5.043,0,0,0,1.019,1.667c.093.093.093.093.185.093l.371.648-.093-.556c.371,0,.741-.185.741-.556a7.071,7.071,0,0,0-.185-2.409l.093-.371a32.913,32.913,0,0,0,.278-4.261,27.815,27.815,0,0,0-.741-4.724l-.093-.185c-.648-.834-1.3-1.76-1.945-2.594,0-.093-.093-.093,0-.185,0,0,.185-.093.278,0,4.076,3.242,7.133,8.43,8.615,14.544l.556,2.409.093-.463a1.013,1.013,0,0,0,1.667-.648,24.7,24.7,0,0,0,0-3.705,18.972,18.972,0,0,0,.093-3.242,18.66,18.66,0,0,0-1.2-5.466,16.1,16.1,0,0,0-.926-1.76,10.354,10.354,0,0,1-1.019-2.316c0-.093,0-.185.093-.185a.174.174,0,0,1,.278,0,7.5,7.5,0,0,1,2.316,2.872l.093.278h.278a19.273,19.273,0,0,1,4.539.278,9.079,9.079,0,0,0,4.076,2.131.984.984,0,0,0,.741-.093l1.2,1.2Zm-49-4.447a33.5,33.5,0,0,1-3.242,1.2l-.278.093a34.221,34.221,0,0,0-3.891,1.575,33.42,33.42,0,0,0-6.485,4.632.463.463,0,0,1-.556,0c-.185-.093-.093-.371-.093-.463,2.038-4.817,5.558-8.523,9.449-9.82v.093a31.968,31.968,0,0,0-6.577,6.207l-1.853,2.5,2.5-1.853c2.779-2.038,6.855-4.539,10.931-4.632,0,0,.185,0,.185.093C177.416,308.986,177.416,309.172,177.23,309.172Zm10.375,4.447h0a.413.413,0,0,1-.371.278c-.093,0-.093,0-.185-.093a14.164,14.164,0,0,0-2.872-3.983,13.919,13.919,0,0,0-2.223-1.667,13.255,13.255,0,0,1-1.39-1.019l.093-.093c2.686.556,4.817,3.15,5.836,4.632l.834,1.2v-1.39a8.606,8.606,0,0,0-.463-2.686,5.934,5.934,0,0,0-1.2-1.76l-.371.278.278-.371a13.259,13.259,0,0,1-1.019-1.39c1.39,0,2.409,1.853,2.872,2.872A7.646,7.646,0,0,1,187.606,313.618Z" transform="translate(-144.9 -291.2)"/></g><g transform="translate(133.195 2.949)"><path class="a" d="M297.308,466.828a195.138,195.138,0,0,0-1.945-23.252c-.926-6.392-1.853-13.9-3.891-20.936.648-2.409-.648-4.91-1.482-7.226a36.816,36.816,0,0,0-4.539-9.171c-3.335-4.632-8.893-8.986-14.915-8.152a.841.841,0,0,0-.648.278,17.48,17.48,0,0,0-8.245.741c-1.112,2.316-2.779,3.891-3.15,6.485,0,.371-.093.648-.093,1.019a12.368,12.368,0,0,1,15.007-2.594c5.929,2.964,9.264,8.893,11.394,14.915,4.261,12.135,6.021,25.753,6.855,38.537a162.437,162.437,0,0,1,.371,18.991c-.278,7.318-3.8,11.672-10.746,13.9-7.781,2.5-16.211,2.409-22.881,6.577.185.185.371.278.463.556a17.646,17.646,0,0,1,2.131,3.613c9.727-6.577,25.383-2.316,33.164-13.34C298.327,481.743,297.493,473.5,297.308,466.828Z" transform="translate(-152.221 -299.156)"/><path class="a" d="M234.674,387.17a1.255,1.255,0,0,0-2.131.926c-.278,2.5.648,4.447,1.112,6.855a34.541,34.541,0,0,1,.834,9.264c-.463,5.743-3.057,11.765-7.967,15.007-10.839,7.226-21.584-.463-30.385-6.762-1.112-.834-2.594.741-1.853,1.853,7.318,10.653,23.808,16.211,35.017,8.245a23.443,23.443,0,0,0,9.171-15.47C239.4,401.251,239.306,391.431,234.674,387.17Z" transform="translate(-147.485 -298.331)"/><path class="a" d="M247.73,454.946c-6.855-.741-13.618-.185-20.473-1.482-6.392-1.2-12.228-3.891-18.527-5.466a.714.714,0,0,0-.556,1.3c5.466,4.076,13.247,5.929,19.917,7.04,6.392,1.112,13.618,2.038,19.824.185A.805.805,0,0,0,247.73,454.946Z" transform="translate(-148.498 -302.836)"/><path class="a" d="M230.9,466.24c-4.261-1.39-8.708-1.76-13.062-2.964s-8.43-2.964-12.784-4.076c-.463-.093-.834.556-.371.834,3.8,2.5,8.245,3.8,12.6,5,4.261,1.2,8.893,2.5,13.432,2.409A.623.623,0,0,0,230.9,466.24Z" transform="translate(-148.25 -303.662)"/><path class="a" d="M226.7,307.822c-2.409-1.945-6.392-5.1-9.634-4.724-.371,0-.463.371-.278.648,1.019,1.2,2.594,1.76,3.983,2.594a28.543,28.543,0,0,1,4.632,3.428,27.387,27.387,0,0,1,3.613,3.705c1.019,1.3,1.667,2.872,3.242,3.52.463.185.926,0,.926-.556C233.375,313.288,228.928,309.582,226.7,307.822Z" transform="translate(-149.151 -292.166)"/><path class="a" d="M165.478,322a20.927,20.927,0,0,0-9.449,6.485c-2.038,2.409-5,6.392-4.632,9.727a.811.811,0,0,0,1.482.371c.926-1.3,1.2-2.964,1.945-4.447a21.668,21.668,0,0,1,3.057-4.539,24.1,24.1,0,0,1,8.337-5.929C166.96,323.2,166.4,321.719,165.478,322Z" transform="translate(-144.34 -293.558)"/><path class="a" d="M189.6,318.663c-2.409-1.76-4.447,1.853-4.91,3.8-.463,2.316.185,6.207,2.779,6.948a.742.742,0,0,0,.926-.926c-.371-1.39-1.39-2.409-1.575-3.891s.278-4.539,2.316-4.539A.755.755,0,0,0,189.6,318.663Z" transform="translate(-146.783 -293.28)"/><path class="a" d="M153.526,321.8a27.949,27.949,0,0,0-9.634,8.523.837.837,0,0,0,1.3,1.019,40.158,40.158,0,0,1,5.836-5.373,10.577,10.577,0,0,1,1.482-.834A8.711,8.711,0,0,1,153.526,321.8Z" transform="translate(-143.781 -293.546)"/><path class="a" d="M156.8,311.72a6.49,6.49,0,0,1,1.76-1.39c.093,0,.093-.093.185-.093a10.015,10.015,0,0,0-5.188-.741c-2.316.093-4.91.648-6.577,2.316-.463.463,0,1.112.648,1.019,2.131-.278,4.076-1.112,6.3-1.112a13.456,13.456,0,0,1,2.594.371C156.712,311.905,156.712,311.813,156.8,311.72Z" transform="translate(-144.004 -292.637)"/><path class="a" d="M165.322,305.207v.093h.371a2.565,2.565,0,0,1,1.2.278,3.312,3.312,0,0,0-1.3-4.354,5.747,5.747,0,0,0-2.964-.834c-1.2-.093-3.057-.371-4.169.371a.839.839,0,0,0-.185,1.3c.926,1.2,2.779.741,4.076.741C163.84,302.891,165.693,303.354,165.322,305.207Z" transform="translate(-144.832 -291.96)"/><path class="a" d="M223.819,302.793c-4.91-3.335-14.451-5.651-19.732-2.038a.351.351,0,0,0,.185.648c2.872.371,5.651-.278,8.523.093a29.013,29.013,0,0,1,9.912,3.242A1.128,1.128,0,0,0,223.819,302.793Z" transform="translate(-148.21 -291.862)"/><path class="a" d="M205.543,294.4a5.693,5.693,0,0,0-2.779.463,2.546,2.546,0,0,1-1.667-.093c-.834.556-1.667,1.112-2.316,1.575a20.145,20.145,0,0,0-5.28,4.447,5.859,5.859,0,0,1,2.409.648c1.482-1.112,2.779-2.409,4.354-3.428,1.853-1.2,4.354-1.945,5.929-3.52A1.373,1.373,0,0,1,205.543,294.4Z" transform="translate(-147.442 -291.526)"/><path class="a" d="M193.087,292.79c-.093-.093-.278-.185-.371-.371-.093-.093-.741-.556-.093-.093a4.392,4.392,0,0,1-.926-.926,19.874,19.874,0,0,1-2.5,4.817,15.392,15.392,0,0,1-2.5,2.409,13.987,13.987,0,0,0-2.409,1.667.535.535,0,0,0,.371.926c2.223.185,4.724-1.945,6.114-3.52a12.709,12.709,0,0,0,2.686-4.447A1.626,1.626,0,0,0,193.087,292.79Z" transform="translate(-146.751 -291.307)"/><path class="a" d="M180.309,293.245a2.187,2.187,0,0,1-.556-.834,2.633,2.633,0,0,1-.371-1.112,12.842,12.842,0,0,0-2.872,4.817c-.648,1.853-1.39,4.261-1.019,6.207a2.039,2.039,0,0,1,.741-.093,1.976,1.976,0,0,1,1.112.278c.371-1.76.371-3.705,1.019-5.466a27.761,27.761,0,0,1,2.038-3.613C180.495,293.338,180.4,293.338,180.309,293.245Z" transform="translate(-146.109 -291.3)"/><path class="a" d="M167.694,314.9c-.093,0-.093.093,0,.093Z" transform="translate(-145.537 -293.038)"/><path class="a" d="M178.705,309.572c-3.891-1.482-10.1,1.945-12.413,5.1-.371.463.371,1.112.834.834a25.177,25.177,0,0,1,5.373-3.428c2.038-.834,4.261-.741,6.207-1.482C179.169,310.313,179.169,309.757,178.705,309.572Z" transform="translate(-145.432 -292.619)"/><path class="a" d="M188.547,309.267a6.718,6.718,0,0,0-3.891-1.667.576.576,0,0,0-.185,1.112,8.342,8.342,0,0,1,3.15,1.853c.741.741,1.112,1.945,1.945,2.594a.563.563,0,0,0,.834-.371C190.863,311.491,189.473,310.009,188.547,309.267Z" transform="translate(-146.751 -292.5)"/><path class="a" d="M200.879,305.53c-.834-1.482-2.964-1.76-4.539-1.945-1.76-.278-3.983-.371-5.558.556-.463.278-.185.834.278.926,1.667.185,3.335-.185,5.1,0,1.482.185,2.964,1.112,4.447.926A.354.354,0,0,0,200.879,305.53Z" transform="translate(-147.225 -292.19)"/><path class="a" d="M210.81,310.675a.607.607,0,0,0-1.112.463,46.255,46.255,0,0,1,1.39,7.967c0,2.409-.834,4.817-.648,7.226a.712.712,0,0,0,1.3.371C214.423,322.718,213.311,314.659,210.81,310.675Z" transform="translate(-148.633 -292.704)"/><path class="a" d="M219.9,309.967a.579.579,0,0,0-1.112,0,21.816,21.816,0,0,0,.463,6.948,38.22,38.22,0,0,1,0,10.283c-.093,1.112,1.667,1.3,1.945.278C223.05,321.454,220.827,315.988,219.9,309.967Z" transform="translate(-149.294 -292.644)"/><path class="a" d="M196.072,310.556a.821.821,0,0,0-1.575.463c.741,2.686,2.131,5.188,2.779,7.967.741,3.335.185,6.3-.185,9.542-.093.834,1.3,1.2,1.575.463C201.723,322.6,198.388,316.577,196.072,310.556Z" transform="translate(-147.513 -292.677)"/><path class="a" d="M180.289,317.66a2.673,2.673,0,0,1-1.2-1.76c-1.112,2.223-.556,4.725-.926,7.133-.556,3.8-2.223,6.855-4.169,10-.556.834.741,1.853,1.39,1.112a17.359,17.359,0,0,0,4.076-7.318,16.7,16.7,0,0,0,.741-3.613C180.474,321.458,180.1,319.42,180.289,317.66Z" transform="translate(-145.996 -293.111)"/><path class="a" d="M172.521,323.767c-1.019-.926-2.316-.093-3.15.556-2.5,1.853-4.91,4.169-5.373,7.411a1.206,1.206,0,0,0,.463,1.2c1.575.926,1.76-1.76,2.131-2.594a9.288,9.288,0,0,1,2.131-2.872c.834-.834,2.131-1.575,2.594-2.594a.812.812,0,0,0,1.39.834A1.223,1.223,0,0,0,172.521,323.767Z" transform="translate(-145.268 -293.66)"/></g><g transform="translate(30.2 -0.425)"><path d="M49.289,494.775c3.335,16.026,4.91,32.145,6.3,48.264h3.057c-.556-16.211-3.15-32.516-6.392-48.171-3.705-18.064-8.708-36.128-15.841-53.174-.371-.926-.741-1.76-1.112-2.594-.834,0-1.667.093-2.5.093.371.926.648,1.853,1.019,2.779C39.933,459.2,45.491,476.618,49.289,494.775Z" transform="translate(-32.615 -298.385)"/><path d="M172.716,481.661c4.169,19.917,5.558,40.019,7.318,60.214h2.038c.741-20.1-2.409-40.575-6.392-60.121-3.983-19.176-9.356-38.352-17.23-56.416-.278-.741-.648-1.39-.926-2.038a18.971,18.971,0,0,1-2.223.463,19.4,19.4,0,0,1,.741,2.131C162.711,444.236,168.732,462.578,172.716,481.661Z" transform="translate(-41.634 -297.221)"/><path d="M167.434,423.709c6.762,18.713,12.969,37.425,16.953,56.972,4.261,20.195,5.651,40.575,7.411,61.048h1.945c.093-3.15.185-6.207.093-9.356,0-1.019,0-2.038-.093-2.964-.463-16.4-3.15-32.793-6.392-48.634-1.76-8.43-3.8-16.86-6.114-25.2-.278-1.019-.648-2.131-.926-3.15a244.408,244.408,0,0,0-10.468-28.9,23.684,23.684,0,0,0-1.019-2.223c-.556,0-1.112.093-1.667.093H166.6a1.339,1.339,0,0,1,.185.648C167.063,422.69,167.248,423.153,167.434,423.709Z" transform="translate(-42.467 -297.074)"/><path d="M168.937,423.523a21.081,21.081,0,0,0-2.409.185l-8.615.556c-.834.093-1.575.093-2.409.185h-1.2a9.893,9.893,0,0,0,.278-2.316c2.872-.185,5.651-.371,8.523-.556a22.77,22.77,0,0,0,2.594-.185h.556c.556,0,1.112-.093,1.667-.093C168.288,422.134,168.659,422.875,168.937,423.523Z" transform="translate(-41.561 -297.074)"/><path d="M150.064,423.041l-4.447-.741-17.786,3.983c-7.318,1.482-14.637,2.872-22.048,4.076-17.045,2.872-34.09,5-51.321,6.392-6.392.556-12.877.834-19.361,1.112-.834,0-1.667.093-2.5.093.371.926.648,1.853,1.019,2.779.926-.093,1.76-.093,2.686-.185,6.485-.463,12.877-1.019,19.176-1.575q25.846-2.223,51.413-6.485c12.506-2.131,24.919-4.539,37.24-7.411.741-.185,1.575-.371,2.316-.556-.093-.278-.278-.648-.371-.926Z" transform="translate(-32.6 -297.148)"/><path d="M264.534,534.4a15.717,15.717,0,0,1-2.038.371,4.652,4.652,0,0,1-1.112.185,231.635,231.635,0,0,1-27.606,3.428,262.836,262.836,0,0,1-39.185-.834,4.624,4.624,0,0,1-.093,2.964,245.6,245.6,0,0,0,67.81-2.964l.926-.185c.741-.185,1.482-.278,2.223-.463C265.182,536.16,264.9,535.234,264.534,534.4Z" transform="translate(-44.521 -305.402)"/><path d="M82.37,494.005c-1.2-5.651-2.5-11.3-3.8-16.953a.821.821,0,1,0-1.575.463c1.112,5.373,2.316,10.746,3.428,16.119,1.112,5.28,1.945,10.931,3.8,16.026.185.556,1.2.556,1.112-.185C85.057,504.2,83.482,499.1,82.37,494.005Z" transform="translate(-35.867 -301.135)"/><path d="M104.5,496.306c-1.39-4.261-5.28-7.226-9.356-8.708-.463-.185-.741.556-.371.834,4.817,2.779,13.34,9.82,6.855,15.656-3.52,3.15-7.967.741-8.986-3.428-.741-2.964.093-6.207.648-9.171a.573.573,0,1,0-1.112-.278c-1.482,4.354-2.686,9.634.556,13.525a6.4,6.4,0,0,0,8.615,1.482C104.872,504.087,105.706,500.011,104.5,496.306Z" transform="translate(-36.876 -301.953)"/><path d="M126.874,494.522c-.463-.648-1.667-.278-1.39.556,1.76,5-2.594,9.912-7.689,7.04-5.651-3.15-2.872-10.839-.741-15.285.278-.648-.648-1.2-.926-.556-1.853,3.613-4.076,7.411-3.242,11.672a8.317,8.317,0,0,0,6.3,6.762C124.651,506.1,130.394,499.709,126.874,494.522Z" transform="translate(-38.498 -301.837)"/><path d="M122.8,485.981c-.556-.648-1.76.185-1.2.926,3.057,4.261,6.485,8.523,7.6,13.8,1.482,7.318-1.76,12.228-8.615,14.544-.371.093-.463.741,0,.834,5.836,1.2,10.283-4.817,10.931-10.1C132.34,498.3,127.43,491.54,122.8,485.981Z" transform="translate(-39.055 -301.819)"/><path d="M137.167,478.937c-.648.278-.278,1.39.371,1.3,9.078-.834,10.468,8.337,9.912,15.378-.185,2.038-.463,7.133-5.188,4.076-1.39-.926-2.5-4.169-2.964-5.373a61.649,61.649,0,0,1-2.5-8.986.663.663,0,0,0-1.3.185c.463,4.91,1.853,13.154,6.3,16.3,2.964,2.038,5.929.463,6.948-2.686C150.878,492.462,147.821,474.12,137.167,478.937Z" transform="translate(-40.177 -301.259)"/><path d="M215.1,507.587v.741c-.093.185-.093.278,0,.185-.093.185-.185.278-.185.371a4.038,4.038,0,0,1-.834,1.019,14.812,14.812,0,0,1-.463-1.945,80.4,80.4,0,0,0-5.836-16.582c-3.52-7.04-7.874-13.71-11.858-20.473-3.8-6.485-7.874-13.9-10.19-21.677a34.69,34.69,0,0,1-1.112-4.169,35.046,35.046,0,0,1-.185-15.192c.185-.741,1.2-.463,1.2.185.371,8.245,1.3,15.656,4.354,23.345,3.057,7.781,7.411,14.915,11.672,21.955,5.1,8.337,11.95,18.805,14.544,29.273.093.278.093.463.185.741A2.419,2.419,0,0,0,215.1,507.587Z" transform="translate(-43.725 -297.672)"/><path d="M186.221,448.224c-.278.648-.556,1.3-.834,2.038-.278.648-.463,1.2-.741,1.853-.741,1.667-1.482,3.428-2.316,5.188a14.742,14.742,0,0,1-1.2,2.038c-.185-.648-.278-1.39-.463-2.038a1.765,1.765,0,0,0-.463-.926c.371-.741.741-1.575,1.112-2.316a27.021,27.021,0,0,0,1.3-2.872c.648-1.667,1.2-3.428,1.76-5.1.278-.834.556-1.76.926-2.594A13.4,13.4,0,0,0,186.221,448.224Z" transform="translate(-43.468 -298.709)"/><path d="M181.72,403.953c-.371.278-.834.463-1.2.741a37.252,37.252,0,0,0-8.152,6.763,35.557,35.557,0,0,0-5.466,8.615c-.093.185-.185.463-.278.648-.185.371-.371.741-.556,1.2a4.662,4.662,0,0,0-2.964.093,13.5,13.5,0,0,1,.648-1.76,37.941,37.941,0,0,1,14.266-17.23c.463-.278.926-.648,1.39-.926a7.4,7.4,0,0,0,1.2,1.2C180.979,403.49,181.349,403.767,181.72,403.953Z" transform="translate(-42.209 -295.66)"/><path d="M270.958,396.235a7.293,7.293,0,0,0-3.242.371,3.6,3.6,0,0,0-1.39.185l-.834-.556c-.278-.185-.556-.278-.834-.463a55.28,55.28,0,0,0-11.024-4.817,107.711,107.711,0,0,0-14.173-3.15c-.371-.093-.648-.093-1.019-.185-.371-.463-.648-.926-1.019-1.39a17.784,17.784,0,0,0-1.3-1.39,8.1,8.1,0,0,0-.926-.741l1.945.278a93.37,93.37,0,0,1,19.176,4.539,61.407,61.407,0,0,1,13.247,6.3C270.124,395.587,270.495,395.865,270.958,396.235Z" transform="translate(-47.518 -294.335)"/><path d="M272.408,467.349A5.591,5.591,0,0,0,270,468.368c0-.463-.093-.926-.093-1.3-1.482-14.729-5.558-27.976-13.618-40.853-.556-.834.741-1.39,1.2-.741,8.615,11.394,14.359,26.124,14.822,40.668A4.893,4.893,0,0,1,272.408,467.349Z" transform="translate(-49.06 -297.361)"/><path d="M278.2,470.852c-1.3.648-2.779.278-4.169.463a9.043,9.043,0,0,0-5.836,3.057,7.556,7.556,0,0,0-1.76,4.076,7.01,7.01,0,0,0-.093,1.39,18.484,18.484,0,0,0-3.242.834,7.15,7.15,0,0,1,.185-1.39,14.661,14.661,0,0,1,3.335-6.3,15.633,15.633,0,0,1,3.891-2.686,13.68,13.68,0,0,1,2.5-.926c2.131-.648,4.169-.556,5.373,1.019C278.385,470.482,278.478,470.76,278.2,470.852Z" transform="translate(-49.572 -300.586)"/><path d="M270.656,479.7c-8.708,2.872-17.138,4.447-25.29,8.893-1.39.741-2.964,1.667-4.632,2.594-1.019.556-2.038,1.2-3.057,1.853h0a42.313,42.313,0,0,0-9.171,7.411h0l-.278.278a16.379,16.379,0,0,0-1.482,2.038,2.208,2.208,0,0,0-1.019.556c-.556.463-1.2.926-1.76,1.482h0c-.556.556-1.112,1.112-1.667,1.76a5.246,5.246,0,0,1,.278-1.667c1.945-6.948,12.691-12.969,17.694-15.934a85.6,85.6,0,0,1,19.824-8.893c1.112-.278,2.131-.556,3.242-.834a31.853,31.853,0,0,1,7.133-.834C271.3,478.213,271.4,479.417,270.656,479.7Z" transform="translate(-46.568 -301.277)"/><path d="M298.884,475.981c-.093,4.354-.648,8.893-2.964,12.6a16.381,16.381,0,0,1-1.482,2.038,5.992,5.992,0,0,0-.741.834,13.71,13.71,0,0,1-2.686,2.038c-.648.371-1.3.741-2.038,1.112a37.015,37.015,0,0,1-10.561,2.779c-6.948,1.112-13.247,2.594-19.176,6.577a36.16,36.16,0,0,0-6.577,5.836l-.185.185c-.463.463-.834.926-1.3,1.482-.093.093-.093.185-.185.278-.093,0-.278.093-.371.093-.371.093-.741.093-1.112.185a19.569,19.569,0,0,1-2.409.185,13.71,13.71,0,0,0,.741-1.2c.093-.093.093-.185.185-.278a3.923,3.923,0,0,0,.463-.648h0a8.1,8.1,0,0,1,.741-.926,13.96,13.96,0,0,1,1.945-2.131,37.42,37.42,0,0,1,7.689-6.021c.648-.371,1.3-.741,2.038-1.112a41.152,41.152,0,0,1,7.967-3.242c6.207-1.76,13.525-1.3,19.361-4.447a9.918,9.918,0,0,0,2.038-1.39h0c6.577-5.1,5.651-14.451,5.373-21.862a230.5,230.5,0,0,0-6.762-47.708c-1.945-7.5-4.632-15.47-11.394-20.01-7.04-4.725-18.342-2.964-19.546,6.762-.093,1.112-1.853,1.2-1.76,0a11.563,11.563,0,0,1,9.264-11.024,17.672,17.672,0,0,1,5-.463,16.791,16.791,0,0,1,8.8,3.057c10.468,7.318,12.691,22.233,15.007,33.813,1.112,5.466,2.131,11.024,2.872,16.675.093.741.185,1.482.278,2.131A145.482,145.482,0,0,1,298.884,475.981Z" transform="translate(-48.394 -295.246)"/><path d="M252.589,454.908a.677.677,0,0,1-.556.648,68.384,68.384,0,0,1-7.6.371,95.548,95.548,0,0,1-37.147-7.874c-.093-.093-.185-.185-.093-.37s.185-.278.371-.185c13.618,4.354,27.7,6.485,44.466,6.855Q252.589,454.491,252.589,454.908Z" transform="translate(-45.453 -299)"/><path d="M232.044,465.642c0,.278-.185.463-.556.463h0a72.436,72.436,0,0,1-27.606-7.874.446.446,0,0,1-.185-.556.388.388,0,0,1,.556-.278c9.727,3.15,18.435,5.558,27.328,7.5A.763.763,0,0,1,232.044,465.642Z" transform="translate(-45.195 -299.729)"/><path d="M224.593,452.993h0c-.093.093,0,.093,0,.093h.093l-.093-.093Zm0-.093a.091.091,0,0,0-.093.093v.093a.2.2,0,0,0,.185.185c.093,0,.093,0,.093-.093v-.093A.2.2,0,0,0,224.593,452.9Z" transform="translate(-46.73 -299.401)"/><path d="M269.694,544.034c.463,2.038.834,4.076,1.112,6.021h3.15c-.371-2.038-.741-4.076-1.2-6.021-.556-2.316-1.112-4.724-1.853-7.04-.278-.834-.556-1.76-.834-2.594a16.368,16.368,0,0,1-1.853.371,4.652,4.652,0,0,1-1.112.185c.278.834.556,1.667.834,2.594C268.49,539.68,269.138,541.811,269.694,544.034Z" transform="translate(-49.866 -305.402)"/><path d="M295.541,549.489h2.409a94.178,94.178,0,0,0,.556-12.506c-.093-2.038-.185-4.261-.371-6.577A10.7,10.7,0,0,1,294.8,526.7a98.32,98.32,0,0,1,1.2,10.19A113.707,113.707,0,0,1,295.541,549.489Z" transform="translate(-51.906 -304.835)"/><path d="M333.176,481.791c2.316,10.375,2.131,21.4,1.76,31.96a239.68,239.68,0,0,1-3.428,30.478h2.779a198.286,198.286,0,0,0,3.428-32.238c.371-11.765.463-24.456-3.335-35.665C328.729,459.558,314.278,454,298.9,454v2.131a45.083,45.083,0,0,1,14.451,2.038C324.375,461.967,330.767,470.675,333.176,481.791Z" transform="translate(-52.208 -299.482)"/><path d="M320.924,487.092a82.842,82.842,0,0,1,2.594,21.306,135.09,135.09,0,0,1-2.409,24.456c-.741,3.983-1.853,8.059-2.779,12.228h3.335c1.112-5,1.76-10.283,2.5-15.1a129.2,129.2,0,0,0,1.76-23.9c-.463-13.154-3.428-29.181-12.784-39.093a.428.428,0,0,0-.648.556C315.736,473.937,319.071,480.051,320.924,487.092Z" transform="translate(-53.203 -300.428)"/><path d="M289.748,537.575c-4.076-2.779-7.967-4.724-10.839-9.078a22.729,22.729,0,0,1-2.779-6.855A5.845,5.845,0,0,1,274,520.9c1.019,8.337,7.133,16.767,15.378,17.786A.6.6,0,0,0,289.748,537.575Z" transform="translate(-50.374 -304.408)"/><path d="M250.9,520.2c.371,1.945.834,3.891,1.112,5.836.556,3.891.463,7.689.648,11.487a4.512,4.512,0,0,1,1.112-.093h.834a53.3,53.3,0,0,0-1.3-16.582A7.148,7.148,0,0,1,250.9,520.2Z" transform="translate(-48.674 -304.356)"/><path d="M251.395,537.538a3.924,3.924,0,0,1,1.3-.556c-2.594-2.038-4.91-3.705-6.114-7.318a26.3,26.3,0,0,1-1.019-8.893,3.151,3.151,0,0,1-.926-.093,4.509,4.509,0,0,1-.648-.278,21.857,21.857,0,0,0,1.3,11.209c1.019,2.409,2.964,5.28,5.466,6.577A2.164,2.164,0,0,1,251.395,537.538Z" transform="translate(-48.149 -304.371)"/><path d="M249.924,517.254c-.093,0-.093.093-.185.185-.185.093-.371.093-.556.278-.185.093-.278.185-.463.278a.091.091,0,0,0-.093.093c-.093.093-.463.463-.556.463-.185.093-.371.278-.556.37-.093,0-.093,0-.185.093.185-.093-.463,0-.648,0h0a.7.7,0,0,1,.093-.371c.093-.371.093-.648.185-1.019h0a14.342,14.342,0,0,0,.093-2.038v-.371h0a5.423,5.423,0,0,0-.185-1.2c0-.185-.093-.371-.093-.556a13.182,13.182,0,0,0-6.3-7.781,15.7,15.7,0,0,0-12.877-1.2,13.74,13.74,0,0,0-3.428,1.853h0a1.279,1.279,0,0,1-.371.278,3.269,3.269,0,0,1,.278-1.3c0-.093.093-.185.093-.278.278-.556.648-1.112.926-1.667a15.349,15.349,0,0,1,3.428-1.3h0a18.311,18.311,0,0,1,14.637,2.872,17.511,17.511,0,0,1,6.3,9.634A6.575,6.575,0,0,1,249.924,517.254Z" transform="translate(-46.678 -302.985)"/><path d="M231.994,516.7c-.093,0-.093.093,0,0C232.087,516.793,232.087,516.7,231.994,516.7Z" transform="translate(-47.276 -304.098)"/><path d="M248.511,519.241a4.03,4.03,0,0,0,.556-.648.63.63,0,0,0-.278-1.019.7.7,0,0,1-.371-.093v-.834a.693.693,0,0,0-.834-.648,23.419,23.419,0,0,0-4.817,2.409c-.185.093-.185.278-.278.371h-.278a3.469,3.469,0,0,1-1.112,1.2,5.93,5.93,0,0,0,.648.185,18.034,18.034,0,0,0,5,.556,19.558,19.558,0,0,0,2.409-.185c.463-.093.926-.093,1.482-.185.556-.648,1.019-1.3,1.575-1.853A15.455,15.455,0,0,1,248.511,519.241Z" transform="translate(-47.952 -304.046)"/><path d="M294.765,494.1a4.391,4.391,0,0,1-.926.926,8.3,8.3,0,0,1-1.39,1.76,65.15,65.15,0,0,1,2.594,9.727,77.964,77.964,0,0,1,.741,20.751c-7.689-6.485-17.879-7.967-27.7-9.078-6.021-.648-12.6-1.482-18.991-1.112a3.283,3.283,0,0,1-.278,1.019l-6.392-.834L239,520.131s-.278.185.834.926a54.528,54.528,0,0,1,7.6-.926h0c.556-.093,1.2-.093,1.76-.185.463,0,.926-.093,1.2-.093a84.859,84.859,0,0,1,15.192.648c10.839,1.3,22.511,2.409,30.385,10.839.926,1.019,2.316.093,2.5-1.019C299.953,518.741,299.026,505.587,294.765,494.1Z" transform="translate(-47.795 -302.434)"/><g transform="translate(167.027 199.447)"><path d="M240.99,525.143a3.727,3.727,0,0,0-2.964-2.409,4.37,4.37,0,0,0-3.983,1.853.816.816,0,0,0,.185,1.112.915.915,0,0,0,1.3-.185,2.147,2.147,0,0,1,2.038-1.112,2.255,2.255,0,0,1,1.76,1.39,2.365,2.365,0,0,1-.556,2.5,8.226,8.226,0,0,1-2.038,1.482c-1.2.648-3.52,1.667-5.373,1.019a4.129,4.129,0,0,1-2.223-2.131c-1.76-3.8.463-8.059,2.223-11.487a10.1,10.1,0,0,1,.556-1.019.407.407,0,0,0-.093-.463.413.413,0,0,0-.463,0,13.957,13.957,0,0,0-4.169,12.043,5.718,5.718,0,0,0,5.743,4.91,7.715,7.715,0,0,0,2.038-.278c2.131-.648,5-2.131,5.929-4.169A3.541,3.541,0,0,0,240.99,525.143Z" transform="translate(-213.942 -503.466)"/><path d="M237,523.678a3.4,3.4,0,0,1,1.667-.093,22.305,22.305,0,0,1,10.653-7.411,8.987,8.987,0,0,1,.093-1.575A19.935,19.935,0,0,0,237,523.678Z" transform="translate(-214.677 -503.391)"/><path d="M230.781,531.491a2.543,2.543,0,0,1-1.667-.926l-.093-.093h-.093a5.477,5.477,0,0,1-3.428.185,6.925,6.925,0,0,1-4.632-5.373,10.255,10.255,0,0,1,1.667-7.5,12.719,12.719,0,0,1,3.15-3.15c.556-.463,1.112-.926,1.667-1.482a.407.407,0,0,0,.093-.463.37.37,0,0,0-.371-.185,12.376,12.376,0,0,0-6.855,6.67,10.314,10.314,0,0,0-.185,8.43,8.982,8.982,0,0,0,5.558,4.632,7.051,7.051,0,0,0,1.945.278,6.138,6.138,0,0,0,3.335-1.019l.278-.185Z" transform="translate(-213.368 -503.236)"/><path d="M222.609,531.185l-.185-.185v.463a2.565,2.565,0,0,1-.093.834c-.185,1.482-.648,5.929-2.131,7.5h2.038a26.956,26.956,0,0,0,1.945-7.689v-.093h-.093A3.864,3.864,0,0,1,222.609,531.185Z" transform="translate(-213.44 -504.598)"/><path d="M227.815,503.519l-1.112,1.019-.093.093a106.921,106.921,0,0,0-8.523,8.615c-1.575,1.853-3.242,4.169-3.242,6.855a8.108,8.108,0,0,0,.185,1.482c.093.463.278.926.371,1.39l.556,1.667a.091.091,0,0,0,.093.093l.278.834c.093.185.093.371.185.556a11.364,11.364,0,0,1,.834,5.1,8.01,8.01,0,0,1-.556,2.131v.093l-.278.834c0,.093-.093.185-.093.278a11.112,11.112,0,0,0-.278,1.853v1.2H214.2a5.281,5.281,0,0,1-.093-1.2,16.02,16.02,0,0,1,.648-2.872l.278-1.112c.648-2.594-.093-4.724-.926-6.948a21.247,21.247,0,0,1-.834-2.594,9.51,9.51,0,0,1,.741-7.133c.463-.741.926-1.575,1.39-2.316a28.26,28.26,0,0,1,2.686-3.335c1.112-1.2,2.316-2.409,3.52-3.52l1.39-1.112a45.542,45.542,0,0,1,3.8-2.872,1.007,1.007,0,0,1,.463-.093c.093,0,.278.093.278.185C228.093,502.871,228.093,503.241,227.815,503.519Z" transform="translate(-212.903 -502.5)"/></g><path d="M225.646,414.3c-6.021,4.354-14.544,4.817-20.658.278a13.636,13.636,0,0,1-4.539-5.929,15.964,15.964,0,0,1-.648-1.945,9.02,9.02,0,0,0,2.223-.185,16.7,16.7,0,0,0,.741,1.945h0a11.841,11.841,0,0,0,4.447,4.91,15.515,15.515,0,0,0,16.119-.278c7.967-5,9.912-17.323,4.447-23.067a16.105,16.105,0,0,0-1.39-1.2c.371-.741.648-1.482,1.019-2.223a12.458,12.458,0,0,1,1.3,1.019,13.8,13.8,0,0,1,4.354,7.318A18.828,18.828,0,0,1,225.646,414.3Z" transform="translate(-44.911 -294.519)"/><path d="M231.019,421.954c-14.544,11.024-37.24,1.853-39.834-15.192a13.818,13.818,0,0,1-.185-1.945c.741.185,1.575.371,2.223.463h.093a13.149,13.149,0,0,0,.463,2.038,26.526,26.526,0,0,0,1.39,3.8h0c.185.463.463.926.648,1.39a21.035,21.035,0,0,0,5,6.485,5.947,5.947,0,0,0,1.2.926c.648.463,1.3.926,2.038,1.39a23.736,23.736,0,0,0,5.929,2.5,9.693,9.693,0,0,0,1.575.371,22.629,22.629,0,0,0,11.116-.648c.556-.185,1.112-.371,1.575-.556a33.275,33.275,0,0,0,3.15-1.575,20.788,20.788,0,0,0,5.651-4.91c.371-.463.741-1.019,1.112-1.482a22.521,22.521,0,0,0,3.613-9.727c.093-.556.093-1.2.185-1.76a29.25,29.25,0,0,0-.278-5.651c-.093-.648-.278-1.3-.371-1.853a6.457,6.457,0,0,0-.556-1.76,31.106,31.106,0,0,0-3.983-8.059,6.994,6.994,0,0,0-1.019-1.3,23.825,23.825,0,0,0-2.594-2.686c-.371-.278-.648-.556-1.019-.834a1.862,1.862,0,0,0-.371-.741c.093-.648.185-1.39.278-2.038a14.133,14.133,0,0,1,1.482,1.019,20.241,20.241,0,0,1,4.447,4.447,26.093,26.093,0,0,1,2.223,3.335,35.269,35.269,0,0,1,3.057,6.948C242.321,404.353,239.449,415.562,231.019,421.954Z" transform="translate(-44.263 -293.93)"/><path d="M230.7,389.154a16.194,16.194,0,0,1,2.686-1.667,12.57,12.57,0,0,1,3.891-1.2,11.06,11.06,0,0,1-.741-1.482,19.266,19.266,0,0,0-7.133,3.613A5.906,5.906,0,0,1,230.7,389.154Z" transform="translate(-47.091 -294.386)"/><path d="M241.218,395.839a17.5,17.5,0,0,0-7.318-.648,3.969,3.969,0,0,1,.463,1.482,13.017,13.017,0,0,1,2.686,0,12.2,12.2,0,0,1,4.632,1.2C241.5,397.136,241.4,396.487,241.218,395.839Z" transform="translate(-47.422 -295.142)"/><path d="M238.78,404.075a17.548,17.548,0,0,0-5-1.575c-.093.556-.185,1.019-.278,1.575a17.888,17.888,0,0,1,4.817,1.39,16.835,16.835,0,0,1,3.8,2.5c.093-.648.093-1.3.185-1.945A22.2,22.2,0,0,0,238.78,404.075Z" transform="translate(-47.392 -295.69)"/><path d="M231.041,410.2a9.256,9.256,0,0,1-.741,1.3,23.158,23.158,0,0,1,4.261,4.724,28.231,28.231,0,0,1,1.945,3.705c.463-.463.834-.926,1.3-1.39A22.244,22.244,0,0,0,231.041,410.2Z" transform="translate(-47.157 -296.257)"/><path d="M223.6,417.7c-.093,0-.093.093-.185.093a5.665,5.665,0,0,1-1.112.463,28.855,28.855,0,0,1,1.945,4.632,28.106,28.106,0,0,1,.926,5.466,14.987,14.987,0,0,1,1.667-.926,25.383,25.383,0,0,0-1.2-4.91A22.134,22.134,0,0,0,223.6,417.7Z" transform="translate(-46.568 -296.809)"/><path d="M213.066,428.512c0-.741-.093-1.575-.093-2.316a63.429,63.429,0,0,1,.648-7.226,6.825,6.825,0,0,1-1.3-.371,40.683,40.683,0,0,0-.926,9.542A4.425,4.425,0,0,1,213.066,428.512Z" transform="translate(-45.764 -296.875)"/><path d="M202.49,424.483a18.725,18.725,0,0,1,.556-3.15,28.824,28.824,0,0,1,2.5-6.3c-.093-.093-.185-.093-.278-.185-.278-.185-.556-.463-.834-.648a24.252,24.252,0,0,0-2.779,6.855q-.278,1.112-.556,2.5A5.193,5.193,0,0,1,202.49,424.483Z" transform="translate(-45.007 -296.551)"/><path d="M199.488,408.3a24.938,24.938,0,0,0-5.188,6.948,1.976,1.976,0,0,1,.278,1.112,4.651,4.651,0,0,0,.185,1.112,18.044,18.044,0,0,1,2.223-4.169,19.538,19.538,0,0,1,3.891-4.354,1.175,1.175,0,0,1-.093-.556A5.7,5.7,0,0,0,199.488,408.3Z" transform="translate(-44.506 -296.117)"/><path d="M226.8,376.2a24.975,24.975,0,0,1-.371,2.594,37.517,37.517,0,0,1-1.112,4.632v.093c-.185.556-.371,1.019-.556,1.575a3.872,3.872,0,0,1-.371.926A28.257,28.257,0,0,1,213,400.188a28.8,28.8,0,0,1-13.618,4.354h0a20.152,20.152,0,0,1-2.409.093h-.556a11.213,11.213,0,0,1-1.76-.093,23.793,23.793,0,0,1-3.705-.556,21.223,21.223,0,0,1-2.594-.648,31.977,31.977,0,0,1-8.523-3.8c-.371-.185-.648-.463-1.019-.648-.463-.371-1.019-.741-1.482-1.112-9.356-7.133-14.637-18.342-18.249-29.366a109.889,109.889,0,0,1-5.188-29.366c0-1.112-.093-2.223-.093-3.428.741-1.2,1.39-2.316,2.223-3.52,0,1.019,0,2.038.093,3.057a113.99,113.99,0,0,0,7.133,37.24c5.558,14.637,16.119,29.088,33.257,29.459a26.946,26.946,0,0,0,21.307-9.542c5.651-6.762,6.948-15.934,6.485-24.456l-.278-3.613c-.093-.834-.185-1.76-.278-2.594a10.732,10.732,0,0,0,2.409-2.131c.093,1.112.278,2.223.371,3.335.185,1.76.278,3.428.371,5.1A40.8,40.8,0,0,1,226.8,376.2Z" transform="translate(-41.524 -290.506)"/><path d="M238.174,345.188c-3.983-10.283-15.656,2.316-17.879,7.6-.371.926,1.112,1.482,1.575.648a38.067,38.067,0,0,1,5.836-6.948c1.853-1.482,5.558-4.447,7.781-1.2.834,1.2.741,3.335.648,4.724-.648,7.04-5.373,10.19-10.375,14.081a.857.857,0,0,0,.648,1.575C234.469,364.642,241.046,352.692,238.174,345.188Z" transform="translate(-46.416 -291.181)"/><path d="M230.882,350.6c-3.057-.093-7.226,3.891-7.781,6.762,0,.185.185.463.371.278,1.667-1.76,2.779-3.52,4.91-4.724a4.409,4.409,0,0,1,1.667-.741c1.853,0,1.3,1.2,1.019,2.131a15.147,15.147,0,0,1-2.223,3.705c-.556.741.556,1.39,1.2.926C231.623,357.455,235.235,350.785,230.882,350.6Z" transform="translate(-46.627 -291.868)"/><path d="M232.16,352.9a1.95,1.95,0,0,0-2.5-1.112h-.093a1.247,1.247,0,0,0-1.112.463,2.328,2.328,0,0,0-.556,1.3,2.051,2.051,0,0,0,1.2,2.131A2.267,2.267,0,0,0,232.16,352.9Z" transform="translate(-46.979 -291.949)"/><path d="M207.2,335.7c-2.872.834-5.1,3.057-8.059,3.983-3.242,1.019-6.485,1.019-9.82,1.112a1,1,0,0,0-.278,1.945c5.373,1.76,16.4-.185,19.083-5.929C208.5,336.346,207.942,335.513,207.2,335.7Z" transform="translate(-44.067 -290.769)"/><path d="M178.705,339.608c-2.409-.278-4.354,0-6.577-1.2-1.667-.926-3.057-2.223-4.817-2.964-2.5-1.019-5.1-1.2-7.226.556a.67.67,0,0,0,.648,1.112c5.188-1.575,7.874,3.057,12.228,4.632,2.223.834,5.1,1.2,6.392-1.112A.76.76,0,0,0,178.705,339.608Z" transform="translate(-41.973 -290.695)"/><path d="M189.1,350.628c-.463-2.131-1.575-3.983-2.038-6.114a44.949,44.949,0,0,1-.463-7.04.332.332,0,0,0-.648-.093c-1.3,3.8-.556,10.746,2.409,13.71A.463.463,0,0,0,189.1,350.628Z" transform="translate(-43.846 -290.878)"/><path d="M209.808,352.986c-1.945,2.964-4.724,5.188-8.43,5.373-2.594.185-5.373-1.2-7.689.371-.278.185-.093.741.278.648,2.223-.648,4.261.185,6.485.278a10.707,10.707,0,0,0,4.447-.741,10.142,10.142,0,0,0,5.836-5.558C210.827,352.894,210.086,352.616,209.808,352.986Z" transform="translate(-44.451 -292.031)"/><path d="M171.58,365.788c-1.2-.648-2.686-.556-3.891-1.2a14.2,14.2,0,0,1-3.52-2.686c-.185-.093-.463,0-.371.185a7.242,7.242,0,0,0,3.428,3.428c1.3.648,3.057,1.39,4.447.741A.323.323,0,0,0,171.58,365.788Z" transform="translate(-42.259 -292.697)"/><path d="M184.107,362c-1.112.185-2.038,1.39-3.15,1.945-1.39.741-2.779.834-4.169,1.39a.193.193,0,0,0,0,.371,7.12,7.12,0,0,0,4.354-.648c1.112-.463,3.15-1.482,3.242-2.779A.246.246,0,0,0,184.107,362Z" transform="translate(-43.206 -292.708)"/><g transform="translate(122.152 63.448)"><path d="M184.138,355.9c-3.242,2.131-5.558,4.632-9.634,5.188-3.891.556-7.04-1.019-9.542-3.983a.281.281,0,0,0-.463.278c3.335,8.337,16.211,5.1,20.1-.834C184.879,356.175,184.416,355.711,184.138,355.9Z" transform="translate(-164.462 -355.703)"/><path d="M172.649,362.462a5.281,5.281,0,0,1-1.2-.093,7.9,7.9,0,0,1-6.948-5,.338.338,0,0,1,.185-.463c.185-.093.371-.093.463.093a10.018,10.018,0,0,0,9.449,3.983c3.057-.371,5.1-1.945,7.226-3.52.741-.556,1.482-1.112,2.316-1.667a.447.447,0,0,1,.648.093.571.571,0,0,1,.093.648C182.469,359.961,177.188,362.462,172.649,362.462Zm-7.874-5.373h-.093a.323.323,0,0,0-.093.185,7.921,7.921,0,0,0,6.762,4.91c4.817.463,10.653-2.131,13.154-5.743.093-.093,0-.278-.093-.371s-.185-.093-.371-.093h0c-.834.556-1.575,1.112-2.316,1.667-2.223,1.575-4.261,3.15-7.318,3.52-3.613.556-6.855-.834-9.634-4.076C164.868,357.182,164.868,357.089,164.775,357.089Z" transform="translate(-164.461 -355.691)"/></g><g transform="translate(123.391 58.298)"><path d="M173.589,350.295c-3.891.463-7.781,4.261-7.689,8.245l.093.093.834.834.278.278a8.9,8.9,0,0,1,1.019-4.817,7.144,7.144,0,0,1,5.651-3.428c4.632-.463,7.318,2.594,8.523,6.485.093-.093.093-.185.185-.185.278-.278.648-.463.926-.741A9.186,9.186,0,0,0,173.589,350.295Z" transform="translate(-165.806 -350.139)"/><path d="M167.189,360.014l-.278-.278-.185-.185-.093-.093a5.591,5.591,0,0,1-.741-.741l-.093-.185h0c-.093-4.169,4.076-7.874,7.781-8.337a9.4,9.4,0,0,1,10,6.855v.093h-.093a5.624,5.624,0,0,0-.926.648c-.093,0-.093.093-.185.185l-.185.185-.093-.185c-.834-2.594-2.964-6.948-8.43-6.392a7.472,7.472,0,0,0-5.558,3.428,7.747,7.747,0,0,0-1.019,4.817Zm-1.2-1.575h0a3.537,3.537,0,0,0,.834.834l.093.093.093.093a7.965,7.965,0,0,1,1.112-4.632,7.758,7.758,0,0,1,5.743-3.52c3.983-.371,7.133,1.945,8.523,6.392l.093-.093a3.328,3.328,0,0,1,.926-.648,9.286,9.286,0,0,0-9.727-6.577v0C169.969,350.843,165.893,354.456,165.985,358.44Z" transform="translate(-165.798 -350.131)"/></g><g transform="translate(147.324 55.304)"><path d="M210.972,347.272c-5.558-.648-12.6,3.057-16.4,7.874a10.27,10.27,0,0,1-.834-1.76,23.761,23.761,0,0,1-1.2-6.207.293.293,0,0,0-.556-.093,12.861,12.861,0,0,0,1.76,9.078c.185.371.463.648.648,1.019.278-.371.556-.648.834-1.019a20.246,20.246,0,0,1,5.28-4.817c3.335-2.131,6.67-2.594,10.468-3.428C211.528,347.92,211.343,347.272,210.972,347.272Z" transform="translate(-191.643 -346.901)"/><path d="M194.474,357.461l-.093-.093c-.278-.371-.463-.648-.741-1.019a12.717,12.717,0,0,1-1.76-9.171c0-.185.185-.278.371-.278a.4.4,0,0,1,.371.371l.093.556a19.734,19.734,0,0,0,1.112,5.651,12.06,12.06,0,0,0,.741,1.575c3.983-5,11.116-8.43,16.4-7.781a.519.519,0,0,1,.463.556c0,.278-.093.463-.371.463-.556.093-1.112.278-1.667.371-3.057.648-5.929,1.2-8.708,2.964a20.741,20.741,0,0,0-5.28,4.817l-.093.093a8.1,8.1,0,0,0-.741.926Zm-2.223-10.375c-.093,0-.093,0-.093.093a12.708,12.708,0,0,0,1.76,8.986l.556.834c.185-.278.463-.556.648-.834l.093-.093a19.785,19.785,0,0,1,5.373-4.817,26.245,26.245,0,0,1,8.8-3.057c.556-.093,1.112-.278,1.667-.371.185,0,.185-.185.185-.278a.246.246,0,0,0-.278-.278h0c-5.188-.648-12.321,2.779-16.3,7.874l-.093.093-.093-.185a6.145,6.145,0,0,1-.834-1.76,19.734,19.734,0,0,1-1.112-5.651l-.093-.556c0,.093-.093,0-.185,0Z" transform="translate(-191.634 -346.9)"/></g><g transform="translate(148.034 52.431)"><path d="M207.87,348.076l1.112-.278a6.311,6.311,0,0,0-2.5-2.872,8.446,8.446,0,0,0-7.318-.185A13.366,13.366,0,0,0,192.4,351.5a2.573,2.573,0,0,1,.371,2.038v.093c0,.093,0,.093.093.185,1.019-3.057,2.038-5.651,5.188-7.411a8.661,8.661,0,0,1,6.392-1.2A4.94,4.94,0,0,1,207.87,348.076Z" transform="translate(-192.4 -343.813)"/><path d="M192.863,354.175l-.093-.463v-.185h0a2.493,2.493,0,0,0-.371-1.945V351.4a13.2,13.2,0,0,1,6.762-6.855,8.591,8.591,0,0,1,7.411.185,5.771,5.771,0,0,1,2.594,2.964v.093h-.093l-1.112.278h-.093v-.093a4.784,4.784,0,0,0-3.335-2.872,8.314,8.314,0,0,0-6.3,1.2c-3.057,1.853-4.076,4.354-5.1,7.411Zm-.278-2.686a2.858,2.858,0,0,1,.463,1.667c1.019-2.872,2.131-5.188,5-6.948a8.766,8.766,0,0,1,6.485-1.2,4.94,4.94,0,0,1,3.428,2.872c.278-.093.648-.185.926-.278a5.569,5.569,0,0,0-2.409-2.686,8.488,8.488,0,0,0-7.226-.185A13.181,13.181,0,0,0,192.585,351.489Z" transform="translate(-192.4 -343.798)"/></g><g transform="translate(156.057 49.52)"><path d="M210,343.476c-.463-1.39-2.409-2.223-3.8-2.594a6.912,6.912,0,0,0-4.91.556c-.278.185-.093.648.185.556a9.789,9.789,0,0,1,4.632,0c1.3.371,2.223,1.39,3.428,1.853C209.9,344.032,210.09,343.754,210,343.476Z" transform="translate(-201.067 -340.656)"/><path d="M209.712,344.035h-.093a5.9,5.9,0,0,1-1.667-.926,6.407,6.407,0,0,0-1.76-.926,7.893,7.893,0,0,0-4.632,0,.324.324,0,0,1-.463-.278.338.338,0,0,1,.185-.463,7.912,7.912,0,0,1,5-.556c.741.185,3.335.926,3.891,2.594h0c.093.185,0,.278-.093.463A.7.7,0,0,1,209.712,344.035Zm-5.929-2.409a6.908,6.908,0,0,1,2.409.371,5.966,5.966,0,0,1,1.853,1.019,6.485,6.485,0,0,0,1.575.834c.093,0,.093,0,.185-.093a.323.323,0,0,0,.093-.185h0c-.556-1.575-2.964-2.316-3.705-2.5a7.075,7.075,0,0,0-4.91.556.287.287,0,0,0-.093.185c0,.093.093.185.185.093A11.315,11.315,0,0,1,203.784,341.626Z" transform="translate(-201.061 -340.659)"/></g><g transform="translate(127.468 53.72)"><path d="M182.246,349.848c-2.223-3.428-8.059-5.651-11.858-3.705-.278.093-.093.556.093.463a17.021,17.021,0,0,1,5.743.278,12.348,12.348,0,0,1,5.188,3.52C181.876,350.867,182.617,350.311,182.246,349.848Z" transform="translate(-170.203 -345.207)"/><path d="M181.78,350.665a.481.481,0,0,1-.371-.185,13.047,13.047,0,0,0-5.1-3.428,12.748,12.748,0,0,0-4.539-.371h-1.2c-.185,0-.371-.093-.371-.278s0-.371.185-.463c3.983-2.038,9.82.371,12.043,3.706h0a.561.561,0,0,1-.093.741A.555.555,0,0,1,181.78,350.665Zm-8.523-4.169a9.956,9.956,0,0,1,8.245,3.891c.185.185.371.093.556,0a.407.407,0,0,0,.093-.463h0c-2.131-3.242-7.874-5.651-11.765-3.613-.093,0-.093.093-.093.185s.093.093.185.093h1.2A9.525,9.525,0,0,1,173.257,346.5Z" transform="translate(-170.2 -345.19)"/></g><path d="M217.821,350.781c-1.482-.741-3.8.371-4.724,1.667-.185.278.185.741.556.556a8.5,8.5,0,0,1,1.945-1.2c.741-.185,1.39-.093,2.131-.278A.436.436,0,0,0,217.821,350.781Z" transform="translate(-45.886 -291.864)"/><g transform="translate(139.048 70.682)"><path d="M195.5,363.7a.415.415,0,0,0-.463.648c.741,1.112,1.482,2.316.834,3.613s-2.223,1.945-3.613,2.316a25,25,0,0,1-3.8.556,8.94,8.94,0,0,1-1.575,0,3.151,3.151,0,0,1-.926-.093q-1.945,0-1.667-2.779c.278-.278-.093-.741-.371-.556a2.209,2.209,0,0,0-.093,3.613c1.853,1.76,5.466,1.112,7.781.741s4.817-1.39,5.743-3.705C197.817,366.478,197.354,364.162,195.5,363.7Z" transform="translate(-182.717 -363.514)"/><path d="M187.517,372.393a5.6,5.6,0,0,1-3.891-1.2,2.627,2.627,0,0,1-.926-2.038,2.1,2.1,0,0,1,1.019-1.76.436.436,0,0,1,.556.093c.093.185.185.371,0,.556a2.711,2.711,0,0,0,.463,2.131,1.534,1.534,0,0,0,1.112.463,3.151,3.151,0,0,0,.926.093h1.575a21.96,21.96,0,0,0,3.8-.556c1.2-.278,2.872-.926,3.52-2.316.648-1.3-.093-2.5-.741-3.52a.591.591,0,0,1,0-.556.841.841,0,0,1,.648-.278h0a2.619,2.619,0,0,1,1.667,1.3,3.95,3.95,0,0,1,.093,3.242c-.741,1.945-2.686,3.242-5.836,3.8A17.22,17.22,0,0,1,187.517,372.393Zm-3.52-4.91H183.9a2.045,2.045,0,0,0-.926,1.575,2.621,2.621,0,0,0,.834,1.853c1.853,1.667,5.466,1.019,7.6.648,2.964-.556,4.91-1.76,5.651-3.613a3.868,3.868,0,0,0-.093-3.057,2.161,2.161,0,0,0-1.482-1.2h0a.481.481,0,0,0-.371.185c0,.093-.093.185,0,.278.741,1.112,1.482,2.316.834,3.706a5.367,5.367,0,0,1-3.705,2.409,21.96,21.96,0,0,1-3.8.556,8.926,8.926,0,0,1-1.575,0,3.151,3.151,0,0,1-.926-.093,1.682,1.682,0,0,1-1.3-.556,3.053,3.053,0,0,1-.463-2.409h0c.093-.093.093-.278,0-.278C184.09,367.576,184.09,367.483,184,367.483Z" transform="translate(-182.7 -363.5)"/></g><path d="M208.887,366.7c-2.223-.278-4.447.185-6.67.185A8.05,8.05,0,0,1,197.4,365.4c.093.278.093.463.185.741a2.258,2.258,0,0,1,0,1.112,10.128,10.128,0,0,0,3.8,1.019c4.354.278,10.468-1.76,12.228,3.8a.521.521,0,0,0,1.019-.093C214.63,368.735,211.573,366.975,208.887,366.7Z" transform="translate(-44.734 -292.958)"/><path d="M211.033,368.941a3.21,3.21,0,0,1-1.482-.741,17.9,17.9,0,0,1-2.316,6.3,29.293,29.293,0,0,1-7.967,7.874,28,28,0,0,1-22.511,3.983c-.463-.093-.741.556-.371.741,3.52,1.853,8.615,1.39,12.506.926a24.763,24.763,0,0,0,11.394-4.724,28.476,28.476,0,0,0,8.152-8.152,16.308,16.308,0,0,0,2.594-6.207Z" transform="translate(-43.174 -293.164)"/><path d="M208.03,382.989a16.094,16.094,0,0,0-2.223,3.335,18.864,18.864,0,0,1-3.983,4.169c-3.15,2.316-6.67,3.15-10.468,3.52a.556.556,0,1,0,0,1.112,17.127,17.127,0,0,0,11.487-3.52c2.316-1.76,5.836-5.1,5.836-8.337C208.586,382.9,208.216,382.711,208.03,382.989Z" transform="translate(-44.248 -294.243)"/><g transform="translate(82.98 38.997)"><path d="M147.579,365.1c-1.76.093-3.891,1.482-6.114,4.169-1.2,1.39-3.428,3.891-2.872,6.114a2.015,2.015,0,0,0,1.2,1.482,2.7,2.7,0,0,0,.834.185,4.24,4.24,0,0,0,2.223-.741,7.765,7.765,0,0,0,3.52-5.743c0-.185-.093-.371-.278-.371a.338.338,0,0,0-.463.185c-.185.278-.371.648-.556.926a16.522,16.522,0,0,1-2.131,3.057c-.741.741-1.76,1.39-2.316,1.112-.278-.093-.463-.556-.463-1.2a4.675,4.675,0,0,1,.926-1.945.7.7,0,0,0,.185-.371,15.77,15.77,0,0,1,3.057-3.52c.463-.371,1.019-.741,1.482-1.112a8.555,8.555,0,0,0,2.038-1.575.694.694,0,0,0,.093-.463A.7.7,0,0,0,147.579,365.1Z" transform="translate(-123.378 -331.932)"/><path d="M136.094,350.36c-2.686-1.112-6.3-.185-8.708,1.019-1.482.741-4.91,2.686-5.188,5.373a2.219,2.219,0,0,0,.648,2.038,3.3,3.3,0,0,0,2.131.741,2.565,2.565,0,0,0,.834-.093,8,8,0,0,0,5.836-5,.542.542,0,0,0-.278-.648.57.57,0,0,0-.648.093l-.278.371a12,12,0,0,1-3.15,2.964c-.926.463-2.409,1.019-2.872.556-.371-.278-.278-1.019.185-2.131.185-.556,1.2-1.2,1.76-1.575l.185-.093c2.686-1.945,5.373-2.223,8.43-2.5.371,0,.648-.093,1.019-.093a.438.438,0,0,0,.463-.463A.625.625,0,0,0,136.094,350.36Z" transform="translate(-122.175 -330.81)"/><path d="M257.167,354.383h0c-2.409-1.945-5.188-2.964-7.411-2.686a.534.534,0,0,0-.556.556.508.508,0,0,0,.371.556c3.428.926,6.392,1.853,8.523,4.91l.093.185a4.943,4.943,0,0,1,1.019,1.945,1.263,1.263,0,0,1-.463,1.112c-.834.556-2.5-.093-3.15-.463a7.881,7.881,0,0,1-3.15-3.983c-.093-.185-.185-.278-.371-.185a.4.4,0,0,0-.371.371,5.8,5.8,0,0,0,3.8,5.466,7.076,7.076,0,0,0,2.5.556,3.172,3.172,0,0,0,1.667-.371,2.32,2.32,0,0,0,1.2-1.575C261.243,358.644,259.112,355.958,257.167,354.383Z" transform="translate(-131.528 -330.942)"/><path d="M254.592,339.119c1.482-.185,2.223-1.2,2.131-2.872-.185-2.779-3.428-4.817-4.91-5.558a11.666,11.666,0,0,0-8.337-1.019c-.185.093-.371.278-.278.463a.4.4,0,0,0,.371.371h.185c2.872,0,6.485.371,9.356,2.872,1.2,1.019,1.853,1.945,1.853,2.409a1.908,1.908,0,0,1-.556,1.575c-.741.463-2.131-.093-2.779-.463a10.394,10.394,0,0,1-2.409-2.038,11.93,11.93,0,0,0-1.575-1.482.612.612,0,0,0-.556-.093.338.338,0,0,0-.185.463c.371,2.409,4.354,5.28,7.226,5.28A1.007,1.007,0,0,0,254.592,339.119Z" transform="translate(-131.085 -329.296)"/></g><path d="M198.55,352.323c0-.093.093-.093.093-.185a5.946,5.946,0,0,1,1.2-.926,5.718,5.718,0,0,0-1.667-1.667,5.186,5.186,0,0,0-3.335-.648,5.572,5.572,0,0,1-.834,1.2,5.423,5.423,0,0,1-.926,1.575,4.569,4.569,0,0,0,.093,2.964,1.269,1.269,0,0,0,2.223.185,8.406,8.406,0,0,1,3.15-2.5Z" transform="translate(-44.402 -291.739)"/><path d="M168.108,360.421c.741.463,1.667.834,2.409,1.2a1.317,1.317,0,0,0,.556.185,4.7,4.7,0,0,1,1.575-.278l1.019.185a2.7,2.7,0,0,0,.185-.834,4.439,4.439,0,0,0-1.3-4.076c-1.945-1.853-6.392-1.575-6.855,1.575a.389.389,0,0,0,.648.371l.371-.371A2.863,2.863,0,0,0,168.108,360.421Z" transform="translate(-42.399 -292.24)"/><path d="M227.854,314.065a20.138,20.138,0,0,0-8.152-10.1c.463-.093.926-.185,1.3-.278a1.059,1.059,0,0,0,.648-.741.838.838,0,0,0-.278-.926,23.3,23.3,0,0,0-19.639-3.8c1.39-1.667,2.686-3.335,4.076-5a1.124,1.124,0,0,0,.093-1.2.748.748,0,0,0-.834-.37,37.543,37.543,0,0,0-13.9,5.188v-.463a18.848,18.848,0,0,0-1.39-8.337c0-.093,0-.093-.093-.185a.965.965,0,0,0-.926-.648h-.185a1,1,0,0,0-.741.834v.185c.278,4.447-2.686,7.6-5.743,10.561a20.688,20.688,0,0,1-3.428-8.337c-.093-.278-.278-.556-.556-.556a.839.839,0,0,0-.926.278,19.932,19.932,0,0,0-4.817,9.82,21.834,21.834,0,0,0-16.767-.371,1.123,1.123,0,0,0-.648,1.112.731.731,0,0,0,.741.741,17.97,17.97,0,0,1,6.207,1.575,18.685,18.685,0,0,0-17.23,9.264.74.74,0,0,0,.185,1.019,1.052,1.052,0,0,0,.741.278c.185,0,.278-.093.463-.093a15.166,15.166,0,0,1,7.6-2.223l-.185.185-.278.185a32.788,32.788,0,0,0-4.632,5.373A33.448,33.448,0,0,0,143,330.091a.933.933,0,0,0,.556,1.019.995.995,0,0,0,1.112-.185,26.082,26.082,0,0,1,5.373-4.817,44.152,44.152,0,0,0-.741,14.266.985.985,0,0,0,.926.834h.185a.869.869,0,0,0,.741-.556,35.3,35.3,0,0,1,2.131-4.632,31.274,31.274,0,0,1,2.223-3.8,28.365,28.365,0,0,1,1.945-2.686,40.452,40.452,0,0,1,3.891-4.076,17.311,17.311,0,0,0,1.3,5.836c0,.093.093.185.093.278a.89.89,0,0,0,.834.556.973.973,0,0,0,.834-.463c0-.093.093-.093.093-.185a31.8,31.8,0,0,1,5.836-7.689,30.533,30.533,0,0,1,.834,10,.763.763,0,0,0,.463.741.613.613,0,0,0,.556.093c.185,0,.278-.093.463-.185a17.443,17.443,0,0,0,6.577-10,20.5,20.5,0,0,0,7.04,5.188.937.937,0,0,0,1.112-.278.727.727,0,0,0,0-1.019,9.519,9.519,0,0,1-1.39-10.283,19.02,19.02,0,0,1,7.04,11.672c.093.371.463.834.834.834h.278a.938.938,0,0,0,.648-.371,16.976,16.976,0,0,0,2.872-12.784c-.093-.278-.093-.556-.185-.834a15.254,15.254,0,0,1,3.057,2.131,21.236,21.236,0,0,1,5.466,7.5,1,1,0,0,0,1.019.648h0a1,1,0,0,0,.926-.741,29.83,29.83,0,0,0,1.667-9.727,30.711,30.711,0,0,1,3.891,12.135,1.087,1.087,0,0,0,.834.926h.278a.89.89,0,0,0,.834-.556c.278-.463.556-1.019.834-1.575a26.524,26.524,0,0,0,1.39-3.8,20.809,20.809,0,0,0,.556-5.836,22.861,22.861,0,0,0-.834-4.817,17.872,17.872,0,0,1,9.356,2.316,1.007,1.007,0,0,0,.463.093.66.66,0,0,0,.556-.278A.81.81,0,0,0,227.854,314.065Zm-3.057-1.853a18.029,18.029,0,0,0-2.038-.741,17.724,17.724,0,0,0-6.485-.741,7.4,7.4,0,0,0-2.409-3.057.7.7,0,0,0-.834,0,1.052,1.052,0,0,0-.278.741,11.369,11.369,0,0,0,1.112,2.409,14,14,0,0,1,.834,1.667,17.446,17.446,0,0,1,1.2,5.373,15.117,15.117,0,0,1-.278,4.076h0a13.52,13.52,0,0,1-.926,3.15c-.093-.556-.278-1.112-.371-1.667-1.482-6.207-4.632-11.487-8.8-14.822a.619.619,0,0,0-.926.093.6.6,0,0,0-.093.834,26.24,26.24,0,0,1,1.853,2.594,25.366,25.366,0,0,1,.648,4.632,31.508,31.508,0,0,1-.278,4.169,22.056,22.056,0,0,1-.463,2.409c-.093-.185-.278-.371-.371-.556a21.142,21.142,0,0,0-9.82-8.8,13.721,13.721,0,0,0-4.724-5.558.561.561,0,0,0-.741.093.7.7,0,0,0,0,.926c4.539,4.817,6.021,10.839,4.169,16.119a15.438,15.438,0,0,1-.741,1.853,3.319,3.319,0,0,0-.371-1.019,20.408,20.408,0,0,0-7.781-10.1.817.817,0,0,0-.741-.185c-.185.093-.463.185-.556.463a10.94,10.94,0,0,0-.741,10,24.531,24.531,0,0,1-4.539-4.169,13.236,13.236,0,0,0-1.945-8.43.7.7,0,0,0-.834-.278.7.7,0,0,0-.371.834c2.038,6.021,1.39,11.487-1.76,15.656a14.239,14.239,0,0,1-1.575,1.76v-1.2a34.864,34.864,0,0,0-1.39-8.708.835.835,0,0,0-.556-.556.94.94,0,0,0-.926.278,34.507,34.507,0,0,0-5.373,6.207c-.371.463-.648,1.019-1.019,1.575,0-.185-.093-.278-.093-.463a15.985,15.985,0,0,1-.371-5.188c.926-.926,1.945-1.76,2.872-2.779a.691.691,0,0,0,0-.834.5.5,0,0,0-.741-.185,19.4,19.4,0,0,0-5.188,3.613,51.2,51.2,0,0,0-4.261,4.817,36.352,36.352,0,0,0-3.891,5.929c-.371.741-.741,1.39-1.112,2.131,0-1.2,0-2.409.093-3.52.093-1.3.185-2.5.371-3.706A42.543,42.543,0,0,1,153.1,322.4c.371-1.019.648-2.038,1.019-3.15a.621.621,0,0,0-.278-.741.636.636,0,0,0-.834.278,21.726,21.726,0,0,0-2.131,4.447,30.447,30.447,0,0,0-5.188,3.983,30.337,30.337,0,0,1,4.261-8.893,29.99,29.99,0,0,1,4.169-4.91,19.545,19.545,0,0,1,2.131-1.76,18.542,18.542,0,0,0,2.872-2.5.571.571,0,0,0,.093-.648.721.721,0,0,0-.648-.278A8.251,8.251,0,0,0,155.5,309.9a15.775,15.775,0,0,0-7.133.834,16.869,16.869,0,0,1,16.3-4.91.988.988,0,0,0,1.019-1.482,10.708,10.708,0,0,0-5.558-3.52c4.354-.648,8.708.185,13.71,2.594a.957.957,0,0,0,1.019-1.575c-.278-.185-.463-.278-.741-.463a19.026,19.026,0,0,1,.648-3.15,16.325,16.325,0,0,1,2.038-4.261c.185-.278.371-.463.556-.741.093.463.278.834.371,1.3a21,21,0,0,0,3.52,6.67.8.8,0,0,0,.648.371,1.494,1.494,0,0,0,.834-.278c2.5-2.223,5.188-4.91,6.392-8.152a10.871,10.871,0,0,1,.185,2.964,12.453,12.453,0,0,1-.648,3.706c0,.093-.093.185-.093.278-.093.278-.093.556-.185.741a2.677,2.677,0,0,1,1.3-.371,1.833,1.833,0,0,1,1.019.185c.093-.278.093-.463.185-.741v-.278a44.8,44.8,0,0,1,8.523-4.169c1.112-.371,2.131-.741,3.242-1.019-.093.185-.278.278-.371.463h0c-1.39,1.667-2.686,3.242-4.076,4.91a.972.972,0,0,0,0,1.2.768.768,0,0,0,1.019.278,21.829,21.829,0,0,1,19.176,1.2l-1.39.278a12.66,12.66,0,0,0-5.28-.834h-.371a.6.6,0,0,0-.556.556.7.7,0,0,0,.463.648l.648.185c3.057.834,5.929,1.575,8.43,3.52a16.906,16.906,0,0,1,4.354,5.188c.093-.093.093,0,.093.185h0Z" transform="translate(-40.727 -287.2)"/><g transform="translate(121.372 12.135)"><path d="M178.794,310.81c-1.112.463-2.223.926-3.335,1.3a35.519,35.519,0,0,0-3.983,1.575,32.318,32.318,0,0,0-6.392,4.539.8.8,0,0,1-.556.278,1.317,1.317,0,0,1-.556-.185.842.842,0,0,1-.278-1.019c2.131-4.91,5.743-8.708,9.634-10.1.278-.093.463,0,.648.278a.605.605,0,0,1-.185.741,27.471,27.471,0,0,0-6.485,6.114c2.964-2.131,7.133-4.539,11.209-4.724a.729.729,0,0,1,.648.463A.616.616,0,0,1,178.794,310.81Z" transform="translate(-163.619 -300.805)"/><path d="M190.773,314.823a.92.92,0,0,1-.741.556h0a.508.508,0,0,1-.556-.371,12.994,12.994,0,0,0-2.779-3.8,11.5,11.5,0,0,0-2.131-1.575,14.133,14.133,0,0,1-1.482-1.019c-.185-.185-.278-.371-.093-.556a.413.413,0,0,1,.556-.278c2.964.648,5.1,3.335,6.114,4.817a5.729,5.729,0,0,0-.463-2.5,5.5,5.5,0,0,0-1.2-1.667,6.087,6.087,0,0,1-1.112-1.575c-.093-.093,0-.278.093-.371a.481.481,0,0,1,.371-.185c1.667,0,2.779,2.038,3.242,3.15A7.146,7.146,0,0,1,190.773,314.823Z" transform="translate(-165.038 -300.742)"/><path d="M202.232,307.063a.8.8,0,0,1-.556.278.557.557,0,0,1-.371-.093,25.05,25.05,0,0,0-10.561-1.575.534.534,0,0,1-.556-.556c0-.278.093-.556.371-.556a19.146,19.146,0,0,1,9.078.463,8.688,8.688,0,0,0-4.447-2.779,8.337,8.337,0,0,0-4.539.185,11.662,11.662,0,0,1-2.5.371h-.185a.481.481,0,0,1-.371-.185c-.093-.185-.093-.371.093-.463a5.922,5.922,0,0,1,4.354-1.853,17.847,17.847,0,0,1,2.223.093,9.841,9.841,0,0,1,1.76.371,11.176,11.176,0,0,1,6.485,5.373C202.51,306.507,202.51,306.877,202.232,307.063Z" transform="translate(-165.38 -300.3)"/></g><path d="M223.416,327.167h0l-.648-1.667-1.667,2.409.834,3.057c1.482,4.817,2.872,9.727,3.983,14.637.741-.648,1.482-1.2,2.223-1.76.093-.093.185-.093.185-.185A135.807,135.807,0,0,0,223.416,327.167Z" transform="translate(-46.479 -290.02)"/><path d="M260.975,508.453a15.839,15.839,0,0,0-2.131,1.2c-.278-.648-.463-1.3-.741-1.945a4.328,4.328,0,0,0-.463-.926,24.4,24.4,0,0,0-7.318-8.893,19.907,19.907,0,0,0-11.765-4.076h0c-1.019,0-2.038,0-3.057.093a9.249,9.249,0,0,0,3.057-2.409,18.463,18.463,0,0,1,3.15.463,25,25,0,0,1,7.967,3.057,28.929,28.929,0,0,1,10.468,11.58A16.313,16.313,0,0,1,260.975,508.453Z" transform="translate(-47.54 -302.243)"/><path d="M224.823,528.369c-.741-.185-1.575.093-2.316-.185a5.771,5.771,0,0,1-1.945-1.39.281.281,0,0,0-.463.278c.463,1.667,3.52,3.057,4.91,1.667A.251.251,0,0,0,224.823,528.369Z" transform="translate(-46.405 -304.836)"/><path d="M223.775,526.147a15.332,15.332,0,0,1-1.945-.556,6.906,6.906,0,0,1-1.575-1.3c-.185-.185-.648,0-.556.278.463,1.39,2.594,2.779,3.983,2.038C224.146,526.61,224.053,526.24,223.775,526.147Z" transform="translate(-46.375 -304.652)"/><path d="M231.693,529.847c-.834,0-1.482.278-2.223-.278-.648-.371-.648-1.112-1.112-1.575a.282.282,0,0,0-.371,0c-.556.834.463,2.038,1.112,2.409.834.556,2.316.741,2.872-.185C232.156,530.125,231.971,529.847,231.693,529.847Z" transform="translate(-46.975 -304.925)"/><path d="M231.205,528.09c-.371-.463-1.3-.371-1.76-.648a3.127,3.127,0,0,1-1.39-1.853c-.093-.278-.556-.093-.556.185a2.881,2.881,0,0,0,1.39,2.409c.556.371,1.945.926,2.409.185A.34.34,0,0,0,231.205,528.09Z" transform="translate(-46.951 -304.743)"/><path d="M217.834,526.551a5.246,5.246,0,0,1-1.667-.278,2.123,2.123,0,0,1-1.112-1.39c-.093-.371-.648-.185-.556.185a3.116,3.116,0,0,0,1.2,1.853,2.152,2.152,0,0,0,2.223.185C218.112,526.922,218.112,526.551,217.834,526.551Z" transform="translate(-45.993 -304.686)"/><path d="M217.446,524.349a9.648,9.648,0,0,1-1.482-.556,3.739,3.739,0,0,1-1.2-1.2c-.185-.278-.648-.093-.463.185.463,1.2,1.667,2.5,3.057,2.131A.293.293,0,0,0,217.446,524.349Z" transform="translate(-45.975 -304.522)"/><path d="M218.56,536.361a2.968,2.968,0,0,0-2.779-.278c-.371.093-.278.556.093.556a6.418,6.418,0,0,1,1.853.278,2.1,2.1,0,0,1,.926,1.39c0,.093.093.185.185.093C219.579,537.843,219.116,536.824,218.56,536.361Z" transform="translate(-46.07 -305.51)"/><path d="M240.067,522.4a3.934,3.934,0,0,0-1.575.926.694.694,0,0,0-.093.463.091.091,0,0,0,.093.093.407.407,0,0,0,.463.093,2.927,2.927,0,0,0,1.3-1.3C240.438,522.585,240.253,522.4,240.067,522.4Z" transform="translate(-47.753 -304.518)"/><path d="M222.028,344.7a.927.927,0,0,0,0,1.853A.927.927,0,0,0,222.028,344.7Z" transform="translate(-46.481 -291.434)"/><path d="M217.328,340.9a.927.927,0,0,0,0,1.853A.927.927,0,0,0,217.328,340.9Z" transform="translate(-46.135 -291.154)"/><path d="M220.928,337a.927.927,0,0,0,0,1.853A.927.927,0,0,0,220.928,337Z" transform="translate(-46.4 -290.867)"/><path d="M214.128,334.7a.927.927,0,0,0,0,1.853A.927.927,0,0,0,214.128,334.7Z" transform="translate(-45.9 -290.698)"/><path d="M216.628,329.1a.927.927,0,0,0,0,1.853A.927.927,0,0,0,216.628,329.1Z" transform="translate(-46.084 -290.285)"/><path d="M215.428,323.4a.927.927,0,0,0,0,1.853A.927.927,0,0,0,215.428,323.4Z" transform="translate(-45.995 -289.865)"/><path d="M257.968,542.6a4.006,4.006,0,0,0-3.891,2.223,2.155,2.155,0,0,0,1.39,3.242c.556.093.926-.648.371-.926-1.853-.926.556-3.242,1.945-2.964.648.093,1.39.648,1.3,1.39,0,.648-.741,1.019-1.112,1.482a.392.392,0,0,0,.093.648c1.3.648,2.5-.741,2.594-2.038A3.022,3.022,0,0,0,257.968,542.6Z" transform="translate(-48.887 -306.004)"/><path d="M208.082,539.849a10.3,10.3,0,0,1-1.482-.648c.093.926.093,1.853.185,2.779a17.7,17.7,0,0,0,.648,5.466c.185.463,1.019.648,1.112,0,.371-1.945-.093-3.983-.278-5.929A11.452,11.452,0,0,0,208.082,539.849Z" transform="translate(-45.412 -305.755)"/><path d="M212.59,540.3H211.2c0,.926.093,1.945.093,2.872.093,1.482-.093,2.964.556,4.354.185.371.648.185.741-.093.648-1.482.185-3.335.093-5A17.124,17.124,0,0,0,212.59,540.3Z" transform="translate(-45.75 -305.836)"/><path d="M217.1,540.1h-1.3c0,1.019.093,2.038.093,3.057.093,1.39-.185,3.057.648,4.261.093.185.463.278.556,0,.741-1.39.278-3.057.185-4.632C217.19,541.953,217.19,541.026,217.1,540.1Z" transform="translate(-46.089 -305.821)"/><path d="M221.69,540.393c-.463,0-.926-.093-1.39-.093,0,1.019.093,1.945.093,2.964.093,1.482-.093,2.964.556,4.354.185.371.648.185.741-.093.648-1.482.185-3.335.093-5A15.71,15.71,0,0,0,221.69,540.393Z" transform="translate(-46.42 -305.836)"/><path d="M226.19,540.6H224.8c0,.926.093,1.76.093,2.687.093,1.39-.185,3.057.648,4.261.093.185.463.278.556,0,.741-1.39.278-3.057.185-4.632A18.608,18.608,0,0,0,226.19,540.6Z" transform="translate(-46.752 -305.858)"/><path d="M255.08,505.554a1.7,1.7,0,0,0-1.575-.556,1,1,0,0,0-.834.741.613.613,0,0,0,.093.556.573.573,0,0,0,.648.185h0a.783.783,0,0,1,.648,0c.093.093.093.185.093.371a1.007,1.007,0,0,1-.648.926c-.741.278-1.2-.463-1.482-1.112l-.093-.093c-.093-.093-.185-.185-.278-.185h0a.481.481,0,0,0-.371.185,1.286,1.286,0,0,0-.185,1.019,1.791,1.791,0,0,0,1.019,1.3,2.467,2.467,0,0,0,1.112.278,2.531,2.531,0,0,0,1.76-.741A2.137,2.137,0,0,0,255.08,505.554Z" transform="translate(-48.685 -303.235)"/></g><g transform="translate(142.365 26.756)"><path d="M208.72,411.547c-7.04,1.76-12.969,3.983-20.38,2.038a28.731,28.731,0,0,1-11.765-6.485c-.556.463-1.019.926-1.575,1.39,8.8,8.523,24.734,12.413,34.461,4.261A.736.736,0,0,0,208.72,411.547Z" transform="translate(-155.25 -323.634)"/><path d="M231.371,394.7a13.954,13.954,0,0,1-1.575,4.539,22.921,22.921,0,0,1-8.986,8.337c-6.577,3.613-13.34,3.705-20.565,3.428-.834,0-.926,1.2-.185,1.482,8.059,2.779,17.786.371,24.641-4.354a26.927,26.927,0,0,0,7.133-7.318A33.988,33.988,0,0,0,231.371,394.7Z" transform="translate(-157.059 -322.721)"/><path d="M227.631,391.062a.091.091,0,0,1,.093-.093c.648-1.667-1.945-2.316-2.594-.741a26.5,26.5,0,0,1-16.86,15.378c-7.318,2.316-18.249,2.872-24.364-2.5a1.275,1.275,0,0,0-1.575-.185c-1.39.741-2.686,1.575-3.983,2.316a1.322,1.322,0,0,0-.278,2.038c.463.371,1.019.834,1.482,1.2a1.052,1.052,0,0,0,.741.278c1.482,2.131,4.632,2.964,7.318,3.705a34.674,34.674,0,0,0,16.3.371,1.222,1.222,0,0,0,.926-.834,34.18,34.18,0,0,0,18.342-6.762C226.8,402.271,233.56,394.953,227.631,391.062Z" transform="translate(-155.449 -322.326)"/><path d="M261.422,398.27c.278-.185.648-.371.926-.556a1.077,1.077,0,0,0,.185-.926,2.7,2.7,0,0,0,.834.185,1.561,1.561,0,0,0,1.853-1.853c-.093-.278-.093-.556-.185-.834a1.419,1.419,0,0,0-1.019-1.019c-1.39-.278-2.872-.648-4.261-.926a1.279,1.279,0,0,0-.371-.278c-3.15-1.482-6.207-3.057-9.449-4.261h0a1.472,1.472,0,0,0-1.3.371c-.185-.093-.371-.093-.556-.185a1.244,1.244,0,0,0-1.575.556c-1.112-.371-2.131-.741-3.242-1.112-.093,0-.093-.093-.185-.093l-3.057-1.112c-1.76-.648-2.409,1.945-.926,2.686a2.322,2.322,0,0,0-.648.371h-.371a21.672,21.672,0,0,0-4.261-7.318,1.359,1.359,0,0,0-2.316.648c-.371,1.482-.741,3.057-1.2,4.539a1.444,1.444,0,0,0,1.575,1.76l1.39,4.447a1.478,1.478,0,0,0,.648.834,10.112,10.112,0,0,0-1.575,1.2c-.926.741.278,1.945,1.2,1.482,5.929-2.5,11.487-3.15,17.694-1.112a50.409,50.409,0,0,1,8.43,4.076A7.158,7.158,0,0,1,261.422,398.27Z" transform="translate(-159.318 -321.752)"/><path d="M185.652,439.712v-.185a.949.949,0,0,0-.463-.556c.093-.278.093-.648.185-.926-.093-.278-.093-.463-.185-.741a.925.925,0,0,0-1.112-.371c.278-.556.463-1.2.741-1.853a14.454,14.454,0,0,1,0-5.28c-1.945,4.076-3.428,8.245-5.743,12.135a20.342,20.342,0,0,1-1.575,2.316,10.852,10.852,0,0,1,1.2,2.594c.093-.093.093-.185.185-.278,0,.185-.093.278-.093.463a20.884,20.884,0,0,1,.556,3.335,8.7,8.7,0,0,0,1.112,1.667c-.093.463-.278.926-.371,1.39a.865.865,0,0,0,1.667.463,13.545,13.545,0,0,0,.463-1.853,35.056,35.056,0,0,0,3.52-12.228C185.652,439.8,185.652,439.8,185.652,439.712Z" transform="translate(-155.435 -325.306)"/><path d="M162.592,327.467a5.41,5.41,0,0,1,.371-1.667,21.211,21.211,0,0,0-4.354,4.261c-2.131,2.5-4.354,5.558-4.91,8.893a1.007,1.007,0,0,0,1.853.741c1.853-2.594,3.15-5.558,5.28-7.967a21.259,21.259,0,0,1,2.5-2.5A2.531,2.531,0,0,1,162.592,327.467Z" transform="translate(-153.681 -317.648)"/><path d="M173.1,327.7a11.337,11.337,0,0,1-.278-1.575,2.741,2.741,0,0,1,.185-.926c-1.482.371-2.779,2.131-3.8,3.242a17.691,17.691,0,0,0-3.613,5.373c-.371,1.019,1.112,1.853,1.853,1.112,1.39-1.482,2.5-3.242,3.891-4.724.556-.556,1.3-1.2,2.038-1.853A1.231,1.231,0,0,1,173.1,327.7Z" transform="translate(-154.554 -317.604)"/><path d="M183.082,327.645a10.544,10.544,0,0,1-1.76-1.76c-.093-.093-.093-.093-.093-.185a12.408,12.408,0,0,1-1.3,4.354c-1.112,2.038-2.964,3.15-4.447,4.817a.777.777,0,0,0,.556,1.3c3.705-.185,6.762-4.169,7.689-8.152A1.177,1.177,0,0,1,183.082,327.645Z" transform="translate(-155.273 -317.641)"/><path d="M197.753,330.2h0a2.088,2.088,0,0,1-.741-1.482,1.843,1.843,0,0,1-1.2-.093.885.885,0,0,0-.185-.926,57.229,57.229,0,0,0-3.335-4.91c-.741-.926-1.575-2.686-2.964-2.686-1.3,0-1.575,1.3-1.76,2.316-.185,1.575-.463,3.705.371,5.1.093.093.093.185.185.185-.185.648-.463,1.112-1.019,1.2a2.619,2.619,0,0,1,1.3,1.667c.093,0,.185-.093.278-.093a2.948,2.948,0,0,0,1.2-1.39c.371-1.019,0-3.52,2.038-1.482,1.39,1.39,1.482,3.15,3.705,3.52a3.819,3.819,0,0,0,2.686-.463C198.216,330.568,197.939,330.383,197.753,330.2Z" transform="translate(-156.141 -317.228)"/><path d="M211.628,325.18c-1.019-.093-1.853.093-2.779-.556-.741-.463-1.2-1.39-1.853-1.945a4.7,4.7,0,0,0-1.482-.834c-.926-1.019-1.945-1.945-2.872-2.872a1.213,1.213,0,0,0-2.038.834c0,.648.093,1.3.093,1.945a3.039,3.039,0,0,0,.371,1.76.091.091,0,0,0,.093.093l-.278.556c-.556,1.39-.556,2.686-1.667,3.891-.648.648-1.482,1.112-2.131,1.76a.7.7,0,0,0,.556,1.2c3.057,0,3.8-2.686,5.188-4.817,2.223-3.428,3.057-.093,4.91,1.019a4.092,4.092,0,0,0,3.428.463,1.308,1.308,0,0,0,.926-1.3v-.371A.58.58,0,0,0,211.628,325.18Z" transform="translate(-156.861 -317.12)"/><path d="M224.655,333.953c-5.188-4.91-6.114-11.394-9.82-16.953-6.485,10.19,3.705,15.748,10.746,21.955A11.458,11.458,0,0,1,224.655,333.953Z" transform="translate(-158.031 -317)"/><path d="M270.156,466.549c-.463-2.038-1.019-4.169-1.482-6.207,0-.185.093-.371.093-.556a1.385,1.385,0,0,0-.648-1.575c-1.667-7.04-3.335-13.988-5.28-20.936-.278-.371-.463-.834-.741-1.2a.9.9,0,0,0-.834.093,17.526,17.526,0,0,1-.463-2.131,54.591,54.591,0,0,1-2.964-5c-.371-.648-.741-1.39-1.2-2.131h-.278c.834,4.91,2.131,9.82,3.242,14.637,1.482,6.577,3.891,13.71,3.057,20.565-1.112,9.449-9.634,15.563-16.953,21.862a29.718,29.718,0,0,1,7.04-2.223c1.019-1.019,2.038-2.131,3.057-3.057a.324.324,0,0,1,.185.093,5.909,5.909,0,0,0,5.466-1.39c2.594-2.223,3.057-8.245,7.133-8.615C269.693,468.309,270.434,467.568,270.156,466.549Z" transform="translate(-160.456 -325.092)"/><path d="M249.866,518.678c-1.667-10.653-15.192-18.713-25.1-13.988-1.019.463-.278,2.038.741,1.76,4.91-1.019,9.727-.648,13.9,2.223,4.169,2.779,5.929,6.67,8.152,10.931A1.274,1.274,0,0,0,249.866,518.678Z" transform="translate(-158.879 -330.718)"/><path d="M294.661,498.912c-.463-1.667-3.15-1.39-3.057.371v.741c-7.781,3.613-16.4,4.169-24.456,6.762-4.817,1.575-11.58,4.354-13.71,9.449h-.093c-.926.185-.926,1.76,0,1.853,14.081,2.5,30.292,0,42.15,10a1.588,1.588,0,0,0,2.686-1.112A115.935,115.935,0,0,0,294.661,498.912Z" transform="translate(-160.968 -330.312)"/><path d="M297.743,545.27H310.8a96.949,96.949,0,0,0,2.779-14.081,90.267,90.267,0,0,0,0-25.475c-1.667-11.858-5.836-25.846-13.062-36.314a31.244,31.244,0,0,1,1.3,8.245,5.315,5.315,0,0,0,.371.648,1.938,1.938,0,0,0-.371.556,12.552,12.552,0,0,1-.185,1.853c-.093,1.945-.278,3.8-.371,5.743l-3.335,12.784a1.382,1.382,0,0,0,2.316,1.3c0,3.891.093,7.874.093,11.765a1.356,1.356,0,0,0,1.575,1.39c.278,2.223.556,4.354.834,6.577a1.867,1.867,0,0,0-1.019.278,4.51,4.51,0,0,0-.093-1.112,1.437,1.437,0,0,0-2.872,0c0,.463-.093.926-.093,1.3a1.494,1.494,0,0,0-1.2,1.39,71.533,71.533,0,0,0,.648,20.38C297.928,543.51,297.836,544.343,297.743,545.27Z" transform="translate(-164.235 -328.221)"/></g><g transform="translate(270.778 199.246)"><path class="b" d="M296.005,523.395a.466.466,0,0,1-.926,0,118.143,118.143,0,0,0-2.5-17.972c-.093-.371-.185-.834-.278-1.2a20.9,20.9,0,0,0,2.038-1.019A110.6,110.6,0,0,1,296.005,523.395Z" transform="translate(-292.3 -503.2)"/></g></g></svg>