<svg xmlns="http://www.w3.org/2000/svg" width="159.112" height="450.601" viewBox="0 0 159.112 450.601"><defs><style>.a{opacity:0.3;}.b{fill:#b5285e;}.c{fill:#c63c7b;}.d{fill:#fff;}</style></defs><g transform="translate(-10.8 -5.4)"><g transform="translate(10.8 422.526)"><ellipse class="a" cx="79.556" cy="16.737" rx="79.556" ry="16.737"/></g><g transform="translate(43.948 7.139)"><path class="b" d="M95.881,182.183c-7.608,2.174-17.172.869-24.562-1.63-.435-.109-.217-.761.217-.652a69.568,69.568,0,0,0,12.5,1.956c3.913.217,7.825-.326,11.738-.435C96.1,181.531,96.207,182.075,95.881,182.183Z" transform="translate(-38.714 8.012)"/><path class="b" d="M106.168,176.559c-6.738,2.5-15.324,1.522-22.28.435a116.885,116.885,0,0,1-23.367-6.63c-.435-.217-.326-.978.217-.761,7.282,2.282,14.346,4.782,21.845,6.086a73.065,73.065,0,0,0,11.955,1.2c3.913,0,7.716-.761,11.52-.869C106.386,175.907,106.386,176.45,106.168,176.559Z" transform="translate(-39.654 7.116)"/><path class="c" d="M104.639,134.219c-7.173,7.717-16.3,13.694-25.214,19.454A98.986,98.986,0,0,1,64.97,135.958c-1.413-2.391-3.261-5-3.369-7.825-.109-2.934,1.413-5.434,3.478-7.5a34.052,34.052,0,0,1,5.434-4.347c.109.978.109,1.848.217,2.826v2.174h0a17.428,17.428,0,0,0-5.652,5.978c-.109.217.109.435.326.217a11.9,11.9,0,0,1,1.087-1.2,44.623,44.623,0,0,0,5.978,11.52,43.106,43.106,0,0,0,7.173,8.369c.217.217.543.435.761.652a6.6,6.6,0,0,0,1.087-.761,89.677,89.677,0,0,0,13.259-10.542,72.153,72.153,0,0,0,6.086-6.847c.652-.869,1.3-1.848,1.956-2.826l1.3,1.63c.217.326.761,0,.543-.326a16.865,16.865,0,0,0-8.369-7.608c-.326-1.413-.652-2.717-.869-4.13-.109-.869-.217-1.739-.326-2.717a26.794,26.794,0,0,1,7.934,5.325,18.282,18.282,0,0,1,4.673,7.064C108.552,128.568,107.03,131.611,104.639,134.219Z" transform="translate(-39.538 2.178)"/><path class="b" d="M107.727,41.339c-6.847,4.13-17.607,5.869-25.214,3.152-.217-.109-.217-.543.109-.435,4.239.326,8.043.978,12.281.543a50.917,50.917,0,0,0,12.607-3.7C107.835,40.687,107.944,41.23,107.727,41.339Z" transform="translate(-37.735 -4.06)"/><path class="b" d="M87.34,388.516a36.517,36.517,0,0,1-.652,6.847,26.22,26.22,0,0,1-2.717.869,127.384,127.384,0,0,1-15.542,3.26,120.322,120.322,0,0,1-25,.326c-.978-4.347-.326-8.8,4.021-11.629,5.434-3.478,11.086-.543,16.411,1.2.326.109.435-.326.217-.543a17.869,17.869,0,0,0-2.391-1.522,15.217,15.217,0,0,0,1.739-1.087,7.589,7.589,0,0,1,2.174.869,8.121,8.121,0,0,1,1.522,1.3,1.333,1.333,0,0,0,.217,1.739,1.542,1.542,0,0,0,2.174,0,1.658,1.658,0,0,0,.109-2.174,1.583,1.583,0,0,0-1.3-.543,8.366,8.366,0,0,0-3.7-2.174c.869-.761,1.63-1.522,2.391-2.282A16.508,16.508,0,0,1,70.6,384.93a1.768,1.768,0,0,0,.652,1.848,1.615,1.615,0,0,0,2.391-1.087,1.477,1.477,0,0,0-1.848-1.739h-.109a9.563,9.563,0,0,0-3.913-2.065,9.849,9.849,0,0,0,1.2-1.739,11.952,11.952,0,0,1,2.934.869c.543.326.978.652,1.522.978v.543a1.634,1.634,0,0,0,1.413,1.2,1.572,1.572,0,0,0,1.3-2.608,1.518,1.518,0,0,0-1.63-.326,8.078,8.078,0,0,0-4.673-2.065c.109-.109.109-.326.217-.435a22.957,22.957,0,0,0,6.521,1.2,31.138,31.138,0,0,0,9.455-.978A81.34,81.34,0,0,1,87.34,388.516Z" transform="translate(-41.149 25.24)"/><path class="b" d="M132.773,393.359c-1.413.978-2.826,2.065-4.347,2.934a110.691,110.691,0,0,1-12.825,6.738,97.547,97.547,0,0,1-14.346,5c-2.934.761-5.869,1.2-8.912,1.848a12.393,12.393,0,0,1-1.087-2.065,11.2,11.2,0,0,1,.326-8.586c3.152-6.63,10.977-6.086,17.063-5a.449.449,0,0,0,.217-.869,16.8,16.8,0,0,0-2.5-.761l1.3-1.63a8.33,8.33,0,0,1,2.174.326,8.236,8.236,0,0,1,1.739.652,1.6,1.6,0,0,0,.543,1.522,1.685,1.685,0,0,0,2.282-.217,1.588,1.588,0,0,0-.326-2.282,1.143,1.143,0,0,0-1.413,0,8.3,8.3,0,0,0-4.021-1.2,26,26,0,0,0,1.413-2.282,1.318,1.318,0,0,0,.543-.109,11.977,11.977,0,0,1,1.956.217,10.2,10.2,0,0,1,1.63.652,2.548,2.548,0,0,0,.543,1.087,1.383,1.383,0,0,0,2.065-.543,1.474,1.474,0,0,0-.761-1.956,1.386,1.386,0,0,0-1.3,0,8.384,8.384,0,0,0-4.021-.869,18.119,18.119,0,0,0,.869-2.174c.326,0,.652-.109.978-.109a11.977,11.977,0,0,1,1.956.217,9.161,9.161,0,0,1,1.522.652,1.44,1.44,0,0,0,.978,1.413,1.593,1.593,0,1,0,0-3.043c-.109,0-.109.109-.217.109a8.967,8.967,0,0,0-4.673-.869c0-.109.109-.326.109-.435A27.4,27.4,0,0,0,128.1,377.6a30.309,30.309,0,0,1,3.913,9.021A35.56,35.56,0,0,1,132.773,393.359Z" transform="translate(-37.023 25.18)"/><path class="b" d="M115.313,31.671c5.978,5.652,10.216,14.672,11.629,23.149,1.087-12.281-3.478-26.627-14.237-32.5a44.681,44.681,0,0,0-4.565,2.282c-.326.217-.652-.217-.326-.543a24.933,24.933,0,0,1,10.542-5,32.287,32.287,0,0,0-4.673-.869,34.167,34.167,0,0,0-8.151.326c-5.652,1.087-10.216,3.7-14.89,6.847-.217.109-.435-.217-.326-.326,5.869-6.3,16.194-9.238,25.214-8.043a57.734,57.734,0,0,0-31.844-1.63,24.515,24.515,0,0,0-1.63,4.239.5.5,0,0,1-.978-.109,16.7,16.7,0,0,1,8.26-12.281,32.25,32.25,0,0,0-9.129,3.043c-4.13,2.174-6.738,5.325-10,8.369-.109.109-.109,0-.109-.109,1.848-4.021,6.195-7.282,10-9.347A25.756,25.756,0,0,1,85.1,7,48.5,48.5,0,0,0,74.34,9.608,47.4,47.4,0,0,0,65.1,13.847a23.077,23.077,0,0,0-4.021,2.608,12.239,12.239,0,0,0-1.63,2.282,3.837,3.837,0,0,0,.869,4.456c.435.326,0,1.087-.435.761-2.608-1.848-2.608-3.913-1.3-5.869-2.717-1.63-4.673-4.347-4.239-7.39a11.259,11.259,0,0,0-1.413,3.043,11.793,11.793,0,0,0,1.2,7.934c.109.217-.217.435-.435.217-2.174-3.043-2.717-8.151-.761-11.52-6.3,5.325-4.347,16.3,4.347,18.911.435.109.217.761-.217.652a11.22,11.22,0,0,1-6.195-3.8c-3.152,0-6.3-1.848-8.477-4.456a20.533,20.533,0,0,0,2.065,4.782c1.413,2.282,3.369,3.8,5.325,5.652.217.217-.109.543-.326.435C45.756,30.8,42.6,26.672,41.3,22.433a21.084,21.084,0,0,0,3.913,11.738A24.161,24.161,0,0,0,55.1,42.1a25.1,25.1,0,0,1,9.347-7.5,40.965,40.965,0,0,1-2.934-8.695c-.109-.435.435-.978.869-.652,1.2.869,2.5,1.63,3.7,2.5a7.894,7.894,0,0,1,1.956-5.543c.217-.217.435,0,.326.326a12.816,12.816,0,0,0-1.2,5.978,66.011,66.011,0,0,0,12.281,6.412,12.853,12.853,0,0,1,4.239-6.412c.326-.217.543.217.326.435a12.833,12.833,0,0,0-3.7,6.3,34.071,34.071,0,0,0,19.78.761c.326-.109.543.435.217.543-12.281,5.543-26.084-1.956-36.409-8.8a50.847,50.847,0,0,0,6.3,8.912c3.043,3.369,6.63,5.76,10.434,8.26.435.326.109.869-.326.652-6.956-3.043-13.151-9.564-16.737-16.52a39.121,39.121,0,0,0,14.346,19.78c2.934-.109,6.521,1.2,8.477,2.065,1.63.761,5.108,2.5,6.847,4.673a27.9,27.9,0,0,0,17.607-1.739c.652-.326,1.2.652.543.978a26.938,26.938,0,0,1-11.194,2.717,12.136,12.136,0,0,0,.326,5.217c0,.217.109.326.217.543h2.717a54.472,54.472,0,0,0,8.369-1.739c.326-.109.435.326.217.543a24.514,24.514,0,0,1-10.76,2.5,7.492,7.492,0,0,0,2.391,2.5l.652.326a59.643,59.643,0,0,0,7.173-1.413c.326-.109.652.435.326.652a23.727,23.727,0,0,1-5.76,1.739l.109.109a4.258,4.258,0,0,1,1.522,3.369,26.152,26.152,0,0,0,4.565-1.739c.326-.217.652.326.326.543a12.674,12.674,0,0,1-4.891,2.282,6.567,6.567,0,0,0,.543,2.608,10.348,10.348,0,0,1,8.8-3.26,8.03,8.03,0,0,1,3.8,1.522c.109-.217.109-.435.217-.652a37.288,37.288,0,0,0,2.174-9.129,37.06,37.06,0,0,0-.978-12.064c-1.739-2.717-3.913-5-5.869-7.5-.217-.217.109-.761.435-.543,4.021,2.826,6.956,7.282,8.912,11.846A48.443,48.443,0,0,0,122.7,44.822c-1.956-4.673-4.782-8.695-7.5-12.933C114.77,31.671,115.2,31.454,115.313,31.671Zm-4.021,12.607c-6.847,4.13-17.607,5.869-25.214,3.152-.217-.109-.217-.543.109-.435,4.239.326,8.043.978,12.281.543a50.917,50.917,0,0,0,12.607-3.7C111.4,43.626,111.509,44.17,111.292,44.278Z" transform="translate(-41.3 -7)"/><path class="b" d="M107.727,41.339c-6.847,4.13-17.607,5.869-25.214,3.152-.217-.109-.217-.543.109-.435,4.239.326,8.043.978,12.281.543a50.917,50.917,0,0,0,12.607-3.7C107.835,40.687,107.944,41.23,107.727,41.339Z" transform="translate(-37.735 -4.06)"/><path class="b" d="M138.9,162.273c-1.63-8.369-1.956-16.737-3.26-25.106-.652-4.021-1.739-8.151-4.13-11.52-2.717-3.7-6.63-5.543-10.977-6.63-5.434-1.413-10.868-2.5-16.3-3.8,5,4.13,8.477,9.781,6.195,15.324-.978,2.5-3.043,4.565-5,6.3-2.717,2.5-5.543,4.782-8.477,7.064a108.388,108.388,0,0,1-15.107,10.216c-.435.217-.761.435-1.2.652-.217-.217-.435-.326-.652-.543a108.665,108.665,0,0,1-7.608-8.26,66.343,66.343,0,0,1-9.021-13.477c-2.065-4.347-1.522-8.26,1.522-11.955a32.834,32.834,0,0,1,7.064-6.195V113.8H70.862c-2.391.435-4.782.869-7.064,1.522a60.447,60.447,0,0,0-9.564,3.8,53.669,53.669,0,0,0-2.5,7.39c-1.739,6.521-2.717,13.259-4.782,19.672A91.973,91.973,0,0,1,41.3,159.773a33.581,33.581,0,0,1,5.869,3.152c1.087.761,2.174,1.522,3.26,2.391-.761-11.846-.543-23.693,3.587-34.887.109-.435.761-.217.652.217-3.043,10-3.587,20.432-3.043,30.866.435,8.912,1.413,17.715,1.956,26.627a259.885,259.885,0,0,1,.109,27.605,247.013,247.013,0,0,1-4.13,34.779c10.542-6.63,24.562-8.586,36.409-6.63,8.043,1.413,14.781,5,21.954,8.586a26.167,26.167,0,0,0,12.825,3.26h.543c-.435-3.8-.869-7.608-1.2-11.412-.978-8.695-1.739-17.5-1.956-26.3a203.111,203.111,0,0,1,.326-21.519c-.543-6.195-.978-12.39-.978-18.476a4.6,4.6,0,0,1-1.3-.435,8.268,8.268,0,0,1-2.065-1.3h-.109v-2.826c0-3.043.109-5.978.109-9.021,0-2.608-.109-5.325-.217-7.934a15.806,15.806,0,0,1-1.956-1.739c-1.522-1.956-2.282-4.782-1.3-7.064.109-.326.543-.109.543.109.109,2.391.217,4.673,1.956,6.521a2.882,2.882,0,0,0,.652.543,69.745,69.745,0,0,1,.326-9.564c0-.217.326-.326.435,0,1.087,5.978.761,12.5.761,18.585,0,3.369,0,6.738-.109,10.108v.109a49.308,49.308,0,0,1,16.629-3.369,30.442,30.442,0,0,1,9.347.978A80.2,80.2,0,0,1,138.9,162.273Zm-40.43,25.649c-7.608,2.174-17.172.869-24.562-1.63-.435-.109-.217-.761.217-.652a69.568,69.568,0,0,0,12.5,1.956c3.913.217,7.825-.326,11.738-.435C98.685,187.27,98.793,187.813,98.467,187.922Zm9.347-6.521c-6.738,2.5-15.324,1.522-22.28.435a116.885,116.885,0,0,1-23.367-6.63c-.435-.217-.326-.978.217-.761,7.282,2.282,14.346,4.782,21.845,6.086a73.065,73.065,0,0,0,11.955,1.2c3.913,0,7.717-.761,11.52-.869C108.031,180.749,108.031,181.292,107.814,181.4Z" transform="translate(-41.3 2.274)"/><path class="b" d="M71.319,180.553c-.435-.109-.217-.761.217-.652a69.568,69.568,0,0,0,12.5,1.956c3.913.217,7.825-.326,11.738-.435a.334.334,0,0,1,.109.652C88.273,184.357,78.709,183.053,71.319,180.553Z" transform="translate(-38.714 8.012)"/><path class="b" d="M83.788,176.994a116.885,116.885,0,0,1-23.367-6.63c-.435-.217-.326-.978.217-.761,7.282,2.282,14.346,4.782,21.845,6.086a73.065,73.065,0,0,0,11.955,1.2c3.913,0,7.716-.761,11.52-.869a.334.334,0,0,1,.109.652C99.33,179.167,90.744,178.189,83.788,176.994Z" transform="translate(-39.663 7.116)"/></g><g transform="translate(42.644 6.052)"><path class="d" d="M108.119,392.261c-.109-.109-.869.109-1.087.109a5.454,5.454,0,0,1-1.3-.217,3.264,3.264,0,0,1-1.2-.652c-2.826.435-6.847.217-8.26.978a10.02,10.02,0,0,0-5,5.543,13.412,13.412,0,0,0,1.087,11.846,13.916,13.916,0,0,1,3.478-.978,10.973,10.973,0,0,1-2.065-5.978c-.217-6.412,4.673-7.934,10-8.369,1.63-.109,4.239-.543,5.108-1.848C108.445,392.478,108.228,392.478,108.119,392.261Z" transform="translate(-35.736 27.473)"/><path class="d" d="M62.84,388.077a15.234,15.234,0,0,0-2.608-1.63h0a1.751,1.751,0,0,1-.761.435c-.543.109-1.848-.543-2.391-.652a16.18,16.18,0,0,0-4.565-.326,12.127,12.127,0,0,0-7.173,3.26c-2.934,2.934-3.587,7.173-2.608,11.086a5.053,5.053,0,0,1,2.174.326h0c.543,0,1.2.109,1.739.109-1.087-3.587-1.522-7.282,2.174-9.89,3.587-2.5,7.064-1.087,10.868-.869a3.977,3.977,0,0,0,3.587-1.413C63.166,388.294,62.949,388.186,62.84,388.077Z" transform="translate(-39.908 26.984)"/><path class="d" d="M95.076,175.622c-1.3.109-2.5-.109-3.7.109-1.087.109-2.065.326-3.152.435a1.267,1.267,0,0,1-.761-.217,23.637,23.637,0,0,1-2.826.109,30.753,30.753,0,0,1-9.455-1.522,7.027,7.027,0,0,1-2.174-.435h-.543a2.393,2.393,0,0,0-.869.109c4.456,4.239,18.585,5.108,24.019,1.413C95.4,175.513,95.184,175.622,95.076,175.622Z" transform="translate(-37.365 8.596)"/><path class="d" d="M104.617,170.312c-1.087.109-2.174,0-3.26.109a19.4,19.4,0,0,1-2.5.217,1.571,1.571,0,0,1-.761-.217c-8.151.978-15.868-.869-23.584-3.043C69.838,166.4,65.273,165.2,60.6,163.9c12.173,7.282,31.627,11.955,44.777,6.521l.217-.217A3.008,3.008,0,0,0,104.617,170.312Z" transform="translate(-38.32 7.711)"/><path class="d" d="M102.3,118.5c-2.391-2.826-5.652-5.869-9.347-6.3a11.607,11.607,0,0,1,.326,2.717,17.282,17.282,0,0,1,9.455,7.716c4.13,7.173-2.174,11.086-6.738,14.89-6.412,5.434-13.477,9.89-20,15.216a19.427,19.427,0,0,1,1.413,1.522c5.76-2.934,10.977-7.064,15.868-11.194,4.13-3.369,11.629-8.043,13.477-13.368C108.388,125.568,104.91,121.547,102.3,118.5Z" transform="translate(-36.983 3.221)"/><path class="d" d="M74.312,144.534c-2.934-2.5-5.434-5.543-8.477-7.825a.653.653,0,0,0-.435-.109c1.848,1.739,3.26,4.021,4.891,5.869a31.292,31.292,0,0,1,4.673,6.086,43.621,43.621,0,0,0,4.239,3.26,12.212,12.212,0,0,1,3.043-1.739A52.4,52.4,0,0,1,74.312,144.534Z" transform="translate(-37.903 5.34)"/><path class="d" d="M136.713,168.759c-1.413-5.543-3.26-10.868-3.26-16.737a.814.814,0,0,1,.109-.543c-.869-3.478-.761-7.717-1.2-11.3a34.787,34.787,0,0,0-3.913-13.151c-5.652-9.89-18.259-9.347-28.04-12.716-.761,0-1.522-.109-2.174-.109H96.5l1.413.978a26.822,26.822,0,0,1,3.152,2.608l.109.109.326.109c5.217.978,10.651,1.848,15.324,4.347,6.63,3.478,10.325,9.129,11.412,17.389.435,2.934.652,6.086.978,9.021.869,8.26,1.63,16.846,4.456,24.888l.217.652.543-.326a7.959,7.959,0,0,1,2.717-.869A26.759,26.759,0,0,0,136.713,168.759Z" transform="translate(-35.203 3.395)"/><path class="d" d="M110.6,251.9c-4.13-2.174-8.26-4.347-12.5-6.412-6.086-3.043-12.39-5.434-19.237-5.978a47.489,47.489,0,0,0-26.627,5.325c.543-3.152.978-6.3,1.413-9.347a205.641,205.641,0,0,0,2.174-33.692c-.543-24.019-7.934-47.712-.652-71.187a1.077,1.077,0,0,0-1.3-1.3c-1.2,5.217-3.043,10-3.478,15.433-.326,4.673-.217,9.347-.217,14.02a179.569,179.569,0,0,0,1.848,28.584,1.556,1.556,0,0,1-.326,1.2c.326,2.826.543,5.652.652,8.369a195.006,195.006,0,0,1-1.63,35.648c0,.109.109.326.109.435,0,4.891-1.3,9.564-2.5,14.346,0,.109.109.217.109.326a14.866,14.866,0,0,1-.217,3.043h0c-.109.326-.109.652-.217.978,10.108-6.847,21.737-10.542,34.235-8.151,4.565-1.087,9.455,2.065,13.585,3.8,4.891,2.065,9.781,4.565,14.781,6.195a30.114,30.114,0,0,0,5.108.978C114.079,253.528,112.232,252.767,110.6,251.9Z" transform="translate(-39.414 4.703)"/><path class="d" d="M112.2,43c1.087,5.543,2.174,10.76,1.956,16.411a49.505,49.505,0,0,1-1.63,10.542c.109,0,.109.109.217.109a9.438,9.438,0,0,1,2.5,2.934A44.433,44.433,0,0,0,116,47.456C114.7,45.934,113.4,44.522,112.2,43Z" transform="translate(-33.839 -2.787)"/><path class="d" d="M118.746,34.059c-2.391-5.325-6.086-10.434-11.3-13.259a3.893,3.893,0,0,1-1.2.435A3.945,3.945,0,0,0,104.4,22h0c5.978,4.021,10.325,9.021,12.716,16.085a40,40,0,0,1,1.956,10.76,1.113,1.113,0,0,1,.543.652,38.271,38.271,0,0,1,1.956,7.716.379.379,0,0,1,.109-.217.824.824,0,0,0,.217-.435,12.708,12.708,0,0,1,.761-5A49.923,49.923,0,0,0,118.746,34.059Z" transform="translate(-34.517 -4.715)"/><path class="d" d="M112.057,15.617c-1.522-.543-3.152-1.087-4.782-1.63-3.043-.435-6.086-.652-8.695-.869-5.869-.435-12.716-.326-18.8,1.3a15.017,15.017,0,0,1-.869,2.934c0,.109-.109.217-.109.435,6.3-.761,12.39-2.065,18.8-1.739a65.349,65.349,0,0,1,9.129,1.087,1.342,1.342,0,0,1,.869-.435,21.9,21.9,0,0,1,6.521.217,7.282,7.282,0,0,1,1.956.761c.217-.109.326-.217.543-.326A39.192,39.192,0,0,0,112.057,15.617Z" transform="translate(-36.74 -5.401)"/><path class="d" d="M88.815,6.217A.379.379,0,0,0,88.707,6c-11.629.978-36.518,8.695-30.431,17.172.761,1.087,2.5.109,1.739-.978-2.826-4.347,12.39-9.238,16.52-10.542l.217-.217a20.586,20.586,0,0,1,6.63-3.587,30.081,30.081,0,0,1,5.434-1.087A.494.494,0,0,0,88.815,6.217Z" transform="translate(-38.604 -6)"/><path class="d" d="M56.905,27.82c-4.13-2.065-6.956-6.521-5.869-11.3a7.589,7.589,0,0,1,.869-2.174A9.524,9.524,0,0,1,54.188,8.8a8.651,8.651,0,0,0-2.174.761c-.761.978-1.522,1.848-2.282,2.826a5.973,5.973,0,0,1-.761.978,12.757,12.757,0,0,0-.869,3.8,12.263,12.263,0,0,0,7.825,12.064C57.014,29.885,57.992,28.363,56.905,27.82Z" transform="translate(-39.407 -5.757)"/><path class="d" d="M46.882,31.364a21.909,21.909,0,0,1-3.043-6.738,1.049,1.049,0,0,1-.869-.978c-.217-1.3-1.087-2.391-1.63-3.7a1.545,1.545,0,0,1-.217-.652,19.7,19.7,0,0,0-.109,5.652,11.544,11.544,0,0,0,.435,2.065c2.5,6.521,8.369,12.607,14.455,14.564a14.151,14.151,0,0,1,1.63-1.956C53.4,37.341,49.708,35.276,46.882,31.364Z" transform="translate(-40.035 -4.845)"/><path class="d" d="M109.138,51.441a37.429,37.429,0,0,1-32.6-6.956,39.812,39.812,0,0,1-8.151-8.912,25.858,25.858,0,0,1-4.239-4.891A29.933,29.933,0,0,0,61.1,25.9c.978,4.021,2.826,7.825,4.456,11.629A48.8,48.8,0,0,0,76.207,48.071c9.89,7.064,21.954,8.586,33.366,5.217C110.768,52.853,110.225,51.114,109.138,51.441Z" transform="translate(-38.277 -4.272)"/><path class="d" d="M89.1,410.215l12.825-2.934,14.781-4.891,17.389-9.89.978.652.978,4.891-13.259,8.151-16.52,6.738-14.781,3.043-.869-3.043Z" transform="translate(-35.845 27.56)"/><path class="d" d="M40.1,398.991l.978,3.478.217,3.043,3.913.543,10.325.326,8.8-.543,9.238-1.3,15.759-4.13v-3.26l.435-3.043-15.107,4.021L54.99,399.86Z" transform="translate(-40.1 27.699)"/></g><g transform="translate(16.217 5.4)"><path d="M69.453,129.159c-.109.435-.761.217-.652-.217l.326-1.956h0l.652-4.565h0c0-.435.109-.869.109-1.413h0v-2.174a24.728,24.728,0,0,0-.217-2.826,8.39,8.39,0,0,0-.217-1.63V113.4c.109,0,.217.109.435.109h1.2v.326A34.278,34.278,0,0,1,69.453,129.159Z" transform="translate(-11.181 3.978)"/><path d="M96.017,127.367c.109.326-.435.543-.543.217a40.874,40.874,0,0,1-3.913-12.173c-.326-1.63-.543-3.587-.761-5.434v-.109A4.729,4.729,0,0,0,92.43,109v.435a8.226,8.226,0,0,0,.109,1.63,9.349,9.349,0,0,0,.109,1.739,26.275,26.275,0,0,0,.326,2.717c.217,1.413.543,2.826.869,4.13l.326,1.3a.4.4,0,0,0,.109.326c.435,1.413.869,2.826,1.3,4.347A5.116,5.116,0,0,0,96.017,127.367Z" transform="translate(-9.27 3.596)"/><path d="M77.3,116.948a12.076,12.076,0,0,0-.761-1.739c-.109-.217-.435-.109-.435.217a13.765,13.765,0,0,0,.652,1.956,12.076,12.076,0,0,0,.761,1.739c.109.217.435.109.435-.217A6.908,6.908,0,0,0,77.3,116.948Z" transform="translate(-10.546 4.125)"/><path d="M82.013,117.107c0-.109-.217-.109-.217,0a19.545,19.545,0,0,1-.326,4.347c-.652,2.282-2.5-.652-3.152-1.413-.109-.109-.217,0-.217.109.109,1.3,1.848,3.7,3.26,2.826a2.454,2.454,0,0,0,.869-1.739A7.591,7.591,0,0,0,82.013,117.107Z" transform="translate(-10.373 4.292)"/><path d="M71.34,121.2c-.326.217-.652.326-.978.543l-.109.109h0a20.215,20.215,0,0,0-3.369,2.826l-.435.435-.435.435c-.326.435-.761.761-1.087,1.2-.109.217-.435,0-.326-.217a17.428,17.428,0,0,1,5.652-5.978h0a4.405,4.405,0,0,1,.978-.543C71.231,120.326,71.34,120.761,71.34,121.2Z" transform="translate(-11.547 4.551)"/><path d="M101.369,126.869l-1.3-1.63c-.109-.109-.217-.326-.326-.435l-.543-.543a20.076,20.076,0,0,0-4.782-3.7c-.109-.109-.217-.109-.435-.217-.109,0-.217-.109-.326-.109-.109-.109-.217-.109-.326-.217-.109-.543-.217-.978-.326-1.522a1.836,1.836,0,0,0,.543.217,16.865,16.865,0,0,1,8.369,7.608C102.021,126.977,101.586,127.195,101.369,126.869Z" transform="translate(-9.079 4.421)"/><path d="M102.635,124.478c-.109.109-.217.326-.326.435-.652.978-1.413,1.956-1.956,2.826a52.629,52.629,0,0,1-6.086,6.847,89.677,89.677,0,0,1-13.259,10.542,6.6,6.6,0,0,0-1.087.761,4.726,4.726,0,0,1-.761-.652,51.406,51.406,0,0,1-7.173-8.369,44.623,44.623,0,0,1-5.978-11.52c0-.109,0-.109-.109-.217.217-.326.435-.543.652-.869a.106.106,0,0,1,.109-.109c0,.109.109.217.109.326.543,1.2.978,2.5,1.522,3.587a46.114,46.114,0,0,0,4.347,7.825,56.49,56.49,0,0,0,7.5,8.477c4.347-3.369,8.912-6.412,12.933-10.216a57.92,57.92,0,0,0,6.847-7.716c.109-.109.109-.217.217-.326.435-.652.869-1.413,1.3-2.065a2.375,2.375,0,0,1,.326-.543c.217.217.326.435.543.652Q102.472,124.152,102.635,124.478Z" transform="translate(-11.432 4.855)"/><path d="M108.758,130.815c-.978,2.5-3.043,4.565-5,6.3-2.717,2.5-5.543,4.782-8.477,7.064A108.389,108.389,0,0,1,80.175,154.4c-.435.217-.761.435-1.2.652-.217-.217-.435-.326-.652-.543a108.666,108.666,0,0,1-7.608-8.26A66.343,66.343,0,0,1,61.7,132.771c-2.065-4.347-1.522-8.26,1.522-11.955a32.834,32.834,0,0,1,7.064-6.195,4.405,4.405,0,0,1,.978-.543c.109-.109.217-.109.326-.217v.109c-.109.543-.109,1.087-.217,1.63a3.813,3.813,0,0,1-.869.543,29.823,29.823,0,0,0-5.434,4.347c-1.956,2.065-3.587,4.565-3.478,7.5.217,2.826,1.956,5.434,3.369,7.825A98.986,98.986,0,0,0,79.414,153.53c8.8-5.652,18.041-11.738,25.214-19.454,2.391-2.608,4.021-5.652,3.043-9.129A16.146,16.146,0,0,0,103,117.882a26.794,26.794,0,0,0-7.934-5.325c-.109,0-.217-.109-.326-.217a9.513,9.513,0,0,0-.217-1.739c.109.109.326.109.435.217a30.686,30.686,0,0,1,4.565,2.391c.978.652,1.956,1.3,2.934,2.065C107.454,119.621,110.932,125.272,108.758,130.815Z" transform="translate(-11.904 3.735)"/><path d="M122.309,255.074a5.973,5.973,0,0,0-.761.978h-3.913a18874.944,18874.944,0,0,0-1.522-.217,26.6,26.6,0,0,1-4.021-.869c-1.63-.543-3.152-1.2-4.673-1.848h0c-.435-.217-.869-.435-1.413-.652-5-2.391-9.781-5.434-15.216-6.956-.869-.217-1.739-.435-2.5-.652-.326-.109-.652-.109-.978-.217-1.63-.326-3.26-.652-4.891-.869-.326,0-.761-.109-1.087-.109a51.832,51.832,0,0,0-15.868.869,34.539,34.539,0,0,0-3.587.978c-.543.109-.978.326-1.413.435a45.863,45.863,0,0,0-4.891,1.956,5.077,5.077,0,0,0-1.087.543c-.109.109-.326.109-.435.217-1.848.869-3.587,1.848-5.325,2.826h-.109c-.109,0-.217.109-.326.109-.326.217-.761.435-1.087.652H47.1v-.109c.109-.543.217-1.2.326-1.739v-.109c.869-4.673,1.63-9.455,2.282-14.237a265.8,265.8,0,0,0,1.413-54.994c-.326-4.891-.869-9.89-1.2-14.89a3.009,3.009,0,0,0-.109-.978v-.217h0v-.869c-.761-11.846-.543-23.693,3.587-34.887.109-.435.761-.217.652.217-3.043,10-3.587,20.432-3.043,30.866.435,8.912,1.413,17.715,1.956,26.627a259.884,259.884,0,0,1,.109,27.605,247.013,247.013,0,0,1-4.13,34.779c10.542-6.63,24.562-8.586,36.409-6.63,8.043,1.413,14.781,5,21.954,8.586a26.167,26.167,0,0,0,12.825,3.26h.543c-.435-3.8-.869-7.608-1.2-11.412-.978-8.695-1.739-17.5-1.956-26.3a203.109,203.109,0,0,1,.326-21.519c.109-1.63.217-3.26.435-4.891.109-1.3.326-2.717.435-4.13,0,1.848,0,3.8.109,5.652.109,2.5,0,5.325.326,7.934-.109,1.739-.109,3.478-.109,5.108,0,4.13,0,8.151.109,12.281.326,8.586.978,17.172,1.848,25.758.326,3.587.869,7.064,1.3,10.651a1.379,1.379,0,0,0,.109.652C122.2,254.748,122.2,254.857,122.309,255.074Z" transform="translate(-13.065 5.331)"/><path d="M106.168,170.059c-6.738,2.5-15.324,1.522-22.28.435a116.884,116.884,0,0,1-23.367-6.63c-.435-.217-.326-.978.217-.761,7.282,2.282,14.346,4.782,21.845,6.086a73.065,73.065,0,0,0,11.955,1.2c3.913,0,7.716-.761,11.52-.869C106.386,169.407,106.386,169.95,106.168,170.059Z" transform="translate(-11.922 8.29)"/><path d="M95.881,175.683c-7.608,2.174-17.172.869-24.562-1.63-.435-.109-.217-.761.217-.652a69.566,69.566,0,0,0,12.5,1.956c3.913.217,7.825-.326,11.738-.435C96.1,174.923,96.207,175.575,95.881,175.683Z" transform="translate(-10.982 9.187)"/><path d="M108.739,154.443c-.217-.109-.326-.217-.543-.326a15.806,15.806,0,0,1-1.956-1.739c-1.522-1.956-2.282-4.782-1.3-7.064.109-.326.543-.109.543.109.109,2.391.217,4.673,1.956,6.521a2.882,2.882,0,0,0,.652.543c.217.109.326.326.543.435v.217A5.292,5.292,0,0,1,108.739,154.443Z" transform="translate(-8.081 6.734)"/><path d="M138.708,174.658h0c-.652-.217-1.3-.435-1.848-.652a27.94,27.94,0,0,0-5.978-1.3c-.326,0-.652-.109-.978-.109h-.543a17.437,17.437,0,0,0-3.369,0,48.619,48.619,0,0,0-11.955,2.391c-.326.109-.761.217-1.087.326-.109,0-.217.109-.435.109l-1.739.543c-.109,0-.217.109-.435.109-.435.109-.869.326-1.3.435h-.109V173.68c0-3.043.109-5.978.109-9.021,0-2.608-.109-5.325-.217-7.934V155.1a69.743,69.743,0,0,1,.326-9.564c0-.217.326-.326.435,0,1.087,5.978.761,12.5.761,18.585,0,3.369,0,6.738-.109,10.108v.109a49.308,49.308,0,0,1,16.629-3.369,30.442,30.442,0,0,1,9.347.978c-.761-3.26-1.413-6.521-2.065-9.781-1.63-8.369-1.956-16.737-3.26-25.106-.652-4.021-1.739-8.151-4.13-11.52-2.717-3.7-6.63-5.543-10.977-6.63-5.434-1.413-10.868-2.5-16.3-3.8a20.558,20.558,0,0,0-2.5-.543,5.021,5.021,0,0,1-.761-.761c-.109-.109-.326-.217-.435-.326-.326-.326-.652-.543-.978-.869a13.516,13.516,0,0,1,1.739.435c2.934.652,5.76,1.413,8.695,2.065,4.347.978,8.912,1.739,13.151,3.152,6.956,2.282,11.194,7.5,13.042,14.455a82.851,82.851,0,0,1,1.848,12.825c.543,4.891,1.2,9.781,2.065,14.672.761,4.13,1.63,8.26,2.717,12.281.326.869.435,1.522.652,2.174Z" transform="translate(-8.923 3.908)"/><path d="M51.2,164.569a2.882,2.882,0,0,0-.652-.543l-.435-.435c-.326-.326-.761-.652-1.087-.978-.543-.435-1.2-.978-1.739-1.413a27.051,27.051,0,0,0-6.521-3.587c-.326-.109-.543-.217-.869-.326.217-.326.543-.761.761-1.087.217.109.543.217.761.326a33.581,33.581,0,0,1,5.869,3.152c1.087.761,2.174,1.522,3.26,2.391a2.882,2.882,0,0,1,.652.543A5.9,5.9,0,0,0,51.2,164.569Z" transform="translate(-13.69 7.694)"/><path d="M72.215,113.774c-.435.109-.761.109-1.2.217a3.173,3.173,0,0,0-.978.217c-2.391.435-4.782.869-7.064,1.522a60.448,60.448,0,0,0-9.564,3.8c-.435.217-.978.435-1.413.652.109-.326.326-.543.435-.869a2.015,2.015,0,0,0,.217-.761,9.937,9.937,0,0,1,1.522-.761,51.9,51.9,0,0,1,8.043-3.26c.869-.326,1.848-.543,2.826-.869.543-.217,1.2-.326,1.739-.543a1.191,1.191,0,0,0,.869,0c1.3-.543,3.043-.109,4.565-.109a.919.919,0,0,0,0,.761Z" transform="translate(-12.639 3.93)"/><path d="M59.575,112.235a1.908,1.908,0,0,1-.435.543,31.156,31.156,0,0,0-3.043,5.217,10.968,10.968,0,0,0-.761,1.63,53.668,53.668,0,0,0-2.5,7.39c-1.739,6.521-2.717,13.259-4.782,19.672A91.972,91.972,0,0,1,42.4,160.273c-.217.435-.435.761-.652,1.2a77.413,77.413,0,0,1-6.521,10.216,15.551,15.551,0,0,0-1.2,1.63,58.1,58.1,0,0,1-4.891,5.434c-.326.326-.761-.109-.435-.543,8.586-10.76,15.542-22.063,19.237-35.539,2.608-9.673,3.587-21.737,9.673-30.323a2.371,2.371,0,0,1,.435-.543A2.125,2.125,0,0,0,59.575,112.235Z" transform="translate(-14.671 3.839)"/><path d="M34.737,165.8a4.347,4.347,0,0,1-1.087,1.956c.217,2.391-.761,4.13-1.848,6.086a.24.24,0,0,0,.326.326C34.519,172.647,35.606,168.843,34.737,165.8Z" transform="translate(-14.395 8.528)"/><path d="M51.449,166.419a68.394,68.394,0,0,1-11.3,12.5,49.2,49.2,0,0,1-10.868,7.39c-6.521,3.152-11.52-1.3-12.173-7.934-.869-9.347,3.369-19.237,7.608-27.279,4.13-7.934,9.238-15.216,13.911-22.823,3.7-5.978,7.39-12.39,9.781-19.128a9.818,9.818,0,0,1-.435-3.043,113.7,113.7,0,0,1-11.738,23.584c-5.543,8.8-11.52,17.389-15.65,26.953a58.781,58.781,0,0,0-4.239,14.129c-.652,4.13-1.087,8.695.761,12.716a9,9,0,0,0,8.477,5.543c4.239-.326,8.369-3.369,11.629-5.869a67.332,67.332,0,0,0,15.542-15.868A9.068,9.068,0,0,1,51.449,166.419Z" transform="translate(-15.784 3.344)"/><path d="M71.293,102.9v.217a4.26,4.26,0,0,1-.435.978,3.054,3.054,0,0,1,1.63.326,4.942,4.942,0,0,1,1.956,1.63c.543,1.63-1.739,3.26-1.739,3.26a6.36,6.36,0,0,1-2.391.543c-2.717.109-5-.869-7.608.326-1.413.652-2.717,1.848-4.347,2.065-2.282.435-3.913-.761-5.325-2.391-.109-.217-.435,0-.435.217,1.087,3.369,5,4.13,7.934,2.608,1.522-.761,2.717-1.739,4.456-1.956,1.63-.217,3.152.326,4.782.326a6.116,6.116,0,0,0,5-1.956C77.488,106.052,74.445,103.443,71.293,102.9Z" transform="translate(-12.587 3.066)"/><path d="M51.247,109.4c-.435.109-.869.435-1.413.543-.543,0-.978-.326-1.522-.217-.109,0-.217.109-.109.217a1.55,1.55,0,0,0,1.63.652,1.829,1.829,0,0,0,1.63-.761C51.573,109.511,51.355,109.294,51.247,109.4Z" transform="translate(-12.973 3.628)"/><path d="M63.6,100.59c-.978,2.174-2.826,5.325-5.325,5.869a3.207,3.207,0,0,1-3.913-2.5c-.761-3.587,4.021-5.76,2.717-9.347-.109-.217.326-.435.435-.217a4.25,4.25,0,0,1,.326,3.26c-.543,1.848-2.5,3.587-2.282,5.434,0,0,.435,3.913,3.8,1.2a.106.106,0,0,0,.109-.109c.109-.109.217-.217.326-.217l.761-.761a10.978,10.978,0,0,0,2.391-4.239c.761-2.608.543-5.652-1.522-7.716C56.756,86.57,51,92.765,48.713,96.678a19.545,19.545,0,0,0-2.5,7.716c-.326,2.5.217,4.673.326,7.173a.279.279,0,0,1-.543.109c-2.826-6.195-.326-14.129,3.913-19.02,1.848-2.065,4.347-4.456,7.282-4.456a7.006,7.006,0,0,1,6.3,3.913A9.328,9.328,0,0,1,63.6,100.59Z" transform="translate(-13.265 1.789)"/><path d="M56.866,96.771c-.435-.217-.869-.217-1.2-.761a5.3,5.3,0,0,1-.326-.761.6.6,0,0,0-.217-.543c0-.109-.109-.109-.217,0-.326.543.109,1.413.326,1.848.326.543.978.978,1.522.761A.379.379,0,0,0,56.866,96.771Z" transform="translate(-12.397 2.347)"/><path d="M65.669,93.726A6.842,6.842,0,0,0,60.56,90.9a4.812,4.812,0,0,1,1.3,1.63c3.26,1.2,4.891,4.673,4.021,8.695-.435,2.065-1.522,4.673-3.913,5.217-2.174.543-3.152-.326-3.587-1.522a6.6,6.6,0,0,1-1.087.761,3.986,3.986,0,0,0,1.956,2.065c3.043,1.413,5.869-1.2,7.064-3.8C67.734,100.79,67.842,96.66,65.669,93.726Z" transform="translate(-12.179 2.024)"/><path d="M64.013,93.4a3.384,3.384,0,0,1,.761.978c4.021.652,6.195,5.108,5,9.238-.761,2.717-2.934,4.673-5.543,3.043a6.212,6.212,0,0,1-.869-.761,4.488,4.488,0,0,1-.761,1.2,4.531,4.531,0,0,0,2.391,1.63c2.391.761,4.565-.869,5.543-3.152C72.925,100.36,69.99,92.643,64.013,93.4Z" transform="translate(-11.719 2.237)"/><path d="M60.021,102.741A3.523,3.523,0,0,0,57.848,101c-.652-.109-1.739.217-1.848.978,0,.217.109.326.326.217.652-.435,1.2-.761,1.848-.326a4.506,4.506,0,0,1,1.2,1.3C59.7,103.5,60.13,103.067,60.021,102.741Z" transform="translate(-12.292 2.899)"/><path d="M62.668,103a2.108,2.108,0,0,0-2.065.761c-.109.109,0,.326.217.217a2.314,2.314,0,0,1,1.739-.326c.652.217.761.652,1.2.978a.3.3,0,0,0,.543-.217C64.3,103.763,63.429,103.111,62.668,103Z" transform="translate(-11.896 3.073)"/><path d="M67.651,103.9c-.652-.109-1.63.109-1.848.761-.109.109,0,.326.217.217.543-.109.978-.435,1.63-.217a2.724,2.724,0,0,1,.761.435c.217.217.217.326.543.435.217.109.435,0,.435-.217C69.281,104.554,68.194,104.011,67.651,103.9Z" transform="translate(-11.444 3.151)"/><path d="M62.667,92.7c-.326-.978-2.5-1.63-3.26-.978a.2.2,0,0,0,0,.326c.543.217.978.109,1.522.326s.869.543,1.413.761C62.558,93.134,62.776,92.916,62.667,92.7Z" transform="translate(-12.003 2.073)"/><path d="M61.552,93.225a2.453,2.453,0,0,0-1.739-.217c-.217.109-.217.326,0,.326a7.179,7.179,0,0,1,1.63.543c.435.217.652.652,1.2.543.109,0,.109-.109.109-.217C62.856,93.659,61.987,93.333,61.552,93.225Z" transform="translate(-11.975 2.199)"/><path d="M66,95.263a2.493,2.493,0,0,0-2.282-.761c-.326,0-.217.543.109.543a2.8,2.8,0,0,1,1.739.761.4.4,0,0,0,.326.109c.109,0,.109-.109.217-.217A.822.822,0,0,0,66,95.263Z" transform="translate(-11.639 2.334)"/><path d="M65.211,96.022a1.139,1.139,0,0,0-1.3-.109.2.2,0,0,0,0,.326,2.685,2.685,0,0,0,.978.435,2.685,2.685,0,0,0,.978.435A.106.106,0,0,0,65.971,97,1.44,1.44,0,0,0,65.211,96.022Z" transform="translate(-11.612 2.445)"/><path d="M69.9,97.471a2.876,2.876,0,0,0-2.282-.869c-.217,0-.217.326-.109.435a16.361,16.361,0,0,1,1.848,1.087.331.331,0,0,0,.435,0,.106.106,0,0,0,.109-.109C70.114,97.8,70.114,97.688,69.9,97.471Z" transform="translate(-11.299 2.518)"/><path d="M69.349,98.437A2.474,2.474,0,0,0,67.61,98c-.217,0-.109.326,0,.326a6.423,6.423,0,0,1,1.522.652c.326.217.652.761,1.087.869a.234.234,0,0,0,.217-.217C70.544,99.2,69.784,98.763,69.349,98.437Z" transform="translate(-11.295 2.638)"/><path d="M55.2,103.983c-.109-.109-.217-.109-.217-.217a2.79,2.79,0,0,1-.543-1.3,1.378,1.378,0,0,1,.109-.652A8.917,8.917,0,0,0,50.526,99.2a.244.244,0,0,0-.217.435,10.518,10.518,0,0,1,4.239,3.913c.978,1.63,1.087,3.26,1.522,5.108.109.326.543.326.543,0a6.194,6.194,0,0,0-.326-3.7A2.379,2.379,0,0,1,55.2,103.983Z" transform="translate(-12.796 2.743)"/><path d="M96.638,246.039a36.75,36.75,0,0,0-5.978.326,47.18,47.18,0,0,1-5.543-.109c-3.8-.326-7.5-1.522-11.3-1.956-.217,0-.217.326-.109.326,3.26,1.956,7.608,2.5,11.412,2.826,3.587.326,8.369.761,11.738-.869C97.181,246.582,96.964,246.039,96.638,246.039Z" transform="translate(-10.761 15.344)"/><path d="M68.406,319.021c-9.673-11.846-10.542-26.627-11.738-41.191-.652-7.39-1.087-14.672-1.413-22.063-.217-5.978,0-12.281-.543-18.367l-.217.217c-.326.217-.761.435-1.087.652-.326,6.3.217,12.933.543,19.128.326,7.934.869,15.868,1.522,23.693,1.2,13.042,2.065,29.018,12.39,38.474C68.189,319.89,68.732,319.347,68.406,319.021Z" transform="translate(-12.526 14.745)"/><path d="M54.817,244.043h0c0-.217.109-.217.109-.326a12.56,12.56,0,0,1-6.3-1.848,8.3,8.3,0,0,1-1.2-.869c-.109.543-.217,1.2-.326,1.739h.109a11.015,11.015,0,0,0,5.217,2.065c.869.217,1.848.326,2.826.543A1.6,1.6,0,0,1,54.817,244.043Z" transform="translate(-13.065 15.057)"/><path d="M54.2,239.159a.711.711,0,0,0-1.2-.543,10.271,10.271,0,0,1-3.369,2.282.893.893,0,0,0-.543.543,1.307,1.307,0,0,0-.869.217c-.435.217-.217.761.109.869a12.146,12.146,0,0,1,2.717,1.2,4.654,4.654,0,0,0,2.391.652.743.743,0,0,0,.761-.761A30.482,30.482,0,0,0,54.2,239.159Z" transform="translate(-12.988 14.833)"/><path d="M115.588,245.817a.83.83,0,0,0-.543-.217,19.236,19.236,0,0,0-2.5.109c-.543,0-1.2,0-1.522.543a3.9,3.9,0,0,0-.217,1.956c0,.543-.217,1.3.109,1.848h0a1.788,1.788,0,0,1,.109,1.087c0,.109-.109.326-.109.435a20.086,20.086,0,0,0,2.934-2.065c.217-.217.435-.326.652-.543A5.519,5.519,0,0,1,115.588,245.817Z" transform="translate(-7.539 15.457)"/><path d="M112,245.217a1.545,1.545,0,0,1-.652-.217c-.435,4.347-.435,8.695-.761,13.042-.435,5.869-1.087,11.738-1.739,17.5-1.413,11.955-3.587,23.8-5.543,35.757-.109.435.543.652.652.217a333.257,333.257,0,0,0,5.869-34.344c.761-5.869,1.413-11.629,1.848-17.5.435-4.673,1.087-9.673,1.087-14.455Z" transform="translate(-8.186 15.405)"/><path d="M96.521,318.957c-1.739-2.282-4.021-4.239-5.76-6.63a36.484,36.484,0,0,1-4.456-8.369c-2.391-6.412-2.5-13.259-1.956-20,.978-12.39,2.826-24.671,3.7-37.061-.217,0-.543.109-.761.109a.98.98,0,0,1-.543-.109c-.652,5.325-1.087,10.76-1.739,16.085-.869,7.825-1.848,15.759-2.391,23.693a41.816,41.816,0,0,0,2.826,19.346c2.065,4.782,5.652,11.086,10.434,13.585C96.3,319.718,96.847,319.283,96.521,318.957Z" transform="translate(-9.992 15.57)"/><path d="M130.86,383.763a8.294,8.294,0,0,1-1.2.869c-.109.109-.217.109-.217.217a9.557,9.557,0,0,1-1.087.652,28.251,28.251,0,0,1-15.868,4.13c-.543,0-1.087-.109-1.63-.109h-.109L108.8,389.2c-.217-.761-.435-1.413-.652-2.174-1.3-4.347-2.5-8.8-3.7-13.042-2.5-8.695-4.891-17.389-7.282-26.084-1.2-4.565-2.391-9.021-3.587-13.585-2.5-9.455-4.782-18.911-6.847-28.475-.109-.652-.326-1.413-.435-2.065a40.5,40.5,0,0,0,2.5,4.021,24.447,24.447,0,0,1,.543,2.391c1.956,8.043,3.8,16.085,5.869,24.019,1.087,4.456,2.174,8.8,3.369,13.259,2.391,8.695,4.782,17.389,7.282,26.084,1.413,4.673,2.934,9.347,4.347,14.02a21.985,21.985,0,0,0,12.607-.869,22.867,22.867,0,0,0,6.195-3.478c-1.3-4.782-2.5-9.564-3.7-14.237-2.5-9.564-4.891-19.346-7.064-29.018-.435-1.956-.869-3.8-1.3-5.76-1.739-7.825-3.478-15.65-5.108-23.476-1.2-5.652-2.5-11.412-3.587-17.172-.109-.761-.326-1.522-.435-2.282a17.317,17.317,0,0,0,.652-4.673c.217.761.326,1.522.543,2.282,1.63,7.5,2.826,15.107,4.347,22.606,1.522,7.608,3.26,15.107,5,22.715.435,1.956.869,3.913,1.413,5.869,2.174,9.564,4.565,19.02,6.956,28.475,1.2,4.456,2.391,8.912,3.7,13.368C130.534,382.458,130.751,383.111,130.86,383.763Z" transform="translate(-9.661 19.017)"/><path d="M88.323,372.064c0,5.108,0,10.216-.109,15.324v1.848c-.652.217-1.3.326-1.848.543h0a.83.83,0,0,0-.543.217c-.543.109-.978.326-1.522.435a30.446,30.446,0,0,1-9.455.978,27.506,27.506,0,0,1-6.521-1.2l-1.63-.652c-.217-.109-.326-.109-.543-.217a17.581,17.581,0,0,1-1.956-1.087V386.3c.109-3.913.217-7.717.109-11.52-.109-8.043-.326-16.085-.652-24.019-.217-4.347-.435-8.586-.761-12.933-.217-3.7-.543-7.39-.761-11.086-.435-5.652-1.087-11.194-1.522-16.737,0-.326-.109-.652-.109-.869a13.082,13.082,0,0,0,1.63,2.608,6.2,6.2,0,0,1,.109,1.413c.543,4.13.869,8.369,1.2,12.5.326,4.021.652,8.151.978,12.173.326,4.13.543,8.26.761,12.39.435,8.151.652,16.411.761,24.562,0,4.13.217,8.477.217,12.716a21.457,21.457,0,0,0,10.216,2.391,37.769,37.769,0,0,0,9.89-1.739c.109-6.63.326-13.259.435-19.889.109-10.108.109-20.324,0-30.431-.109-10.868-.217-21.628-.435-32.5v-2.065c-.109-2.826-.109-5.652-.217-8.477v-.109c0-1.739-.109-3.478-.109-5.108-.109-4.565-.326-9.021-.435-13.585-.326-9.89-.761-19.889-.978-29.888a3.862,3.862,0,0,0,1.087.217c.435,6.3.761,12.716.978,19.02l.326,7.825a90.466,90.466,0,0,0-.978,14.237c0,2.608.109,5.325.217,7.934a16.051,16.051,0,0,0,.109,2.282c.109,2.717.217,5.652,1.63,7.825v1.848c.217,10.108.326,20.215.435,30.323v3.478Q88.486,356.576,88.323,372.064Z" transform="translate(-11.901 15.5)"/><path d="M108.771,393.082c-6.086-1.087-13.911-1.739-17.063,5a11.2,11.2,0,0,0-.326,8.586,12.39,12.39,0,0,0,1.087,2.065c.109.217.326.543.435.761a9.183,9.183,0,0,0-1.848.543c-.217-.326-.326-.652-.543-.978a14.45,14.45,0,0,1-.109-12.172c2.826-5.434,8.695-6.63,14.237-5.869h0a4.621,4.621,0,0,1,1.2.217c.217,0,.326.109.543.109a16.8,16.8,0,0,1,2.5.761C109.531,392.429,109.314,393.19,108.771,393.082Z" transform="translate(-9.417 28.065)"/><path d="M111.277,380.417c-.109.326-.109.652-.217,1.087,0,.109-.109.326-.109.435-.109.543-.326,1.087-.435,1.522a12.952,12.952,0,0,1-.869,2.174,9.936,9.936,0,0,1-.761,1.522,26,26,0,0,1-1.413,2.282l-.978,1.3-1.3,1.63-.326.326h-.217a5.276,5.276,0,0,0-1.848,0l.652-.652h0a14.842,14.842,0,0,0,2.065-2.5l.652-.978c.435-.652.869-1.413,1.3-2.174a2.374,2.374,0,0,1,.326-.543c.109-.326.326-.652.435-.978a23.6,23.6,0,0,0,.761-2.608c.109-.326.109-.652.217-1.087a3.174,3.174,0,0,1,.217-.978A4.8,4.8,0,0,0,111.277,380.417Z" transform="translate(-8.228 27.144)"/><path d="M131.556,393.9c-.435.326-1.087.435-1.522.761a.234.234,0,0,0-.217.217v-1.3a27.935,27.935,0,0,0-.869-6.738,30.309,30.309,0,0,0-3.913-9.021,4.726,4.726,0,0,1-.435-.761,5.621,5.621,0,0,0,1.413-.652c.109.217.217.326.326.543a27.582,27.582,0,0,1,4.239,9.89,29.545,29.545,0,0,1,.869,5.543A6.684,6.684,0,0,1,131.556,393.9Z" transform="translate(-6.335 26.814)"/><path d="M85.36,394.655c0,.217-.109.435-.109.761a1.378,1.378,0,0,0-.652.109c-.435.217-.978.435-1.522.761,0-.326.109-.543.109-.869a35.67,35.67,0,0,0,.652-6.847,47.35,47.35,0,0,0-1.63-9.673c0-.109-.109-.326-.109-.435l.109-.109a4.218,4.218,0,0,1,1.2-.652c.109.326.217.543.326.869a32.265,32.265,0,0,1,1.739,9.564A26.352,26.352,0,0,1,85.36,394.655Z" transform="translate(-10.025 26.927)"/><path d="M69.155,377.743a4.405,4.405,0,0,1-.543.978c-.109.109-.109.326-.217.435-.217.435-.543.869-.761,1.3-.435.652-.869,1.2-1.2,1.739,0,.109-.109.109-.109.217-.217.326-.435.543-.652.869a15.72,15.72,0,0,1-2.391,2.282,11.546,11.546,0,0,1-1.2.978,9.385,9.385,0,0,1-1.739,1.087,4.723,4.723,0,0,1-.761.435,4.656,4.656,0,0,0-1.739-.543c-.217-.109-.435-.109-.652-.217a11.855,11.855,0,0,0,1.2-.652.106.106,0,0,0,.109-.109,19.141,19.141,0,0,0,2.5-1.522,8.208,8.208,0,0,0,1.522-1.2,11.527,11.527,0,0,0,1.63-1.63l.326-.326a1.5,1.5,0,0,0,.326-.435c.543-.761,1.087-1.413,1.63-2.282a9.557,9.557,0,0,0,.652-1.087c.109-.326.326-.543.435-.869.109.109.217.109.326.217Z" transform="translate(-12.188 26.884)"/><path d="M63.917,388.921c-5.325-1.739-10.977-4.565-16.411-1.2-4.347,2.826-5,7.282-4.021,11.629.109.326.109.652.217.978-.217,0-.326.109-.435.109a2.732,2.732,0,0,0-1.63-.217c-.109-.326-.109-.652-.217-.869A12.378,12.378,0,0,1,45.441,387.4c3.913-3.152,9.564-3.043,14.237-1.2h.109a5.3,5.3,0,0,1,.761.326,4.406,4.406,0,0,1,.978.543,12.874,12.874,0,0,1,2.391,1.522C64.352,388.486,64.243,389.03,63.917,388.921Z" transform="translate(-13.579 27.553)"/><path d="M112.1,391.732a10.2,10.2,0,0,1-1.63-.652,8.236,8.236,0,0,0-1.739-.652,8.327,8.327,0,0,0-2.174-.326c-1.087,0-2.174.217-1.848,1.3v.217c-.109.217-.435.435-.652.326-.217-.217-.435-.326-.543-.543h0c-.652-1.087.978-2.282,2.065-2.5h.109a4.668,4.668,0,0,1,1.739,0,8.3,8.3,0,0,1,4.021,1.2,3.454,3.454,0,0,1,1.087,1.087C112.859,391.3,112.424,391.732,112.1,391.732Z" transform="translate(-8.179 27.893)"/><path d="M114.172,387.8a2.894,2.894,0,0,1-1.3-.326,10.2,10.2,0,0,0-1.63-.652,11.974,11.974,0,0,0-1.956-.217,1.9,1.9,0,0,0-.543.109c-.761.109-1.848.326-1.413.761a.583.583,0,0,1-.543.978l-.652-.326a1.428,1.428,0,0,1-.326-1.3c.217-.869,1.087-1.2,1.848-1.413h.217a6.682,6.682,0,0,1,1.522-.109,8.113,8.113,0,0,1,4.021.869,2.816,2.816,0,0,1,1.087,1.2C114.607,387.582,114.389,387.8,114.172,387.8Z" transform="translate(-7.971 27.587)"/><path d="M115.984,384.528a2.184,2.184,0,0,1-1.413-.435,6.423,6.423,0,0,0-1.522-.652,6.018,6.018,0,0,0-1.956-.217,3.009,3.009,0,0,0-.978.109H109.9a1.141,1.141,0,0,0-.978.543.588.588,0,0,1-.435,1.087.6.6,0,0,1-.543-.326,1.3,1.3,0,0,1-.435-1.522,1.567,1.567,0,0,1,1.2-.978,3.346,3.346,0,0,1,1.413-.326.98.98,0,0,0,.543-.109,8.775,8.775,0,0,1,4.673.869,2.538,2.538,0,0,1,1.087,1.3C116.419,384.311,116.2,384.528,115.984,384.528Z" transform="translate(-7.827 27.272)"/><path d="M117.043,384.031a1.6,1.6,0,0,1-2.065,1.522,1.675,1.675,0,0,1-.978-1.413,1.174,1.174,0,0,1,.326-.761,1.258,1.258,0,0,1,.543-.761c.109,0,.109-.109.217-.109C115.956,382.074,117.043,382.944,117.043,384.031Z" transform="translate(-7.256 27.335)"/><path d="M114.908,387.969a1.4,1.4,0,0,1-2.065.543,1.737,1.737,0,0,1-.543-1.087v-.435a1.044,1.044,0,0,1,.652-.978,1.381,1.381,0,0,1,1.3,0A1.529,1.529,0,0,1,114.908,387.969Z" transform="translate(-7.403 27.635)"/><path d="M112.728,392.2a1.685,1.685,0,0,1-2.282.217,1.6,1.6,0,0,1-.543-1.522,1.258,1.258,0,0,1,.543-.761h.217l.326-.326a1.612,1.612,0,0,1,1.413,0A1.73,1.73,0,0,1,112.728,392.2Z" transform="translate(-7.614 27.965)"/><path d="M67.973,389.718a1.651,1.651,0,0,1-2.174,0,1.476,1.476,0,0,1-.217-1.739,9.456,9.456,0,0,0-1.522-1.3,7.588,7.588,0,0,0-2.174-.869,2.785,2.785,0,0,0-2.717.652l-.109.109c-.326.326-.652,0-.761-.326v-.217c0-1.2,1.087-1.63,2.5-1.522a9.079,9.079,0,0,1,2.174.543,11.082,11.082,0,0,1,3.7,2.174,1.323,1.323,0,0,1,1.3.543A1.222,1.222,0,0,1,67.973,389.718Z" transform="translate(-12.092 27.516)"/><path d="M70.252,385.213a3.237,3.237,0,0,1-1.522-.543,19.474,19.474,0,0,0-3.587-1.956,1.713,1.713,0,0,0-2.174.869.477.477,0,0,1-.869-.109v-.217c-.109-1.413.761-1.956,1.956-1.956H64.6a.653.653,0,0,1,.435.109c.326.109.543.109.869.217a9.563,9.563,0,0,1,3.913,2.065,3,3,0,0,1,.761.978C70.578,385,70.469,385.213,70.252,385.213Z" transform="translate(-11.763 27.24)"/><path d="M71.249,385.235a1.639,1.639,0,0,1-2.391,1.087,1.7,1.7,0,0,1-.652-1.848.98.98,0,0,1,.652-.652h0a.565.565,0,0,1,.435-.217H69.4A1.444,1.444,0,0,1,71.249,385.235Z" transform="translate(-11.238 27.434)"/><path d="M72.683,382.484a2.191,2.191,0,0,1-1.2-.326,11.941,11.941,0,0,0-1.522-.978,6.7,6.7,0,0,0-2.934-.869c-.869-.109-1.63.109-1.739.978a.722.722,0,0,1-.435.543c-.109.109-.326,0-.435-.109h0a.836.836,0,0,1-.217-.326v-.109c-.326-1.3.435-1.956,1.63-2.282a6.54,6.54,0,0,1,2.065,0,8.078,8.078,0,0,1,4.673,2.065,2.566,2.566,0,0,1,.652.978A.5.5,0,0,1,72.683,382.484Z" transform="translate(-11.586 27.033)"/><path d="M72.313,383.734a1.772,1.772,0,0,1-1.413-1.2V382a.826.826,0,0,1,.652-.869h.109l.109-.109a.106.106,0,0,0,.109-.109,1.518,1.518,0,0,1,1.63.326A1.457,1.457,0,0,1,72.313,383.734Z" transform="translate(-10.998 27.196)"/><path d="M90.6,392.8c-.435.217-.978.326-1.413.543h-.109c-.652.217-1.413.543-2.065.761a26.22,26.22,0,0,1-2.717.869,127.384,127.384,0,0,1-15.542,3.26,120.322,120.322,0,0,1-25,.326,13.318,13.318,0,0,1-2.065-.217,3.008,3.008,0,0,1-.978-.109c-.435,0-.869-.109-1.413-.109.109.435.217.869.326,1.413h0a25.221,25.221,0,0,1,.761,4.13v2.608a8.388,8.388,0,0,0,1.63.217,101.7,101.7,0,0,0,26.953-.217,96.569,96.569,0,0,0,15.759-3.26c1.2-.326,2.5-.761,3.8-1.087a9.565,9.565,0,0,0,1.63-.543,10.708,10.708,0,0,1-.217-1.848v-.326a30.733,30.733,0,0,1,.326-4.456C90.381,394.213,90.49,393.452,90.6,392.8Zm-2.174,7.39a28.849,28.849,0,0,1-4.021,1.3,127.39,127.39,0,0,1-15.542,3.26,122.23,122.23,0,0,1-26.736.217,15.744,15.744,0,0,0-.869-5.108,98.629,98.629,0,0,0,27.714-.109A96.573,96.573,0,0,0,84.73,396.5c1.3-.326,2.717-.761,4.021-1.2A18.544,18.544,0,0,0,88.425,400.19Z" transform="translate(-13.742 28.238)"/><path d="M136.655,396.721v-.109a18.88,18.88,0,0,1-.543-4.239c0-.761-.109-1.413-.109-2.174-.435.326-.869.652-1.2.869h0c-.543.435-1.087.761-1.63,1.2-1.413.978-2.826,2.065-4.347,2.934a110.692,110.692,0,0,1-12.825,6.738,97.54,97.54,0,0,1-14.346,5c-2.934.761-5.869,1.2-8.912,1.848-.652.109-1.3.217-1.848.326-.326.109-.761.109-1.087.217-.435.109-.978.217-1.413.326a11.459,11.459,0,0,0,.761,1.2A12.042,12.042,0,0,1,90.682,414a3.009,3.009,0,0,1,.326,1.413l.326,1.63a8.388,8.388,0,0,0,1.63-.217,87.6,87.6,0,0,0,9.564-2.065,111.556,111.556,0,0,0,14.346-4.891A94.391,94.391,0,0,0,136,399.329c.543-.326.978-.761,1.522-1.087A2.448,2.448,0,0,1,136.655,396.721Zm-7.173,4.782a110.7,110.7,0,0,1-12.825,6.738,97.547,97.547,0,0,1-14.346,5c-3.26.869-6.738,1.413-10.108,2.065-.217-.761-.543-1.522-.761-2.174a20.267,20.267,0,0,0-1.087-2.174,72.8,72.8,0,0,0,10.977-2.282,111.537,111.537,0,0,0,14.346-4.891,100.506,100.506,0,0,0,18.911-10.325,18.111,18.111,0,0,0,.543,4.239C133.286,399,131.439,400.308,129.482,401.5Z" transform="translate(-9.478 28.013)"/><path d="M72.985,80.067c-2.065,1.2-3.369,3.152-6.086,1.956a4.232,4.232,0,0,1-2.391-2.717c-.326-1.2.217-2.282.435-3.478,0-.217-.217-.435-.435-.326-2.391,1.739-1.3,5.869.869,7.282a5.706,5.706,0,0,0,8.151-2.065C73.855,80.393,73.42,79.85,72.985,80.067Z" transform="translate(-11.67 0.685)"/><path d="M87.078,58.973c-2.5-2.5-8.151-3.478-9.781.652-.109.326.326.652.543.435,1.2-.761,2.282-1.739,3.8-1.956,2.391-.217,4.456,1.413,5.652,3.369,1.739,2.826,3.152,7.608.543,10.325a6.517,6.517,0,0,1-8.8.217c-2.934-2.608-3.043-6.3-2.934-10a.334.334,0,0,0-.652-.109,10.054,10.054,0,0,0,4.239,12.064c3.478,1.956,8.26.978,10.216-2.608C91.86,67.667,89.9,61.8,87.078,58.973Z" transform="translate(-10.656 -0.936)"/><path d="M67.491,59.685c-.326-.326-.978.109-.761.543,1.522,2.826,2.5,5.652,1.3,8.8-1.087,2.934-4.239,5.978-7.608,4.891-3.26-.978-4.565-4.782-3.8-7.934a8.351,8.351,0,0,1,7.825-6.3c.435,0,.543-.652.109-.869-3.8-1.087-7.608,2.717-8.912,5.978-1.413,3.7-.109,8.151,3.587,9.89C67.926,78.7,72.925,65.336,67.491,59.685Z" transform="translate(-12.371 -0.778)"/><path d="M61.472,65.467c-1.2-2.174-4.565-3.152-5.869-.435a.672.672,0,0,0,.217.761,5.01,5.01,0,0,0-.109,2.826c.326,2.174,1.413,4.891,4.13,3.8C62.45,71.444,62.559,67.532,61.472,65.467Z" transform="translate(-12.33 -0.366)"/><path d="M81.274,64.867c-1.2-2.174-4.565-3.152-5.869-.435a.672.672,0,0,0,.217.761,3.669,3.669,0,0,0-.217,2.174.915.915,0,0,1,.435.761,9.283,9.283,0,0,0,2.5,4.021,2.548,2.548,0,0,0,1.2-.217C82.361,70.953,82.47,67.041,81.274,64.867Z" transform="translate(-10.612 -0.418)"/><path d="M118.129,77.773c-.869,3.152-3.26,5.217-4.782,7.934-1.3,2.174-1.848,5-4.456,5.978a4.361,4.361,0,0,1-1.63.326,5.018,5.018,0,0,1-3.26-1.2,4.483,4.483,0,0,1-1.087-1.413,4.36,4.36,0,0,1-.109-4.021c.217-.543,1.087-.217,1.087.326-.217,2.717,1.848,6.086,5,4.347,1.63-.978,2.174-3.152,2.934-4.673,1.413-2.608,3.8-4.673,4.782-7.608,1.413-4.239-.435-8.8-5.108-9.347-4.239-.435-8.043,1.63-9.129,5.76-.109.435-.869.326-.869-.109a4.947,4.947,0,0,1,.543-2.174,5.839,5.839,0,0,1,1.087-1.739,10.348,10.348,0,0,1,8.8-3.26,8.03,8.03,0,0,1,3.8,1.522,6.228,6.228,0,0,1,1.2,1.2A10.489,10.489,0,0,1,118.129,77.773Z" transform="translate(-8.341 -0.064)"/><path d="M104.2,73.724c-.217.326.326.761.543.435,1.3-1.522,2.934-2.934,5.108-2.282,3.369,1.087,2.065,4.347.978,6.521-.435.869-3.7,8.043-5.217,6.3-.217-.217-.652,0-.543.217.109,1.63,1.956,1.63,3.043.761,1.2-.869,1.739-2.717,2.391-3.913.869-1.739,2.174-3.369,2.717-5.217C114.746,70.355,106.921,69.051,104.2,73.724Z" transform="translate(-8.111 0.289)"/><path d="M112.712,74.209a8.226,8.226,0,0,0-1.63-.109,4.93,4.93,0,0,0-3.478,2.391c-.217.326.326.652.543.326a3.975,3.975,0,0,1,3.26-1.739,3.215,3.215,0,0,1,1.087.217A2.149,2.149,0,0,0,112.712,74.209Z" transform="translate(-7.815 0.565)"/><path d="M111.575,71.7a5.078,5.078,0,0,0-4.673,3.369c-.109.217.217.435.435.217a6.261,6.261,0,0,1,3.369-2.391,8.226,8.226,0,0,1,1.63-.109A6.6,6.6,0,0,1,111.575,71.7Z" transform="translate(-7.874 0.357)"/><path d="M107.215,84.711a3.812,3.812,0,0,1,.869-.543c.109,0,.109-.109.217-.109-.978-.869-2.391-2.065-.869-3.152a2.132,2.132,0,0,1,2.391,0h0a2.724,2.724,0,0,1,.435-.761l-.652-.326a2.852,2.852,0,0,0-3.043.435C105.15,81.451,105.8,83.733,107.215,84.711Z" transform="translate(-7.97 1.04)"/><path d="M105.62,78.843c-.109-1.413-2.391-2.391-1.848-3.8a.317.317,0,1,0-.543-.326c-1.3,1.739,1.3,2.608,1.413,4.13.217,1.522-2.174,2.608-.761,4.239.326.435.869-.109.652-.543-.435-.869.543-1.848.869-2.608A4.784,4.784,0,0,0,105.62,78.843Z" transform="translate(-8.222 0.605)"/><path d="M107.4,78.089a2.93,2.93,0,0,0-1.739-2.282c-.978-.326-1.522.326-2.065.761.109,0,.109.109.217.109a2.212,2.212,0,0,1,.652.761h0v.109A2.107,2.107,0,0,1,104.8,79.5v.217c0,.109-.109.217-.109.326v.326h-.109c-.217.543-.652,1.087-.869,1.739A3.426,3.426,0,0,0,107.4,78.089Z" transform="translate(-8.159 0.706)"/><path d="M103.787,72.354a5.9,5.9,0,0,0-.978,1.63c-.109-.217-.326-.543-.435-.761a9.542,9.542,0,0,1-.761-2.5c-.217-1.087.109-2.065-.109-3.152-.435-2.608-2.717-2.717-4.347-4.13-2.934-2.391-3.587-6.3-3.043-9.89a.814.814,0,0,1,.109-.543.928.928,0,0,0,.761,0c.217,0,.326-.109.543-.109a1.378,1.378,0,0,1-.109.652,12.136,12.136,0,0,0,.326,5.217c0,.217.109.326.217.543A3.4,3.4,0,0,0,96.5,60.4,7.492,7.492,0,0,0,98.9,62.9l.652.326a14.019,14.019,0,0,1,1.739.978l.109.109a4.258,4.258,0,0,1,1.522,3.369v1.087a6.567,6.567,0,0,0,.543,2.608A10.264,10.264,0,0,0,103.787,72.354Z" transform="translate(-8.997 -1.276)"/><path d="M118.013,61.585a43.462,43.462,0,0,1-2.5,10c-.109.326-.217.543-.326.869a3.531,3.531,0,0,0-1.087-1.413l.326-.652c.109-.217.109-.435.217-.652a37.288,37.288,0,0,0,2.174-9.129,37.06,37.06,0,0,0-.978-12.064,31.123,31.123,0,0,0-.761-3.043c.978,1.63,2.065,3.26,2.934,4.891a15.519,15.519,0,0,1,.326,3.152A48.3,48.3,0,0,1,118.013,61.585Z" transform="translate(-7.247 -1.918)"/><path d="M107.255,57.631a24.514,24.514,0,0,1-10.76,2.5h-.761a3.254,3.254,0,0,0-.435-1.087h3.369a54.473,54.473,0,0,0,8.369-1.739C107.364,57.087,107.473,57.522,107.255,57.631Z" transform="translate(-8.879 -0.898)"/><path d="M106.66,61.852a23.727,23.727,0,0,1-5.76,1.739c-.326,0-.652.109-.978.109a7.289,7.289,0,0,0-1.522-.978c.326,0,.543-.109.869-.109a59.645,59.645,0,0,0,7.173-1.413C106.769,61.2,107.095,61.743,106.66,61.852Z" transform="translate(-8.61 -0.555)"/><path d="M107.26,65.452a12.674,12.674,0,0,1-4.891,2.282,2.558,2.558,0,0,1-.869.217,4.075,4.075,0,0,0,.109-1.2c.217-.109.543-.109.761-.217a26.152,26.152,0,0,0,4.565-1.739C107.26,64.8,107.478,65.235,107.26,65.452Z" transform="translate(-8.341 -0.242)"/><path d="M121.707,59.9c-.217.652-1.2.652-1.3,0-.435-1.413-.869-2.717-1.413-4.021a33.767,33.767,0,0,0-2.391-4.891c0-.109-.109-.109-.109-.217-1.739-2.717-3.913-5-5.869-7.5-.217-.217.109-.761.435-.543,4.021,2.826,6.956,7.282,8.912,11.846.326.761.652,1.63.978,2.391a33.754,33.754,0,0,0,.435-3.478c1.087-12.281-3.478-26.627-14.237-32.5-.217-.109-.326-.217-.543-.326a6.908,6.908,0,0,1,1.956-.652c.109,0,.109,0,.217-.109.109.109.217.109.326.217,4.782,3.152,8.369,8.477,10.542,13.368A40.312,40.312,0,0,1,121.707,59.9Z" transform="translate(-7.898 -4.141)"/><path d="M121.6,57.308c0,.761-1.2.978-1.3.217l-.652-3.587A48.444,48.444,0,0,0,116.6,42.962c-1.956-4.673-4.782-8.695-7.5-12.933-.217-.217.217-.435.326-.326,5.978,5.652,10.216,14.672,11.629,23.149A33.172,33.172,0,0,1,121.6,57.308Z" transform="translate(-7.686 -3.292)"/><path d="M119.035,19.412a28.784,28.784,0,0,0-7.608,1.739c-.652.217-1.3.543-1.956.761a44.681,44.681,0,0,0-4.565,2.282c-.326.217-.652-.217-.326-.543a24.933,24.933,0,0,1,10.542-5l1.63-.326c-1.413-.652-2.934-1.2-4.347-1.739a57.734,57.734,0,0,0-31.844-1.63c-.217,0-.543.109-.761.109a17.583,17.583,0,0,1,1.087-1.956A.106.106,0,0,1,81,13c.217,0,.435-.109.652-.109A58.793,58.793,0,0,1,119.361,18,.79.79,0,0,1,119.035,19.412Z" transform="translate(-10.225 -4.848)"/><path d="M117.7,17.842a15.9,15.9,0,0,1-1.413.978c-.652-.109-1.2-.326-1.848-.435a32.287,32.287,0,0,0-4.673-.869,34.167,34.167,0,0,0-8.151.326c-5.652,1.087-10.216,3.7-14.89,6.847-.217.109-.435-.217-.326-.326,5.869-6.3,16.194-9.238,25.214-8.043A20.831,20.831,0,0,1,117.7,17.842Z" transform="translate(-9.654 -4.474)"/><path d="M92.59,6.6a15.828,15.828,0,0,0-8.912,7.064,17.586,17.586,0,0,0-1.087,1.956,24.515,24.515,0,0,0-1.63,4.239.5.5,0,0,1-.978-.109,16.7,16.7,0,0,1,8.26-12.281,4.488,4.488,0,0,1,1.2-.761c-1.848.109-3.7.217-5.434.435a48.5,48.5,0,0,0-10.76,2.608,47.4,47.4,0,0,0-9.238,4.239,23.077,23.077,0,0,0-4.021,2.608,7.439,7.439,0,0,0-1.848,2.282,3.837,3.837,0,0,0,.869,4.456c.435.326,0,1.087-.435.761-2.608-1.848-2.608-3.913-1.3-5.869a6.029,6.029,0,0,1,.652-.869c2.282-2.717,6.521-5,8.477-5.978A58.337,58.337,0,0,1,92.373,5.4.612.612,0,0,1,92.59,6.6Z" transform="translate(-12.256 -5.4)"/><path d="M90.289,5.7h0l-.217.217c-.109.109-.326.109-.435.217a7.715,7.715,0,0,0-1.522,1.087c-.326,0-.652.109-.978.109a32.25,32.25,0,0,0-9.129,3.043c-4.13,2.174-6.738,5.325-10,8.369-.109.109-.109,0-.109-.109,1.848-4.021,6.195-7.282,10-9.347a25.755,25.755,0,0,1,5-2.174A28.678,28.678,0,0,1,90.289,5.7Z" transform="translate(-11.258 -5.374)"/><path d="M59.445,17.511a2.367,2.367,0,0,0-.761.978l-.652-.326c-2.717-1.63-4.673-4.347-4.239-7.39.109-.435.217-.978.326-1.413a10.585,10.585,0,0,0-1.63,1.087c-6.412,5.217-4.456,16.194,4.239,18.8.435.109.217.761-.217.652a11.22,11.22,0,0,1-6.195-3.8,9.849,9.849,0,0,1-1.2-1.739A11.944,11.944,0,0,1,55.315,7.4c.435-.217.869.435.652.869a5.968,5.968,0,0,0,1.522,7.934,6.162,6.162,0,0,0,1.413.869C58.9,17.294,59.227,17.4,59.445,17.511Z" transform="translate(-13.019 -5.23)"/><path d="M54.922,8.436a14.927,14.927,0,0,1-1.413,2.174A11.259,11.259,0,0,0,52.1,13.653a11.793,11.793,0,0,0,1.2,7.934c.109.217-.217.435-.435.217-2.174-3.043-2.717-8.151-.761-11.52A6.554,6.554,0,0,1,54.379,8C54.7,7.893,55.031,8.219,54.922,8.436Z" transform="translate(-12.735 -5.176)"/><path d="M55.858,41.736a5.443,5.443,0,0,0-.761.869l-.652-.326a23.376,23.376,0,0,1-14.02-25.541c.109-.761,1.087-.543,1.3,0a10.161,10.161,0,0,0,5.108,6.086,10.041,10.041,0,0,0,2.934.869h.652a3.151,3.151,0,0,0,.978,1.63h-.543c-3.152,0-6.3-1.848-8.477-4.456a7.715,7.715,0,0,1-1.087-1.522V21.63h0a21.084,21.084,0,0,0,3.913,11.738A24.161,24.161,0,0,0,55.1,41.3,6.234,6.234,0,0,0,55.858,41.736Z" transform="translate(-13.671 -4.458)"/><path d="M49.5,31.6c-3.7-1.739-6.847-5.869-8.151-10.108h0a16.261,16.261,0,0,1-.652-3.152c-.109-.652.869-.761,1.087-.109a21.905,21.905,0,0,0,.761,2.5,20.533,20.533,0,0,0,2.065,4.782c1.413,2.282,3.369,3.8,5.325,5.652C50.156,31.386,49.83,31.712,49.5,31.6Z" transform="translate(-13.621 -4.324)"/><path d="M66.391,21.325A12.816,12.816,0,0,0,65.2,27.3v.761a4.825,4.825,0,0,0-1.2-.869V26.65a7.894,7.894,0,0,1,1.956-5.543C66.282,20.89,66.5,21.107,66.391,21.325Z" transform="translate(-11.597 -4.044)"/><path d="M81.082,27.339a12.833,12.833,0,0,0-3.7,6.3.4.4,0,0,1-.109.326v.217c-.326-.109-.652-.109-.978-.217a1.545,1.545,0,0,1,.217-.652A12.853,12.853,0,0,1,80.756,26.9C80.973,26.687,81.3,27.122,81.082,27.339Z" transform="translate(-10.529 -3.538)"/><path d="M98.81,35.22c-12.281,5.543-26.084-1.956-36.409-8.8l-.978-.652c.217.652.326,1.3.543,2.065A39.121,39.121,0,0,0,76.312,47.61a14.16,14.16,0,0,0,1.63,1.087c.109,0,.109.109.217.109-.326.326-.543.761-.869,1.087a26.911,26.911,0,0,1-2.826-2.065A38.577,38.577,0,0,1,63.6,34.676c-.217-.543-.543-.978-.761-1.522A40.965,40.965,0,0,1,59.9,24.46c-.109-.435.435-.978.869-.652,1.2.869,2.5,1.63,3.7,2.5.326.217.761.543,1.087.761a66.011,66.011,0,0,0,12.281,6.412c.109,0,.109.109.217.109a1.545,1.545,0,0,0,.652.217,34.071,34.071,0,0,0,19.78.761C98.918,34.568,99.136,35.111,98.81,35.22Z" transform="translate(-11.954 -3.81)"/><path d="M107.471,51.183A26.938,26.938,0,0,1,96.277,53.9H94.864a33.969,33.969,0,0,1-4.673-.435c-1.2-.217-2.282-.435-3.478-.761A10.973,10.973,0,0,0,85.3,50.966a25.748,25.748,0,0,0,3.913.978,27.9,27.9,0,0,0,17.607-1.739C107.58,49.879,108.123,50.857,107.471,51.183Z" transform="translate(-9.748 -1.515)"/><path d="M78.651,44.21C71.7,41.167,65.5,34.646,61.914,27.69c-.543-1.087-.978-2.065-1.413-3.152a.369.369,0,0,1,.652-.326c.326.652.761,1.413,1.087,2.065a50.847,50.847,0,0,0,6.3,8.912c3.043,3.369,6.63,5.76,10.434,8.26C79.412,43.776,79.086,44.428,78.651,44.21Z" transform="translate(-11.902 -3.78)"/><path d="M107.727,41.339c-6.847,4.13-17.607,5.869-25.214,3.152-.217-.109-.217-.543.109-.435,4.239.326,8.043.978,12.281.543a50.917,50.917,0,0,0,12.607-3.7C107.835,40.687,107.944,41.23,107.727,41.339Z" transform="translate(-10.003 -2.322)"/><path d="M82.407,83.116c-1.413,2.282-1.956,4.565-4.021,6.412a15.1,15.1,0,0,1-8.26,3.369c-.435,0-.435.543,0,.652A12.067,12.067,0,0,0,78.6,90.832c2.174-1.63,4.565-4.673,4.565-7.608C83.059,82.9,82.516,82.79,82.407,83.116Z" transform="translate(-11.093 1.331)"/><path d="M82.047,90.506c-.869.869-1.3,1.956-2.282,2.717a12.041,12.041,0,0,1-3.152,1.522c-.326.109-.109.543.109.543C79,95.4,82.373,93.223,82.7,90.832,82.808,90.614,82.373,90.288,82.047,90.506Z" transform="translate(-10.516 1.984)"/><path d="M64.577,33.922a.106.106,0,0,0-.109.109,25.736,25.736,0,0,0-5.434,3.26,24.529,24.529,0,0,0-6.195,7.934,24.167,24.167,0,0,0-2.282,11.738c.217,3.8,1.63,7.173,2.717,10.76,1.3,4.782-.109,9.129-1.413,13.585-.109.543-.326.978-.435,1.522a37.092,37.092,0,0,0-1.087,5,23.306,23.306,0,0,0,.217,7.282c.109.435.109.869.217,1.3.109.326.109.543.217.869a10.071,10.071,0,0,0-1.522,1.522c-.109-.217-.109-.543-.217-.761a27.306,27.306,0,0,1-.435-2.934,31.75,31.75,0,0,1-.109-6.412c.326-3.8,1.63-7.39,2.717-11.086,1.413-5,.543-8.8-.978-13.585a25.84,25.84,0,0,1,2.065-21.193,17.7,17.7,0,0,1,1.2-1.848,5.973,5.973,0,0,1,.761-.978,25.1,25.1,0,0,1,9.347-7.5c.109,0,.217-.109.326-.109A8.006,8.006,0,0,0,64.577,33.922Z" transform="translate(-12.935 -3.056)"/><path d="M107.881,88.4c-.109.217-.217.543-.326.761-.109.109-.109.326-.217.435-1.2,3.478-1.2,6.956-1.739,10.542-.761,6.195-4.782,9.455-10.542,11.3h-.109c-.543.217-1.087.326-1.63.543a120.4,120.4,0,0,1-21.411,4.239h-.543c-.326,0-.652.109-1.087.109H69.19a26.281,26.281,0,0,1-5.108-.435,12.6,12.6,0,0,1-4.347-1.739.824.824,0,0,0-.435-.217,4.071,4.071,0,0,0,1.3-.761c.217.109.326.217.543.217,4.891,2.391,11.52,1.2,16.846.217,6.521-1.2,13.911-2.174,20-5.108a10.34,10.34,0,0,0,6.086-8.8,66.791,66.791,0,0,1,.978-8.151,28.845,28.845,0,0,1,1.3-4.021c.217-.543.543-1.087.761-1.63A4.539,4.539,0,0,0,107.881,88.4Z" transform="translate(-12.005 1.59)"/><path d="M66.53,48.8c-3.043-.326-6.63,2.174-8.695,4.021-1.848,1.63-4.673,4.782-4.13,7.5a.807.807,0,0,0,1.2.435c1.087-.435,1.63-1.522,2.5-2.282a22.887,22.887,0,0,1,2.934-2.717c2.174-1.739,4.891-2.282,7.173-3.913A1.706,1.706,0,0,0,66.53,48.8Z" transform="translate(-12.497 -1.634)"/><path d="M91.4,55.808a1.074,1.074,0,0,1-.761.761c-1.522.217-2.065-.217-3.152-1.2a22.131,22.131,0,0,0-5.217-3.8A20.272,20.272,0,0,0,75.536,49.5c-1.63-.217-2.608-.109-3.913-1.087a1.017,1.017,0,0,1,0-1.413,4.093,4.093,0,0,1,1.63-.978A5.077,5.077,0,0,1,75.1,45.7c2.934-.109,6.521,1.2,8.477,2.065,1.63.761,5.108,2.5,6.847,4.673a4.264,4.264,0,0,1,.869,1.522A1.618,1.618,0,0,1,91.4,55.808Z" transform="translate(-10.96 -1.901)"/><path d="M122.512,236.892a4.015,4.015,0,0,0-1.522.761c-.109-.217-.109-.543-.217-.761-.326-1.087-.543-2.065-.869-3.043-.978-3.478-1.848-6.847-2.608-10.325-1.522-6.738-2.826-13.585-3.8-20.432-.109-.435-.109-.869-.217-1.3-.435-3.26-.869-6.521-1.2-9.781-.543-6.195-.978-12.39-.978-18.476V169.4a5.456,5.456,0,0,1,1.3.217h.109v.761a268.368,268.368,0,0,0,2.391,33.583c.978,6.847,2.282,13.694,3.913,20.432q1.141,4.891,2.608,9.781a20.282,20.282,0,0,0,.761,2.391C122.4,236.457,122.4,236.675,122.512,236.892Z" transform="translate(-7.507 8.84)"/><path d="M133.247,202.448a171.306,171.306,0,0,0-5.217-34.779,3.919,3.919,0,0,1-1.63-.869c2.608,11.955,4.782,23.91,5.434,36.191.326,6.521.326,13.151,0,19.672-.217,4.891-.869,9.89-1.3,14.781h.109a13.025,13.025,0,0,1,1.3,1.2,125.124,125.124,0,0,0,1.413-15.542A186.98,186.98,0,0,0,133.247,202.448Z" transform="translate(-6.179 8.614)"/><path d="M123.381,231.659c.326,0,.326-.652,0-.652-3.152-.652-4.891,2.608-5.217,5.325-.326,2.608.326,5.325-.978,7.608-1.087,1.848-3.043,3.043-3.478,5.217a3.842,3.842,0,0,0,4.565,4.565c3.587-.543,5.325-5,5.434-8.26,0-.543-.652-.543-.869-.109a35.962,35.962,0,0,1-1.522,4.456c-.978,1.739-3.8,4.021-5.76,1.848-2.174-2.391,2.174-5.543,3.152-7.39C120.555,240.245,117.295,232.528,123.381,231.659Z" transform="translate(-7.29 14.182)"/><path d="M127.043,243.729c-.543,3.913-1.087,7.5-2.717,11.086-.652,1.3-1.3,2.717-1.956,3.913a10.445,10.445,0,0,1-1.522,2.282l-.109.109c-.435.652-1.956,2.174-3.587,1.087a2,2,0,0,1-.761-2.391,1.445,1.445,0,0,1,.326-.869.106.106,0,0,1,.109-.109c.978-2.717,2.826-4.782,3.478-7.717.109-.435.217-.978.326-1.413a3.4,3.4,0,0,1-1.2.978c-.109.326-.217.652-.326,1.087-.869,2.391-2.5,4.239-3.369,6.521-.978,2.174-.652,5.217,2.282,5.543,3.587.326,5.652-4.456,6.847-7.064a33.816,33.816,0,0,0,3.152-13.042C127.912,243.186,127.151,243.295,127.043,243.729Z" transform="translate(-7.148 15.262)"/><path d="M132.507,244.726a.326.326,0,0,0-.652,0,34.1,34.1,0,0,1-2.608,11.846,35.886,35.886,0,0,1-2.5,4.456c-.978,1.413-3.8,5.217-5.869.761-.109.109-.109.217-.217.217a4.727,4.727,0,0,1-.761.652,3.6,3.6,0,0,0,1.087,1.522c1.956,1.522,4.13.435,5.543-1.2C130.768,258.529,133.159,251.03,132.507,244.726Z" transform="translate(-6.743 15.353)"/><path d="M129.965,230.808c-.326-.326-.869.217-.543.543,4.673,4.347,6.412,10.76,5.869,16.955a37.116,37.116,0,0,1-2.065,9.129,13.642,13.642,0,0,1-2.391,4.673,3.758,3.758,0,0,1-4.456.869,9.8,9.8,0,0,1-.978,1.087,5.028,5.028,0,0,0,4.347.435c3.587-1.3,4.782-6.3,5.652-9.564C137.681,246.458,136.92,236.894,129.965,230.808Z" transform="translate(-6.266 14.164)"/><path d="M114.719,246.208c-.435.109-.217.761.217.652,1.2-.326,1.3,1.3,1.63,1.956.109.217.326.109.435,0C117.436,247.4,116.132,245.665,114.719,246.208Z" transform="translate(-7.214 15.501)"/><path d="M119.23,258.7c-.652,0-1.63.435-1.63,1.2,0,.217.217.326.326.109a1.334,1.334,0,0,1,1.739-.326c.435.217.761.761,1.2.761.326,0,.543-.109.435-.435C121.187,259.243,119.882,258.7,119.23,258.7Z" transform="translate(-6.943 16.594)"/><path d="M122.907,260.345a.331.331,0,0,0,0,.435.106.106,0,0,0,.109.109h.326c.435-.217.543-.435,1.087-.217.543.109.978.652,1.522.869a.334.334,0,0,0,.435-.435A2.206,2.206,0,0,0,122.907,260.345Z" transform="translate(-6.489 16.688)"/><path d="M127.207,259.037c-.109.109-.109.326,0,.326.652.326,1.3-.109,1.956,0s.869.652,1.3,1.087c.217.217.435.109.543-.109C131.445,258.711,128.076,258.059,127.207,259.037Z" transform="translate(-6.116 16.584)"/><path d="M122.918,251.1a.233.233,0,0,0-.109.435,7.3,7.3,0,0,1,1.3.652c.326.217.543.543.978.652a.234.234,0,0,0,.217-.217C125.2,251.535,123.788,251.209,122.918,251.1Z" transform="translate(-6.501 15.934)"/><path d="M122.618,252.3a.233.233,0,0,0-.109.435c.326.217.761.326,1.087.543a3.813,3.813,0,0,0,.869.543.234.234,0,0,0,.217-.217A2.132,2.132,0,0,0,122.618,252.3Z" transform="translate(-6.527 16.038)"/><path d="M127.707,253.208c-.109,0-.109.109,0,.217a2.185,2.185,0,0,1,.869.435,4.725,4.725,0,0,1,.761.652c.109,0,.217,0,.217-.109C129.663,253.425,128.467,252.882,127.707,253.208Z" transform="translate(-6.072 16.109)"/><path d="M127.51,254.4c-.109,0-.217.217,0,.326a3.861,3.861,0,0,0,.978.435,3.813,3.813,0,0,0,.869.543c.109.109.326-.109.217-.217A1.9,1.9,0,0,0,127.51,254.4Z" transform="translate(-6.093 16.217)"/><path d="M132,252.62v.109c.217.326.652.326.869.543a3.4,3.4,0,0,0,1.087.543.288.288,0,0,0,.326-.326C134.065,252.728,132.652,251.968,132,252.62Z" transform="translate(-5.693 16.045)"/><path d="M133.845,254.126a1.955,1.955,0,0,0-1.739-.217c-.109,0-.109.109,0,.217a1.5,1.5,0,0,0,1.739.326C133.954,254.452,133.954,254.235,133.845,254.126Z" transform="translate(-5.69 16.168)"/><path d="M119.89,243.15c-.326-.869-1.739-.761-2.282-.109-.217.217,0,.543.217.435a1.535,1.535,0,0,1,.978-.109c.326,0,.543.109.761.109A.347.347,0,0,0,119.89,243.15Z" transform="translate(-6.95 15.19)"/><path d="M119.885,241.426c-.543-.652-1.848-.217-2.282.435-.109.217.109.435.217.326a3.454,3.454,0,0,1,.978-.326,2.338,2.338,0,0,0,.869,0C119.993,241.861,120.1,241.534,119.885,241.426Z" transform="translate(-6.945 15.066)"/><path d="M126.248,185.316c-3.7-.761-7.716.761-10.542,3.152-.217.217.109.652.326.435,3.26-2.065,6.3-2.5,10.108-2.826A.389.389,0,0,0,126.248,185.316Z" transform="translate(-7.114 10.205)"/><path d="M122.826,188a9.359,9.359,0,0,0-6.521,3.152c-.217.326.217.652.543.543.978-.435,1.848-1.2,2.717-1.63,1.087-.543,2.174-.761,3.26-1.2C123.26,188.652,123.26,188,122.826,188Z" transform="translate(-7.061 10.455)"/><path d="M86.659,78.4a.761.761,0,0,0,0,1.522A.761.761,0,0,0,86.659,78.4Z" transform="translate(-9.693 0.939)"/><path d="M56.441,75.6a.757.757,0,1,0,.543,1.413C57.854,76.691,57.311,75.278,56.441,75.6Z" transform="translate(-12.298 0.692)"/><path d="M90.265,83.5a.815.815,0,0,0,0,1.63A.815.815,0,0,0,90.265,83.5Z" transform="translate(-9.387 1.381)"/><path d="M92.159,78.4a.761.761,0,0,1,0,1.522A.761.761,0,0,1,92.159,78.4Z" transform="translate(-9.216 0.939)"/><path d="M51.235,77.4a.757.757,0,0,1,.543,1.413C50.909,79.251,50.366,77.839,51.235,77.4Z" transform="translate(-12.744 0.848)"/><path d="M55.341,82.9a.809.809,0,0,1,.543,1.522A.809.809,0,0,1,55.341,82.9Z" transform="translate(-12.394 1.326)"/><path d="M87.279,248.2a26.94,26.94,0,0,1-1.848-5.217A36.066,36.066,0,0,1,85,234.617c-.326-.109-.543-.109-.869-.217a26.3,26.3,0,0,0,1.413,13.477C86.192,247.985,86.735,248.094,87.279,248.2Z" transform="translate(-9.879 14.484)"/><path d="M85.679,243.916a8.227,8.227,0,0,1-1.63.109c-3.26-.217-4.456-2.826-4.456-5.869,0-1.3.109-2.717.109-4.13-.326-.109-.761-.217-1.087-.326-.109,1.3-.109,2.608-.109,3.913-.109,1.739-.217,3.587.761,5.108C80.788,244.894,83.5,245.438,86,245A2.1,2.1,0,0,1,85.679,243.916Z" transform="translate(-10.344 14.423)"/><path d="M60.747,235.812a1.2,1.2,0,0,1-.869,0,12.636,12.636,0,0,1-.435,1.956,21.86,21.86,0,0,1-5.434,8.477c-.326.326.109.978.543.652A17.855,17.855,0,0,0,61.291,235.7.478.478,0,0,0,60.747,235.812Z" transform="translate(-12.475 14.594)"/><path d="M111.634,255.429a12.19,12.19,0,0,1-6.847-5.76,23.27,23.27,0,0,1-2.282-7.39,2.367,2.367,0,0,1-.869-.543.849.849,0,0,1-.435-.435c.652,6.521,4.239,14.564,10.542,15.868A8.786,8.786,0,0,1,111.634,255.429Z" transform="translate(-8.367 15.083)"/><path d="M112.565,173.513a3.862,3.862,0,0,1-1.087-.217,4.6,4.6,0,0,1-1.3-.435,8.268,8.268,0,0,1-2.065-1.3l-.109-.109V169.6a7.615,7.615,0,0,0,1.087.869l.326-.326a2.339,2.339,0,0,1,.869,0,1.032,1.032,0,0,1,1.2-.435.347.347,0,0,1,.326.326l.109.109a1.388,1.388,0,0,1-.217,1.3,4.707,4.707,0,0,1,.543.109v.217C112.456,172.643,112.456,173.078,112.565,173.513Z" transform="translate(-7.777 8.858)"/><path d="M135.58,169.516c-.109-.326-.217-.652-.326-1.087-.217.217-.435.543-.652.761a1.176,1.176,0,0,0-.543-.435,19.874,19.874,0,0,0-2.717-.652,14.767,14.767,0,0,1-3.043-1.2.8.8,0,0,0-1.2.869c.543,1.848.869,4.239,1.956,5.869l-.652.326c0,.109,0,.109.109.217a3.1,3.1,0,0,1,0,1.413c.978-.543,2.065-1.3,2.934-1.848a15.232,15.232,0,0,0,4.456-3.913A.347.347,0,0,1,135.58,169.516Z" transform="translate(-6.121 8.615)"/><path d="M70.224,123.115c0-.109.109-.326.109-.435.217-.869-.761-1.3-1.413-.761-.869.761-2.174,1.522-2.608,2.5s.217,1.848.761,2.608l-.326.652c.326.652.543,1.2.869,1.848a13.736,13.736,0,0,1,1.413-2.826c.217-.326.543-.652.761-.978a8.257,8.257,0,0,1,.652-2.826Z" transform="translate(-11.409 4.697)"/><path d="M99.052,125.317h0c0-.217,0-.326.109-.435h.326c.109-.217.326-.326.435-.435v-.326c-.217-.543-.543-.869-1.087-.761a.106.106,0,0,0-.109.109,6.228,6.228,0,0,0-1.2-1.2,24.161,24.161,0,0,0-2.934-2.065.818.818,0,0,0-1.2.652c0,.326.109.761.109,1.087a11.71,11.71,0,0,1,1.3,2.608,13.225,13.225,0,0,1,3.478,2.174A5.856,5.856,0,0,1,99.052,125.317Z" transform="translate(-9.044 4.559)"/></g><g transform="translate(35.58 71.466)"><path d="M93.576,110.071c-.109.109-.217.109-.435.217a1.544,1.544,0,0,0-1.63-1.087c-6.3,1.413-12.716,2.608-18.911,4.239l-.652.326h-.761a1.1,1.1,0,0,0-.978.652.4.4,0,0,1-.109.326v.761h0c0,.543.217.978.217,1.413,0,.326.109.761.109,1.087a52.015,52.015,0,0,0,23.367-4.673A16.452,16.452,0,0,1,93.576,110.071Z" transform="translate(-30.431 -62.454)"/><path d="M59.218,105.547c0-.109-.109-.326-.217-.326-.761-.217-1.3.109-2.065,0a3.067,3.067,0,0,1-1.63-.435,2.891,2.891,0,0,1-1.087-3.152c.326-1.739,1.413-3.152,2.065-4.782a.734.734,0,0,1-.435-.652c-1.956,1.522-3.478,5.434-3.043,7.716.435,2.391,4.021,3.478,6.086,2.5a.775.775,0,0,0,.326-.652S59.218,105.655,59.218,105.547Z" transform="translate(-31.939 -63.581)"/><path d="M63.7,105.728c-1.413.326-2.391.978-3.913.435-1.2-.326-1.739-1.3-2.826-1.956a.488.488,0,0,0-.761.435c.326,3.369,6.086,4.456,8.151,2.174A.669.669,0,0,0,63.7,105.728Z" transform="translate(-31.638 -62.894)"/><path d="M69.91,103.527c-.652,1.413-1.3,2.826-2.934,3.478-1.522.543-2.608-.217-4.021-.652-.435-.217-.761.435-.652.761.869,1.739,3.478,2.065,5.108,1.522a6.137,6.137,0,0,0,3.7-4.456C71.322,103.418,70.236,102.766,69.91,103.527Z" transform="translate(-31.11 -62.975)"/><path d="M54.73,100.714A5.983,5.983,0,0,0,50.6,99.3c.217.109.326.217.543.326.109,0,.217.109.326.109.109.109.217.109.217.217a13.266,13.266,0,0,1,2.717,2.174A3.008,3.008,0,0,1,54.73,100.714Z" transform="translate(-32.124 -63.313)"/><path d="M55.5,104.4a8.665,8.665,0,0,1,.761,3.7c1.087-.543,1.2-2.065.761-3.478A8.527,8.527,0,0,1,55.5,104.4Z" transform="translate(-31.698 -62.869)"/><path d="M56.142,96.656a2.225,2.225,0,0,1-.869-.869c-.109-.326.109-.652-.109-.978,0-.109-.109-.109-.217-.109-.543.109-.652,1.087-.543,1.522a2.055,2.055,0,0,0,1.3,1.522A.6.6,0,0,0,56.142,96.656Z" transform="translate(-31.797 -63.712)"/><path d="M73.559,104.8a2.465,2.465,0,0,1,.326,2.717,2.273,2.273,0,0,1-.435.652c.217.978-.109,1.63-.978,1.848a5.334,5.334,0,0,1-3.369.761c-1.739,0-3.369-.543-5-.217a6.159,6.159,0,0,0-3.8,1.956,6.728,6.728,0,0,1,1.848,1.2c2.174-1.413,4.13-.978,7.064-.869a7.991,7.991,0,0,0,5.217-1.522C76.168,109.365,76.494,105.452,73.559,104.8Z" transform="translate(-31.282 -62.835)"/><path d="M116.2,67.831a10.634,10.634,0,0,0-6.195-1.63,8.871,8.871,0,0,0-7.608,5.325v.326a16.659,16.659,0,0,1,4.13-3.152,1.615,1.615,0,0,1,.978-.217,6.471,6.471,0,0,1,2.934-.652,8.29,8.29,0,0,1,5,1.956A10.46,10.46,0,0,1,116.2,67.831Z" transform="translate(-27.626 -66.187)"/><path d="M130.416,172.077a1.5,1.5,0,0,1-.326-1.3c-.435-.109-.761-.217-1.2-.326a1.085,1.085,0,0,0,.435-.543h0a.844.844,0,1,0,.435-1.63c-5.543-1.848-12.933-.761-18.041,1.956-.543.326-.217.978.326.978v.109a7.176,7.176,0,0,0-.109,1.522c-.109,0-.109.109-.217.109a1.379,1.379,0,0,1,.109.652,3.215,3.215,0,0,1-.217,1.087c3.369-1.63,6.63-2.934,10.542-3.043a27.805,27.805,0,0,1,8.586,1.2A1.174,1.174,0,0,0,130.416,172.077Z" transform="translate(-26.841 -57.403)"/><path d="M109.117,156.26c-.109,0-.109-.109-.217-.109a.337.337,0,0,0,.109-.217v-1.3a4.877,4.877,0,0,0-1.2-1.413,11.181,11.181,0,0,1-2.174-3.369c-.109-.217-.217-.217-.326-.217a4.786,4.786,0,0,1,.217-1.739,6.15,6.15,0,0,1-.217-2.391c-3.26,3.7-.435,10.76,3.913,12.933C109.226,157.781,109.117,157.02,109.117,156.26Z" transform="translate(-27.496 -59.301)"/><path d="M55.445,116.443h0a29.1,29.1,0,0,0-3.26,7.825,25.312,25.312,0,0,1-1.2,3.043c-.109.326-.109.761-.217,1.087a1.314,1.314,0,0,1,.326,1.087c-.326,2.174-1.3,4.13-1.739,6.3a24.325,24.325,0,0,1-1.087,4.021,1.246,1.246,0,0,1,.109,1.087,73.983,73.983,0,0,1-2.826,8.26.4.4,0,0,1-.109.326,35.769,35.769,0,0,1-2.826,7.39.83.83,0,0,1,.217.543h0a3.3,3.3,0,0,0-1.413,2.5.4.4,0,0,0,.109.326,55.772,55.772,0,0,1-7.064,9.564c-.109.109-.109.109-.217.109l-.652,1.63v1.087C51.315,158.4,49.25,134.92,56.423,115.9A2.1,2.1,0,0,1,55.445,116.443Z" transform="translate(-33.6 -61.871)"/><path d="M45.765,159.517c-1.3-.869-2.934-1.522-3.913-2.717a1.053,1.053,0,0,0-.761.869.926.926,0,0,0-.543,1.2,3.591,3.591,0,0,0-1.522,0c-.326.109-.435.435-.217.652,1.522,1.3,3.8,1.848,5.543,3.043a16.056,16.056,0,0,1,3.369,3.26,9.849,9.849,0,0,1,1.2-1.739c-.109-.109-.217-.326-.435-.435.435-.217.761-.543,1.2-.761L50,162.56A32.617,32.617,0,0,0,45.765,159.517Z" transform="translate(-33.158 -58.32)"/></g></g></svg>